<?xml version="1.0" standalone="no"?>
<!DOCTYPE svg PUBLIC "-//W3C//DTD SVG 1.1//EN" "http://www.w3.org/Graphics/SVG/1.1/DTD/svg11.dtd" >
<svg>
<metadata>
Created by FontForge 20110222 at Wed Dec 11 10:41:57 2013
 By Orthosie Webhosting
Original version of Priori copyright (C) 2006 Emigre Inc. Designed by Jonathan Barnbrook
Chivas Priori copyright (c) 2012 Emigre Inc. Designed by Barnbrook Ltd
This font should not be used without express permission of Chivas Brothers Ltd and only under the licensing terms of Emigre Inc.
See Chivas branding website for full licensing details
</metadata>
<defs>
<font id="ChivasPrioriBold" horiz-adv-x="1105" >
  <font-face 
    font-family="Chivas Priori Bold"
    font-weight="700"
    font-stretch="normal"
    units-per-em="2048"
    panose-1="2 0 6 3 8 0 0 2 0 3"
    ascent="1454"
    descent="-594"
    x-height="721"
    cap-height="1163"
    bbox="-408 -543 2042 1630"
    underline-thickness="114"
    underline-position="-264"
    unicode-range="U+0020-FB06"
  />
<missing-glyph horiz-adv-x="1024" 
 />
    <glyph glyph-name="f_f" unicode="ff" horiz-adv-x="1132" 
d="M332 555v-555h-205v555h-129l35 168h94v90q0 121 58 210.5t145 132t188 42.5q143 0 270 -102q43 50 104.5 76t129.5 26q143 0 244 -108l-121 -121q-40 57 -103 57q-55 0 -91 -38t-36 -105v-160h246l-35 -168h-211v-555h-204v555h-379zM713 928q-91 98 -195 98
q-79 0 -132.5 -58.5t-53.5 -156.5v-88h379v147q0 42 2 58z" />
    <glyph glyph-name="f_i" unicode="fi" horiz-adv-x="1052" 
d="M920 723v-723h-211v555h-377v-555h-205v555h-129l35 168h94v147q0 153 91 240.5t220 87.5q143 0 244 -108l-121 -121q-40 57 -102 57q-55 0 -91 -38t-36 -105v-160h588z" />
    <glyph glyph-name="f_l" unicode="fl" horiz-adv-x="1097" 
d="M1087 199v-158q-91 -64 -196 -64q-89 0 -144 65t-55 189v324h-360v-555h-205v555h-129l35 168h94v90q0 91 34 166t90.5 121.5t126.5 72t144 25.5q59 0 120.5 -19t110.5 -48.5t84.5 -56.5t59.5 -52v-784q0 -45 23 -64.5t53 -19.5q42 0 114 45zM692 723v227q-21 24 -69 50
t-101 26q-80 0 -135 -58.5t-55 -156.5v-88h360z" />
    <glyph glyph-name="f_f_i" unicode="ffi" horiz-adv-x="1669" 
d="M743 1044q-94 101 -196 101q-79 0 -133 -58.5t-54 -156.5v-207h379v266q0 23 4 55zM1536 723v-723h-205v555h-387v-555h-205v555h-379v-555h-204v555h-129l34 168h95v209q0 121 58 210.5t145 132t188 42.5q142 0 270 -103q89 103 234 103q151 0 260 -125l4 -4l-115 -115
q-28 28 -39 38.5t-37.5 24t-52.5 13.5q-52 0 -89.5 -38.5t-37.5 -104.5v-283h592z" />
    <glyph glyph-name="f_f_l" unicode="ffl" horiz-adv-x="1622" 
d="M752 1036q-97 109 -205 109q-79 0 -133 -58.5t-54 -156.5v-207h379v209q0 54 13 104zM1305 723v348q-29 26 -73.5 50t-94.5 24q-81 0 -137 -58.5t-56 -156.5v-207h361zM1305 555h-361v-555h-205v555h-379v-555h-204v555h-129l34 168h95v209q0 121 58 210.5t145 132
t188 42.5q153 0 293 -121q56 59 133.5 90t161.5 31q61 0 122.5 -19t111.5 -50t82 -55.5t58 -49.5v-1143h-204v555z" />
    <glyph glyph-name=".notdef" horiz-adv-x="1024" 
 />
    <glyph glyph-name=".null" horiz-adv-x="0" 
 />
    <glyph glyph-name="nonmarkingreturn" horiz-adv-x="682" 
 />
    <glyph glyph-name="space" unicode=" " horiz-adv-x="368" 
 />
    <glyph glyph-name="exclam" unicode="!" horiz-adv-x="630" 
d="M449 1163l-74 -786h-119l-74 786h267zM475 125l-160 -160l-159 160l159 160z" />
    <glyph glyph-name="quotedbl" unicode="&#x22;" horiz-adv-x="714" 
d="M633 1163l-58 -407h-100l-57 407h215zM297 1163l-57 -407h-101l-57 407h215z" />
    <glyph glyph-name="numbersign" unicode="#" horiz-adv-x="1224" 
d="M1174 848l-29 -141h-262l-56 -250h258l-28 -142h-262l-70 -315h-150l72 315h-190l-70 -315h-149l71 315h-258l31 142h258l57 250h-258l31 141h258l72 315h149l-71 -315h188l72 315h149l-72 -315h259zM735 707h-190l-56 -250h189z" />
    <glyph glyph-name="dollar" unicode="$" horiz-adv-x="974" 
d="M852 297q0 -134 -93.5 -222t-230.5 -104v-192h-82v190q-146 6 -315 88v228q192 -103 315 -115v322l-110 71q-213 132 -213 314q0 95 45.5 167t117 110.5t160.5 47.5v178h82v-176q84 -5 160 -30q37 -13 105 -48v-223q-155 92 -265 98v-311q143 -86 197 -133
q127 -113 127 -260zM446 741v258q-54 -12 -84 -43t-30 -71q0 -70 114 -144zM641 295q0 68 -113 145v-268q54 10 83.5 43.5t29.5 79.5z" />
    <glyph glyph-name="percent" unicode="%" horiz-adv-x="1161" 
d="M557 963q0 -99 -71.5 -167.5t-176.5 -68.5q-104 0 -176 69t-72 167q0 99 71.5 167t176.5 68t176.5 -68t71.5 -167zM891 1198l-524 -1233h-95l523 1233h96zM1100 209q0 -97 -71.5 -165.5t-176.5 -68.5q-104 0 -176 68.5t-72 165.5q0 100 71.5 168.5t176.5 68.5
t176.5 -68.5t71.5 -168.5zM426 963q0 46 -33 77t-84 31q-50 0 -82 -31t-32 -77q0 -45 32 -77t82 -32t83.5 32t33.5 77zM969 209q0 47 -33 78.5t-84 31.5t-83 -31t-32 -79q0 -45 32.5 -76t82.5 -31t83.5 31t33.5 76z" />
    <glyph glyph-name="ampersand" unicode="&#x26;" horiz-adv-x="1298" 
d="M512 -55q-193 0 -302.5 102.5t-109.5 267.5q0 131 71 229.5t183 155.5q-114 145 -114 267q0 102 78 180t208 78q123 0 198 -74.5t75 -185.5q0 -86 -59.5 -161.5t-143.5 -111.5l262 -309q44 113 60 268h178q-25 -230 -119 -407l47 -56q37 -47 84 -47q56 0 78 58l98 -99
q-23 -63 -79 -97t-126 -34q-125 0 -198 88l-23 27q-145 -139 -346 -139zM301 332q0 -90 59 -147.5t158 -57.5q140 0 234 88l-301 369q-70 -32 -110 -103t-40 -149zM616 958q0 44 -26 74.5t-64 30.5q-42 0 -68 -27t-26 -73q0 -67 80 -170q46 26 75 72t29 93z" />
    <glyph glyph-name="quotesingle" unicode="'" horiz-adv-x="378" 
d="M297 1163l-57 -407h-101l-57 407h215z" />
    <glyph glyph-name="parenleft" unicode="(" horiz-adv-x="753" 
d="M713 -221l-131 -131q-213 174 -336 388.5t-123 450.5q0 237 122 451t333 389l133 -133q-369 -318 -369 -707q0 -385 371 -708z" />
    <glyph glyph-name="parenright" unicode=")" horiz-adv-x="753" 
d="M631 487q0 -236 -123 -450.5t-336 -388.5l-131 131q371 320 371 708t-367 707l131 133q211 -175 333 -389t122 -451z" />
    <glyph glyph-name="asterisk" unicode="*" horiz-adv-x="894" 
d="M813 852l-330 -37l248 -229l-141 -103l-141 305l-140 -305l-141 103l246 229l-332 37l53 166l291 -162l-66 328h177l-66 -328l289 162z" />
    <glyph glyph-name="plus" unicode="+" horiz-adv-x="1245" 
d="M1143 453h-451v-453h-139v453h-451v139h451v448h139v-448h451v-139z" />
    <glyph glyph-name="comma" unicode="," horiz-adv-x="512" 
d="M416 0q0 -55 -16 -103.5t-39 -82t-56.5 -63t-61.5 -46.5t-61.5 -31.5t-48 -19t-29.5 -8.5v41q21 14 40.5 31.5t42.5 45.5t37 67.5t14 84.5q0 31 -14.5 65t-35.5 61t-42 49t-36 34l-14 12l146 148l45 -37q129 -111 129 -248z" />
    <glyph glyph-name="hyphen" unicode="-" horiz-adv-x="563" 
d="M461 356h-359v140h359v-140z" />
    <glyph glyph-name="period" unicode="." horiz-adv-x="512" 
d="M416 125l-160 -160l-160 160l160 160z" />
    <glyph glyph-name="slash" unicode="/" horiz-adv-x="743" 
d="M723 1219l-578 -1244h-125l580 1244h123z" />
    <glyph glyph-name="zero" unicode="0" horiz-adv-x="1040" 
d="M938 580q0 -89 -15.5 -175t-49.5 -166t-82 -140.5t-117.5 -97t-151.5 -36.5q-102 0 -185 55t-132.5 145t-76 196.5t-26.5 218.5t26.5 219t76 197.5t132.5 146t185 55.5q82 0 151.5 -36.5t117.5 -97.5t82 -141.5t49.5 -167t15.5 -175.5zM723 580q0 176 -58.5 294.5
t-142.5 118.5t-144.5 -119t-60.5 -294t60.5 -293.5t144.5 -118.5t142.5 118t58.5 294z" />
    <glyph glyph-name="one" unicode="1" horiz-adv-x="565" 
d="M393 0h-221v1141l221 65v-1206z" />
    <glyph glyph-name="two" unicode="2" horiz-adv-x="966" 
d="M864 0h-784v94l381 416q88 96 134 170.5t46 144.5q0 82 -50 131.5t-132 49.5q-79 0 -133.5 -53.5t-63.5 -155.5h-201q9 182 123.5 293.5t276.5 111.5q172 0 284.5 -104.5t112.5 -272.5q0 -187 -221 -422q-122 -129 -207 -210h434v-193z" />
    <glyph glyph-name="three" unicode="3" horiz-adv-x="917" 
d="M815 373q0 -120 -59 -214t-154 -143t-205 -49q-214 0 -356 142l127 157q2 -1 21 -17.5t35.5 -27t42.5 -25t57.5 -22.5t64.5 -8q81 0 142 55.5t61 149.5q0 82 -54.5 129t-129.5 47q-40 0 -125 -35l-88 121q130 72 219 147t139 183h-461v200h701v-112q-32 -211 -191 -361
q39 -18 73.5 -43t67.5 -63t52.5 -92.5t19.5 -118.5z" />
    <glyph glyph-name="four" unicode="4" horiz-adv-x="956" 
d="M915 287h-163v-287h-220v287h-475l-37 94l549 782h183v-684h163v-192zM532 479v398l-96 -150l-170 -248h266z" />
    <glyph glyph-name="five" unicode="5" horiz-adv-x="954" 
d="M852 375q0 -169 -128.5 -289.5t-311.5 -120.5q-185 0 -344 109q-36 27 -37 28l125 158l34 -27q103 -75 201 -75t160.5 66.5t62.5 150.5t-63 151.5t-160 67.5q-82 0 -164 -53l-88 22l41 600h627v-196h-451l-14 -195q48 10 90 10q181 0 300.5 -118t119.5 -289z" />
    <glyph glyph-name="six" unicode="6" horiz-adv-x="1058" 
d="M956 1018q-382 -62 -540 -277q85 11 98 11q79 0 154.5 -27t136.5 -76t98 -125.5t37 -167.5q0 -161 -121 -276t-287 -115q-85 0 -157 26.5t-121.5 71t-84 104.5t-51 126t-16.5 135q0 154 65.5 290t180 234.5t271.5 161t337 76.5v-172zM733 356q0 89 -65.5 155.5
t-171.5 66.5q-19 0 -36 -1t-29.5 -2.5t-25.5 -4.5t-21 -5t-18 -6t-14.5 -5.5t-13 -5.5t-10.5 -5q-15 -45 -15 -111q0 -122 59 -200t167 -78q82 0 138 61.5t56 140.5z" />
    <glyph glyph-name="seven" unicode="7" horiz-adv-x="874" 
d="M834 1085l-478 -1085h-233l444 971h-526v192h743z" />
    <glyph glyph-name="eight" unicode="8" horiz-adv-x="968" 
d="M866 303q0 -142 -111.5 -240t-271.5 -98q-159 0 -270 97t-111 237q0 182 201 311q-184 116 -184 283q0 131 106.5 218t259.5 87q152 0 258.5 -86.5t106.5 -216.5q0 -163 -182 -279q198 -129 198 -313zM637 879q0 50 -40.5 88.5t-113.5 38.5q-71 0 -111 -37.5t-40 -83.5
q0 -24 11.5 -48t27 -42.5t39.5 -38t41 -31t41 -25.5q145 96 145 179zM653 313q0 57 -49.5 116t-124.5 103q-75 -48 -118.5 -99t-43.5 -116q0 -64 46.5 -111.5t121.5 -47.5q74 0 121 46t47 109z" />
    <glyph glyph-name="nine" unicode="9" horiz-adv-x="1058" 
d="M956 735q0 -154 -65.5 -290t-180 -234.5t-271.5 -161t-337 -76.5v172q383 62 541 277q-77 -10 -98 -10q-79 0 -154.5 27t-136.5 75.5t-98 125t-37 167.5q0 161 120.5 276t286.5 115q85 0 157 -26.5t121.5 -71t84 -104.5t51 -126t16.5 -135zM745 731q0 123 -58.5 201
t-166.5 78q-82 0 -138 -62t-56 -141q0 -89 65.5 -155t171.5 -66q19 0 36 1t29.5 2.5t25.5 4.5t21 5t18 6t14.5 5.5t13 5.5t10.5 5q14 42 14 110z" />
    <glyph glyph-name="colon" unicode=":" horiz-adv-x="512" 
d="M416 594l-160 -158l-160 158l160 160zM416 125l-160 -160l-160 160l160 160z" />
    <glyph glyph-name="semicolon" unicode=";" horiz-adv-x="512" 
d="M416 594l-160 -158l-160 158l160 160zM430 0q0 -75 -30 -138.5t-67.5 -99t-89.5 -64.5t-76 -37.5t-48 -14.5v41q21 14 40.5 31.5t42 45.5t36.5 67.5t14 84.5q0 31 -14.5 65t-35 61t-41.5 49t-35 34l-15 12l145 148l45 -37q129 -111 129 -248z" />
    <glyph glyph-name="less" unicode="&#x3c;" horiz-adv-x="825" 
d="M743 285v-201l-661 373v125l661 372v-198l-438 -236z" />
    <glyph glyph-name="equal" unicode="=" horiz-adv-x="1054" 
d="M952 600h-850v139h850v-139zM952 305h-850v139h850v-139z" />
    <glyph glyph-name="greater" unicode="&#x3e;" horiz-adv-x="825" 
d="M743 457l-661 -373v201l438 235l-438 236v198l661 -372v-125z" />
    <glyph glyph-name="question" unicode="?" horiz-adv-x="829" 
d="M768 850q0 -81 -34 -151.5t-91 -121t-123 -85.5t-139 -56l-19 -59h-131l-41 180q45 10 86 23t94 38.5t90.5 55t64 75.5t26.5 99q0 74 -57.5 121t-153.5 47q-126 0 -238 -53v192q95 43 246 43q178 0 299 -93.5t121 -254.5zM461 127l-160 -160l-160 160l160 160z" />
    <glyph glyph-name="at" unicode="@" horiz-adv-x="1660" 
d="M844 -4q-144 0 -243 99t-99 257q0 163 103 268t255 105q111 0 191 -68l32 50h88v-514q108 32 172 120.5t64 241.5q0 207 -142.5 341t-369.5 134q-175 0 -317 -89t-222 -244.5t-80 -344.5q0 -274 162 -444t434 -170q284 0 463 170l90 -117q-103 -94 -246 -148.5
t-307 -54.5q-222 0 -396.5 96.5t-272 271t-97.5 398.5q0 176 61 330t166 263t250.5 172t309.5 63q191 0 344.5 -80.5t240.5 -224t87 -322.5q0 -124 -37 -222.5t-100 -159.5t-138 -95.5t-160 -44.5h-40l-39 49q-82 -86 -207 -86zM854 137q90 0 158 45v371q-67 31 -144 31
q-88 0 -145 -63t-57 -167q0 -99 51 -158t137 -59z" />
    <glyph glyph-name="A" unicode="A" horiz-adv-x="1132" 
d="M1112 0h-235l-117 328h-393l-117 -328h-230l451 1163h191zM700 498l-137 387l-137 -387h274z" />
    <glyph glyph-name="B" unicode="B" horiz-adv-x="1064" 
d="M979 330q0 -153 -109.5 -241.5t-277.5 -88.5h-440v1163h389q93 0 167.5 -26.5t121.5 -71t71.5 -101.5t24.5 -120q0 -134 -123 -228q87 -48 131.5 -124t44.5 -162zM748 352q0 71 -55 118.5t-154 47.5h-166v-330h176q89 0 144 44t55 120zM696 825q0 74 -49.5 114t-144.5 40
h-129v-293h200q123 0 123 139z" />
    <glyph glyph-name="C" unicode="C" horiz-adv-x="1243" 
d="M1157 47q-2 -1 -16.5 -7t-24 -10t-30 -11.5t-39 -12.5t-45 -12t-54.5 -11.5t-60.5 -9t-70 -6.5t-76.5 -2q-128 0 -247.5 46t-209.5 126t-144 196t-54 247q0 175 91.5 318t241 221.5t322.5 78.5q215 0 408 -77q6 -2 8 -3v-219q-205 105 -389 105q-181 0 -311.5 -120
t-130.5 -302q0 -119 58.5 -216t156 -150.5t211.5 -53.5q57 0 113.5 8t105 22.5t80.5 26t67 27t39 16.5v-215z" />
    <glyph glyph-name="D" unicode="D" horiz-adv-x="1294" 
d="M1208 578q0 -138 -56 -250t-150.5 -182.5t-212.5 -108t-248 -37.5h-389v1163h378q103 0 201.5 -24t185 -73.5t151.5 -118.5t102.5 -164t37.5 -205zM979 578q0 173 -125.5 282t-316.5 109h-164v-770h172q193 0 313.5 102.5t120.5 276.5z" />
    <glyph glyph-name="E" unicode="E" horiz-adv-x="968" 
d="M883 0h-731v1163h704v-194h-483v-285h360v-192h-360v-297h510v-195z" />
    <glyph glyph-name="F" unicode="F" horiz-adv-x="886" 
d="M815 969h-442v-285h350v-192h-350v-492h-221v1163h663v-194z" />
    <glyph glyph-name="G" unicode="G" horiz-adv-x="1288" 
d="M1157 47q-2 -1 -16.5 -7t-24 -10t-30 -11.5t-39 -12.5t-45 -12t-54.5 -11.5t-60.5 -9t-70 -6.5t-76.5 -2q-128 0 -247.5 46t-209.5 126t-144 196t-54 247q0 175 91.5 318t241 221.5t322.5 78.5q215 0 408 -77q6 -2 8 -3v-219q-219 105 -389 105q-181 0 -311.5 -120
t-130.5 -302q0 -119 58.5 -216t156 -150.5t211.5 -53.5q88 0 184 22v373h221v-510z" />
    <glyph glyph-name="H" unicode="H" horiz-adv-x="1284" 
d="M1133 0h-222v492h-538v-492h-221v1163h221v-481h538v481h222v-1163z" />
    <glyph glyph-name="I" unicode="I" horiz-adv-x="544" 
d="M383 0h-221v1163h221v-1163z" />
    <glyph glyph-name="J" unicode="J" horiz-adv-x="690" 
d="M545 1163v-899q0 -299 -316 -299q-110 0 -206 58l24 190q76 -53 176 -53q49 0 75 29.5t26 82.5v891h221z" />
    <glyph glyph-name="K" unicode="K" horiz-adv-x="1175" 
d="M1108 1163l-465 -465l326 -481q47 -72 102 -72q50 0 82 41l78 -80q-80 -126 -219 -126q-88 0 -141 36t-117 131l-267 396l-114 -115v-428h-221v1163h221v-485l481 485h254z" />
    <glyph glyph-name="L" unicode="L" horiz-adv-x="987" 
d="M967 0h-815v1163h221v-970h594v-193z" />
    <glyph glyph-name="M" unicode="M" horiz-adv-x="1546" 
d="M1395 0h-213v655l-326 -655h-166l-325 655v-655h-213v1163h174l446 -895l449 895h174v-1163z" />
    <glyph glyph-name="N" unicode="N" horiz-adv-x="1306" 
d="M1155 0h-221v246l-561 561v-807h-221v1163h147l635 -635v635h221v-1163z" />
    <glyph glyph-name="O" unicode="O" horiz-adv-x="1480" 
d="M1395 582q0 -126 -50 -239.5t-136 -196.5t-208.5 -132t-261.5 -49q-138 0 -260 49t-207.5 132t-135.5 196.5t-50 239.5q0 168 84 309t234.5 224t334.5 83q185 0 336 -83t235.5 -224t84.5 -309zM1167 582q0 176 -122.5 299t-305.5 123q-181 0 -303.5 -123t-122.5 -299
t122.5 -299t303.5 -123q183 0 305.5 123t122.5 299z" />
    <glyph glyph-name="P" unicode="P" horiz-adv-x="978" 
d="M928 815q0 -72 -27 -132t-71.5 -100t-104 -67.5t-122.5 -40t-128 -12.5h-102v-463h-221v1163h352q191 0 307.5 -94t116.5 -254zM692 815q0 156 -186 156h-133v-322h119q50 0 92.5 14.5t75 53.5t32.5 98z" />
    <glyph glyph-name="Q" unicode="Q" horiz-adv-x="1480" 
d="M1372 -336q-195 0 -405.5 82.5t-352.5 224.5q-232 40 -380 211t-148 400q0 168 84 309t234.5 224t334.5 83q185 0 336 -83t235.5 -224t84.5 -309q0 -217 -137 -385.5t-353 -219.5q111 -61 241.5 -95t242.5 -34q85 0 170 21l-17 -184q-58 -21 -170 -21zM1167 582
q0 176 -122.5 299t-305.5 123q-181 0 -303.5 -123t-122.5 -299q0 -179 122.5 -303.5t303.5 -124.5q183 0 305.5 124.5t122.5 303.5z" />
    <glyph glyph-name="R" unicode="R" horiz-adv-x="1087" 
d="M1108 115q-81 -135 -219 -135q-89 0 -145 36.5t-117 130.5l-195 297h-59v-444h-221v1163h346q196 0 306.5 -92t110.5 -250q0 -209 -247 -346l178 -258q47 -72 102 -72q36 0 82 50zM694 805q0 80 -50.5 122t-145.5 42h-125v-344h98q92 0 157.5 51.5t65.5 128.5z" />
    <glyph glyph-name="S" unicode="S" horiz-adv-x="952" 
d="M866 301q0 -155 -119.5 -245.5t-297.5 -90.5q-43 0 -87 6.5t-74.5 14t-68.5 21.5t-54.5 21t-47 22t-31.5 16v215q221 -117 358 -117q95 0 148 39.5t53 91.5q0 38 -31.5 70t-89.5 69l-188 115q-44 28 -70.5 46.5t-62 50.5t-55 63t-34 76t-14.5 96q0 98 53 171.5
t138.5 109.5t189.5 36q152 0 318 -76v-207q-35 18 -77 35t-112.5 35.5t-128.5 18.5q-74 0 -116.5 -37t-42.5 -86q0 -40 32.5 -73t89.5 -67l189 -116q34 -21 57.5 -36.5t60 -47.5t59 -64t39.5 -78.5t17 -97.5z" />
    <glyph glyph-name="T" unicode="T" horiz-adv-x="1083" 
d="M1063 971h-410v-971h-223v971h-410v192h1043v-192z" />
    <glyph glyph-name="U" unicode="U" horiz-adv-x="1249" 
d="M625 -31q-228 0 -356 117t-128 317v760h221v-727q0 -129 70 -200.5t193 -71.5t192.5 71.5t69.5 200.5v727h221v-760q0 -200 -127.5 -317t-355.5 -117z" />
    <glyph glyph-name="V" unicode="V" horiz-adv-x="1091" 
d="M1071 1163l-430 -1163h-192l-429 1163h238l287 -829l286 829h240z" />
    <glyph glyph-name="W" unicode="W" horiz-adv-x="1576" 
d="M1133 1163l-240 -590l104 -266l326 856h229l-465 -1163h-149l-150 371l-149 -371h-150l-464 1163h229l326 -856l104 266l-240 590h215l129 -352l130 352h215z" />
    <glyph glyph-name="X" unicode="X" horiz-adv-x="1120" 
d="M1090 0h-269l-260 403l-260 -403h-270l409 586l-405 577h270l256 -397l256 397h268l-405 -577z" />
    <glyph glyph-name="Y" unicode="Y" horiz-adv-x="1019" 
d="M510 674l248 489h246l-383 -702v-461h-222v463l-383 700h246z" />
    <glyph glyph-name="Z" unicode="Z" horiz-adv-x="1107" 
d="M1067 0h-1026v111l690 866h-661v184h983v-112l-688 -861h702v-188z" />
    <glyph glyph-name="bracketleft" unicode="[" horiz-adv-x="620" 
d="M539 -287h-396v1583h396v-176h-177v-1231h177v-176z" />
    <glyph glyph-name="backslash" unicode="\" horiz-adv-x="579" 
d="M641 -25h-125l-577 1244h122z" />
    <glyph glyph-name="bracketright" unicode="]" horiz-adv-x="620" 
d="M477 -287h-395v176h176v1231h-176v176h395v-1583z" />
    <glyph glyph-name="asciicircum" unicode="^" horiz-adv-x="1040" 
d="M958 664h-219l-219 428l-219 -428h-219l381 718h115z" />
    <glyph glyph-name="underscore" unicode="_" horiz-adv-x="1024" 
d="M1024 -106h-1024v106h1024v-106z" />
    <glyph glyph-name="grave" unicode="`" horiz-adv-x="681" 
d="M393 834l-229 378h209l145 -378h-125z" />
    <glyph glyph-name="a" unicode="a" horiz-adv-x="800" 
d="M537 0l-31 53q-73 -73 -203 -73q-101 0 -166 51t-65 157q0 194 260 258l155 39q-5 37 -36 60.5t-84 23.5q-74 0 -139.5 -27.5t-108.5 -72.5v178q42 46 110 72t150 26q137 0 223 -74.5t86 -197.5v-473h-151zM360 135q67 0 129 45v174l-118 -30q-103 -26 -103 -107
q0 -39 24 -60.5t68 -21.5z" />
    <glyph glyph-name="b" unicode="b" horiz-adv-x="940" 
d="M879 365q0 -162 -108 -275t-261 -113q-58 0 -119.5 21t-109.5 57l-23 -61l-145 6v1163h204v-475q85 57 193 57q153 0 261 -110.5t108 -269.5zM674 365q0 87 -57.5 146.5t-143.5 59.5q-92 0 -156 -53v-313q63 -53 144 -53q90 0 151.5 61.5t61.5 151.5z" />
    <glyph glyph-name="c" unicode="c" horiz-adv-x="798" 
d="M727 49q-2 -1 -17.5 -9.5t-25 -13t-29.5 -13t-38.5 -14t-42.5 -11t-52 -8.5t-57 -3q-171 0 -287.5 108t-116.5 273t116 275t288 110q124 0 258 -69v-174q-1 0 -25.5 12t-40 18.5t-43 16t-56.5 14t-58 4.5q-106 0 -170 -57.5t-64 -147.5q0 -88 64.5 -144t169.5 -56
q89 0 227 67v-178z" />
    <glyph glyph-name="d" unicode="d" horiz-adv-x="937" 
d="M825 2l-188 -6l-12 51q-74 -70 -211 -70q-66 0 -126 21t-112.5 65t-83.5 122t-31 182q0 157 104.5 267.5t258.5 110.5q126 0 197 -57v475h204v-1161zM621 508q-63 63 -156 63q-86 0 -142.5 -62t-56.5 -147q0 -93 46.5 -152.5t138.5 -59.5q48 0 96 22.5t74 58.5v277z" />
    <glyph glyph-name="e" unicode="e" horiz-adv-x="847" 
d="M752 307h-486q18 -69 77.5 -117.5t141.5 -48.5q37 0 73 5t66 14t50 15.5t42.5 16.5t24.5 11v-162q-1 0 -11.5 -6t-17 -9.5t-22.5 -10t-30 -11t-36.5 -10t-45 -9t-52 -6t-61.5 -2.5q-76 0 -148 26.5t-129 74.5t-92 121.5t-35 160.5q0 160 109.5 272.5t259.5 112.5
q140 0 231 -96t91 -246v-96zM567 436q0 58 -36.5 104t-98.5 46t-105.5 -43t-54.5 -107h295z" />
    <glyph glyph-name="f" unicode="f" horiz-adv-x="548" 
d="M682 1090l-121 -121q-40 57 -102 57q-55 0 -91 -38t-36 -105v-160h246l-35 -168h-211v-555h-205v555h-129l35 168h94v147q0 153 91 240.5t220 87.5q143 0 244 -108z" />
    <glyph glyph-name="g" unicode="g" horiz-adv-x="835" 
d="M838 563h-136q33 -68 33 -139q0 -139 -98 -230.5t-240 -91.5q-41 0 -59 4l-41 -59l250 -74q99 -29 156 -93.5t57 -158.5q0 -106 -104 -185t-269 -79q-144 0 -245 74.5t-101 194.5q0 107 100 190l-104 35l160 211q-65 44 -101.5 111.5t-36.5 150.5q0 139 98 230t240 91
q131 0 221 -75l41 53h179v-160zM547 424q0 65 -43.5 107t-106.5 42q-64 0 -107.5 -42t-43.5 -107t43.5 -107.5t107.5 -42.5q63 0 106.5 42.5t43.5 107.5zM571 -279q0 30 -17 53.5t-48 32.5l-205 64q-29 -17 -55.5 -49.5t-26.5 -73.5q0 -56 53.5 -94.5t122.5 -38.5
q78 0 127 33t49 73z" />
    <glyph glyph-name="h" unicode="h" horiz-adv-x="923" 
d="M811 0h-205v442q0 62 -33.5 94.5t-89.5 32.5q-45 0 -94 -28.5t-72 -51.5v-489h-204v1163h204v-504q93 86 228 86q120 0 193 -77t73 -222v-446z" />
    <glyph glyph-name="i" unicode="i" horiz-adv-x="471" 
d="M338 0h-205v723h205v-723zM369 995l-133 -133l-136 135l133 133z" />
    <glyph glyph-name="j" unicode="j" horiz-adv-x="471" 
d="M-12 -508l-54 186q90 9 144.5 54.5t54.5 120.5v870h205v-916q0 -136 -98.5 -222.5t-251.5 -92.5zM369 995l-133 -133l-136 135l133 133z" />
    <glyph glyph-name="k" unicode="k" horiz-adv-x="841" 
d="M842 102q-12 -59 -52.5 -90.5t-103.5 -31.5q-104 0 -166 94l-143 211l-60 -60v-225h-204v1163h204v-714l267 274h231l-307 -307l164 -250q26 -41 59 -41q14 0 25 9t14 20z" />
    <glyph glyph-name="l" unicode="l" horiz-adv-x="518" 
d="M508 195v-158q-22 -24 -70.5 -42t-107.5 -18q-98 0 -157.5 63.5t-59.5 186.5v936h204v-925q0 -45 24 -64.5t58 -19.5q25 0 57.5 13t51.5 28z" />
    <glyph glyph-name="m" unicode="m" horiz-adv-x="1359" 
d="M1247 0h-205v453q0 56 -30.5 86t-79.5 30q-37 0 -78 -21t-72 -50v-498h-204v453q0 56 -31 86t-80 30q-37 0 -78 -21t-72 -50v-498h-204v723h194l12 -57q86 79 216 79q150 0 213 -120l40 41q17 17 40.5 32.5t71 31t101.5 15.5q113 0 179.5 -74t66.5 -220v-451z" />
    <glyph glyph-name="n" unicode="n" horiz-adv-x="923" 
d="M811 0h-205v442q0 62 -33.5 94.5t-89.5 32.5q-44 0 -89.5 -25.5t-76.5 -54.5v-489h-204v723h196l10 -61q90 83 226 83q121 0 193.5 -78t72.5 -231v-436z" />
    <glyph glyph-name="o" unicode="o" horiz-adv-x="935" 
d="M874 360q0 -162 -118.5 -272.5t-286.5 -110.5q-170 0 -289 110.5t-119 272.5t119 273.5t289 111.5q168 0 286.5 -111.5t118.5 -273.5zM670 360q0 91 -59 153t-142 62q-84 0 -143.5 -62t-59.5 -153t59.5 -152t143.5 -61q83 0 142 61t59 152z" />
    <glyph glyph-name="p" unicode="p" horiz-adv-x="937" 
d="M877 367q0 -178 -104 -284t-261 -106q-107 0 -195 58v-500h-204v1192h178l16 -70q80 91 219 91q66 0 127.5 -24t112 -69.5t81 -120t30.5 -167.5zM672 367q0 95 -58 150.5t-139 55.5q-53 0 -94 -22.5t-64 -58.5v-281q24 -23 68 -41t94 -18q88 0 140.5 61.5t52.5 153.5z
" />
    <glyph glyph-name="q" unicode="q" horiz-adv-x="940" 
d="M61 362q0 158 112 270.5t269 112.5q130 0 217 -81l15 63h153v-1192h-204v500q-86 -58 -193 -58q-152 0 -260.5 112.5t-108.5 272.5zM266 362q0 -88 61.5 -149t151.5 -61q84 0 144 51v315q-63 53 -150 53q-86 0 -146.5 -60.5t-60.5 -148.5z" />
    <glyph glyph-name="r" unicode="r" horiz-adv-x="587" 
d="M588 551q-56 16 -115 16q-82 0 -156 -67v-500h-204v723h194l10 -76q73 98 183 98q28 0 88 -10v-184z" />
    <glyph glyph-name="s" unicode="s" horiz-adv-x="657" 
d="M586 205q0 -109 -82 -168.5t-195 -59.5q-33 0 -62.5 3t-57.5 10.5t-42 11.5t-40.5 14t-28.5 11v182q156 -66 227 -66q43 0 66.5 14t23.5 38q0 18 -15.5 33t-57.5 36q-5 2 -32 16t-34.5 18t-32.5 18t-34.5 21t-30 22t-29 25.5t-22.5 27.5t-19.5 32.5t-10.5 35t-5 40.5
q0 106 76.5 165.5t189.5 59.5q112 0 225 -51v-170q-127 58 -215 58q-42 0 -65 -14t-23 -36q0 -19 16 -32.5t54 -32.5q114 -55 150 -80q106 -72 106 -182z" />
    <glyph glyph-name="t" unicode="t" horiz-adv-x="614" 
d="M573 16q-97 -39 -180 -39q-55 0 -100 16t-82 52t-57.5 100t-20.5 152v258h-135l35 168h100v285h205v-285h231l-34 -168h-197v-260q0 -75 33 -108t96 -33q49 0 106 24v-162z" />
    <glyph glyph-name="u" unicode="u" horiz-adv-x="903" 
d="M791 0h-189l-12 47q-14 -12 -34.5 -25t-73.5 -29t-113 -16q-109 0 -182.5 78.5t-73.5 231.5v436h204v-442q0 -62 33.5 -94.5t89.5 -32.5q65 0 146 61v508h205v-723z" />
    <glyph glyph-name="v" unicode="v" horiz-adv-x="749" 
d="M739 723l-262 -723h-205l-262 723h203l162 -492l162 492h202z" />
    <glyph glyph-name="w" unicode="w" horiz-adv-x="1142" 
d="M694 0l-123 330q-3 -23 -10 -43l-104 -287h-166l-283 723h201l168 -490l112 320l-61 170h201l143 -463l154 463h209l-281 -723h-160z" />
    <glyph glyph-name="x" unicode="x" horiz-adv-x="722" 
d="M713 723l-244 -363l244 -360h-230l-121 209l-122 -209h-230l244 360l-244 363h230l122 -209l121 209h230z" />
    <glyph glyph-name="y" unicode="y" horiz-adv-x="749" 
d="M739 723l-272 -723l-168 -465h-197l170 465l-262 723h203l162 -492l162 492h202z" />
    <glyph glyph-name="z" unicode="z" horiz-adv-x="686" 
d="M635 162v-162h-584v94l318 467h-310v160h568v-92l-316 -467h324z" />
    <glyph glyph-name="braceleft" unicode="{" horiz-adv-x="696" 
d="M655 -268l-20 -168q-89 12 -162 38.5t-130 69.5t-88.5 107t-31.5 145q0 62 19.5 182.5t19.5 180.5q0 132 -204 169q-5 1 -7 1v114l17 3q18 4 24.5 5.5t25.5 6.5t29 9.5t27.5 12.5t27.5 16.5t23 21t20 26.5t12 32t5 39q0 60 -19.5 179.5t-19.5 181.5q0 157 113 247
t299 113l20 -168q-44 -6 -77 -15.5t-69.5 -27.5t-56.5 -50.5t-20 -76.5q0 -62 20.5 -179t20.5 -179q0 -55 -22.5 -103.5t-56 -79t-64.5 -49t-56 -24.5q21 -6 44 -16.5t51.5 -31.5t50.5 -47.5t37.5 -67t15.5 -87.5q0 -63 -20.5 -180.5t-20.5 -179.5q0 -35 14.5 -63.5
t36 -45.5t53 -30.5t59 -19.5t60.5 -11z" />
    <glyph glyph-name="bar" unicode="|" horiz-adv-x="540" 
d="M326 -389h-111v1843h111v-1843z" />
    <glyph glyph-name="braceright" unicode="}" horiz-adv-x="696" 
d="M645 457q-106 -19 -155 -55q-58 -44 -58 -115q0 -60 20.5 -180.5t20.5 -182.5q0 -80 -31.5 -144.5t-89 -107.5t-130 -69.5t-161.5 -38.5l-20 168q43 6 76.5 15.5t69 28t55.5 50.5t20 76q0 63 -19.5 180.5t-19.5 179.5q0 58 21.5 105t56 75.5t64 45t57.5 24.5
q-25 5 -56.5 23.5t-64.5 49t-55.5 79t-22.5 104.5q0 62 19.5 179t19.5 179q0 44 -20 76.5t-56 50.5t-69 27.5t-76 15.5l20 168q89 -11 161.5 -38t130 -70t89 -107.5t31.5 -144.5q0 -62 -20.5 -181.5t-20.5 -179.5q0 -38 16.5 -68t36.5 -46t54 -29.5t50.5 -17.5t45.5 -9
q7 -1 10 -2v-114z" />
    <glyph glyph-name="asciitilde" unicode="~" horiz-adv-x="1214" 
d="M1143 664q-8 -133 -82 -217.5t-221 -84.5q-63 0 -135.5 23t-126 51t-112.5 51t-97 23q-56 0 -100.5 -35t-51.5 -110h-145q8 133 84 218t221 85q63 0 135 -23t125.5 -51t112.5 -51t98 -23q53 0 98 35.5t53 108.5h144z" />
    <glyph glyph-name="nbspace" unicode="&#xa0;" horiz-adv-x="368" 
 />
    <glyph glyph-name="exclamdown" unicode="&#xa1;" horiz-adv-x="630" 
d="M475 563l-160 -160l-159 160l159 160zM455 -475h-279l74 786h131z" />
    <glyph glyph-name="cent" unicode="&#xa2;" horiz-adv-x="849" 
d="M758 268q-1 0 -21 -10.5t-33 -16t-37.5 -14.5t-52 -15t-57.5 -9v-203h-82v199q-165 8 -274 114t-109 267q0 159 108.5 267t274.5 116v200h82v-205q89 -11 197 -63v-178q-3 1 -22.5 11t-34.5 16t-38.5 14.5t-49.5 14t-52 7.5v-395q25 2 50.5 8t51 15.5t39.5 15t37 16.5
l23 11v-183zM475 389v387q-82 -15 -129 -68t-47 -126t47 -125.5t129 -67.5z" />
    <glyph glyph-name="sterling" unicode="&#xa3;" horiz-adv-x="954" 
d="M883 0h-822v195h127v245h-127v185h127v163q0 109 44.5 201.5t133 150.5t205.5 58q151 0 281 -68v-192q-1 0 -15 6.5t-22 10.5t-26.5 11.5t-32.5 12t-35 11t-39 10t-39 6t-41 2.5q-79 0 -134.5 -61.5t-55.5 -158.5v-163h321v-185h-321v-245h471v-195z" />
    <glyph glyph-name="currency" unicode="&#xa4;" horiz-adv-x="1030" 
d="M850 102l-121 144q-97 -62 -213 -62q-120 0 -217 62l-119 -144l-104 109l135 115q-76 95 -76 217q0 119 70 211l-129 110l104 109l113 -137q95 67 223 67q123 0 221 -67l113 137l104 -109l-131 -110q74 -93 74 -211q0 -121 -80 -217l137 -115zM725 543q0 86 -61.5 146.5
t-147.5 60.5t-147.5 -60.5t-61.5 -146.5q0 -85 61.5 -145t147.5 -60t147.5 60t61.5 145z" />
    <glyph glyph-name="yen" unicode="&#xa5;" horiz-adv-x="1019" 
d="M616 377h277v-150h-277v-227h-213v227h-276v150h276v78h-276v149h199l-306 559h246l244 -489l248 489h241l-305 -559h199v-149h-277v-78z" />
    <glyph glyph-name="brokenbar" unicode="&#xa6;" horiz-adv-x="540" 
d="M326 676h-111v778h111v-778zM326 -389h-111v801h111v-801z" />
    <glyph glyph-name="section" unicode="&#xa7;" horiz-adv-x="792" 
d="M721 344q0 -151 -127 -240q53 -47 77 -96q31 -62 31 -137q0 -132 -89.5 -216.5t-229.5 -84.5q-31 0 -60.5 3t-54.5 9t-44.5 11.5t-39.5 14t-30 13.5t-25.5 13.5t-17.5 9.5v200q170 -80 256 -80q62 0 100.5 31.5t38.5 79.5q0 41 -22 70t-68 65l-172 125
q-79 58 -125.5 126.5t-46.5 162.5q0 25 3.5 48t10 42.5t14 35.5t18.5 31t19 25.5t20 21t17.5 15.5t15.5 12.5t11 8.5q-48 45 -69 80q-40 67 -40 153q0 128 83.5 214.5t219.5 86.5q42 0 78.5 -5.5t66 -15.5t47.5 -17.5t40.5 -20.5t27.5 -15v-194q-44 25 -111 48t-126 23
q-57 0 -95 -30.5t-38 -77.5q0 -41 23.5 -71.5t70.5 -63.5l170 -125q80 -57 126 -126t46 -163zM535 330q0 36 -23 65.5t-68 61.5l-120 88q-66 -35 -66 -109q0 -35 23.5 -64.5t70.5 -64.5l117 -86q66 39 66 109z" />
    <glyph glyph-name="dieresis" unicode="&#xa8;" horiz-adv-x="681" 
d="M643 1004l-135 -134l-133 134l133 135zM307 1004l-133 -134l-135 134l135 135z" />
    <glyph glyph-name="copyright" unicode="&#xa9;" horiz-adv-x="1353" 
d="M1292 582q0 -125 -49 -239.5t-131.5 -197t-196.5 -131.5t-239 -49t-239 49t-196.5 131.5t-131 197t-48.5 239.5t48.5 239t131 196t196.5 130.5t239 48.5q167 0 309 -82t224.5 -223.5t82.5 -308.5zM1231 582q0 153 -75 282.5t-203 205t-277 75.5t-276 -75.5t-201 -205
t-74 -282.5t74 -283.5t201 -206.5t276 -76t277 76t203 206.5t75 283.5zM973 244q-2 -1 -23.5 -10.5t-40.5 -16t-50.5 -15.5t-72 -13.5t-86.5 -4.5q-112 0 -209 49.5t-157 142t-60 206.5t60 207.5t157 143.5t209 50q134 0 273 -59v-166l-25 12q-26 13 -43 19.5t-48 17
t-66.5 15.5t-73.5 5q-107 0 -182.5 -69t-75.5 -174q0 -104 73 -174t175 -70q25 0 50.5 2.5t50 8t43 10t40.5 13t33 12.5t29.5 11.5t19.5 8.5v-162z" />
    <glyph glyph-name="ordfeminine" unicode="&#xaa;" horiz-adv-x="677" 
d="M266 664q-87 0 -143.5 43t-56.5 131t62 142t167 77l119 24q-2 35 -28.5 57.5t-72.5 22.5q-60 0 -115.5 -23.5t-93.5 -62.5v148q71 77 220 77q121 0 189.5 -57.5t68.5 -159.5v-407h-129l-23 47q-55 -59 -164 -59zM311 788q54 0 103 46v147l-80 -23q-98 -28 -98 -98
q0 -33 20.5 -52.5t54.5 -19.5z" />
    <glyph glyph-name="guillemotleft" unicode="&#xab;" horiz-adv-x="884" 
d="M803 885l-238 -361l238 -358h-158l-246 356l248 363h156zM465 885l-238 -361l238 -358h-158l-246 356l248 363h156z" />
    <glyph glyph-name="registered" unicode="&#xae;" horiz-adv-x="985" 
d="M924 768q0 -178 -127 -305t-305 -127t-304.5 126.5t-126.5 305.5q0 178 126 304t305 126t305.5 -126t126.5 -304zM870 768q0 158 -111.5 270.5t-266.5 112.5t-266 -112.5t-111 -270.5q0 -159 110.5 -272t266.5 -113t267 113t111 272zM741 575q-13 -20 -41.5 -42.5
t-62.5 -22.5q-73 0 -123 76l-76 121h-18v-189h-117v512h162q92 0 143 -42t51 -118q0 -95 -98 -145l57 -90q17 -29 48 -33q16 0 32 16zM543 868q0 31 -20.5 47.5t-57.5 16.5h-45v-135h35q36 0 62 20.5t26 50.5z" />
    <glyph glyph-name="macron" unicode="&#xaf;" horiz-adv-x="681" 
d="M604 918h-528v147h528v-147z" />
    <glyph glyph-name="degree" unicode="&#xb0;" horiz-adv-x="786" 
d="M684 1102q0 -124 -84.5 -205.5t-206.5 -81.5t-206.5 81t-84.5 206q0 122 85 204.5t206 82.5t206 -82t85 -205zM557 1102q0 75 -47.5 124.5t-116.5 49.5t-116.5 -49.5t-47.5 -124.5t47.5 -124.5t116.5 -49.5t116.5 49.5t47.5 124.5z" />
    <glyph glyph-name="twosuperior" unicode="&#xb2;" horiz-adv-x="645" 
d="M547 844h-453v65l211 224q94 97 94 159q0 38 -23 60t-63 22t-66 -26.5t-30 -83.5h-135q6 109 72 173t161 64q98 0 163 -58t65 -151q0 -98 -123 -231q-6 -7 -23 -23t-38.5 -37t-32.5 -32h221v-125z" />
    <glyph glyph-name="threesuperior" unicode="&#xb3;" horiz-adv-x="608" 
d="M510 1051q0 -99 -71.5 -162.5t-168.5 -63.5q-125 0 -211 86l84 99q1 -1 9 -8.5t14 -12t18 -12.5t22.5 -13t26 -8.5t31.5 -3.5q41 0 71 26.5t30 70.5q0 40 -27.5 62t-69.5 22q-23 0 -65 -21l-62 80q74 40 121 76t74 84h-244v129h406v-72q-5 -27 -15.5 -52.5t-26.5 -47.5
t-27 -35.5t-29 -31t-19 -19.5q129 -52 129 -172z" />
    <glyph glyph-name="acute" unicode="&#xb4;" horiz-adv-x="681" 
d="M518 1212l-229 -378h-125l145 378h209z" />
    <glyph glyph-name="mu" unicode="&#xb5;" horiz-adv-x="903" 
d="M324 -18v-392h-211v1133h204v-442q0 -62 33.5 -94.5t89.5 -32.5q65 0 146 61v508h205v-723h-189l-12 47q-14 -12 -34.5 -25t-73.5 -29t-113 -16q-10 0 -45 5z" />
    <glyph glyph-name="mu" unicode="&#x3bc;" horiz-adv-x="903" 
d="M324 -18v-392h-211v1133h204v-442q0 -62 33.5 -94.5t89.5 -32.5q65 0 146 61v508h205v-723h-189l-12 47q-14 -12 -34.5 -25t-73.5 -29t-113 -16q-10 0 -45 5z" />
    <glyph glyph-name="paragraph" unicode="&#xb6;" horiz-adv-x="940" 
d="M838 -410h-123v1461h-99v-213h-235l-53 53l-105 -107l105 -106l49 49h239v-727h-122v395h-88q-160 0 -273 112.5t-113 270.5q0 161 121.5 273t304.5 112h392v-1573z" />
    <glyph glyph-name="middot" unicode="&#xb7;" horiz-adv-x="512" 
d="M416 586l-160 -160l-160 160l160 159z" />
    <glyph glyph-name="cedilla" unicode="&#xb8;" horiz-adv-x="681" 
d="M395 2l-20 -63q54 -6 83 -47t29 -103q0 -80 -58 -129t-136 -49q-60 0 -98 20v136q25 -19 73 -19q26 0 45 14t19 39t-19 39.5t-45 14.5t-55 -11l43 158h139z" />
    <glyph glyph-name="onesuperior" unicode="&#xb9;" horiz-adv-x="419" 
d="M283 844h-146v622l146 43v-665z" />
    <glyph glyph-name="ordmasculine" unicode="&#xba;" horiz-adv-x="784" 
d="M391 1153q-60 0 -99.5 -46.5t-39.5 -121.5q0 -73 40 -119.5t99 -46.5q61 0 101 46.5t40 119.5q0 75 -40 121.5t-101 46.5zM391 664q-139 0 -232 91t-93 230q0 138 93.5 231t231.5 93q141 0 234.5 -93t93.5 -231q0 -139 -93.5 -230t-234.5 -91z" />
    <glyph glyph-name="guillemotright" unicode="&#xbb;" horiz-adv-x="884" 
d="M823 524l-248 -358h-155l237 358l-237 361h155zM485 524l-247 -358h-156l237 358l-237 361h156z" />
    <glyph glyph-name="onequarter" unicode="&#xbc;" horiz-adv-x="1437" 
d="M1331 272v-135h-88v-137h-156v137h-253l-31 84l313 426h127v-375h88zM1171 1186l-852 -1202h-81l852 1202h81zM401 522h-161v633l161 33v-666zM1087 410l-98 -138h98v138z" />
    <glyph glyph-name="onehalf" unicode="&#xbd;" horiz-adv-x="1509" 
d="M1386 0h-481v55l234 252q75 78 75 133q0 36 -21.5 59t-57.5 23q-33 0 -59.5 -23.5t-33.5 -68.5h-145q9 105 81 168.5t169 63.5q105 0 171 -62.5t66 -161.5q0 -20 -5 -41t-11.5 -38t-19 -36t-21 -31t-24.5 -29t-22.5 -23t-22.5 -20l-15 -15l-72 -70h215v-135zM1171 1186
l-852 -1202h-81l852 1202h81zM401 522h-161v633l161 33v-666z" />
    <glyph glyph-name="threequarters" unicode="&#xbe;" horiz-adv-x="1488" 
d="M1405 272v-135h-90v-137h-154v137h-256l-28 84l311 426h127v-375h90zM1243 1186l-852 -1202h-82l852 1202h82zM580 721q0 -93 -76 -155t-185 -62q-131 0 -217 98l95 94l7 -6q8 -7 10.5 -9.5t11 -9t14 -9.5t15 -7.5t17.5 -7t19 -4.5t22 -2q46 0 77.5 23.5t31.5 58.5
q0 36 -31.5 59t-77.5 23q-34 0 -65 -17l-58 78q154 69 199 160h-266v137h442v-71q-20 -120 -102 -191q14 -6 29.5 -16t37.5 -30.5t36 -55.5t14 -78zM1159 410l-98 -138h98v138z" />
    <glyph glyph-name="questiondown" unicode="&#xbf;" horiz-adv-x="829" 
d="M688 563l-160 -160l-157 160l157 160zM727 -465q-127 -43 -246 -43q-178 0 -299 93.5t-121 254.5q0 81 34 151.5t91.5 121t123.5 85.5t139 56l20 59h131l39 -180q-45 -11 -85.5 -23.5t-93 -38t-90 -55t-63.5 -75.5t-26 -99q0 -75 57 -121.5t154 -46.5q101 0 235 54v-193z
" />
    <glyph glyph-name="Agrave" unicode="&#xc0;" horiz-adv-x="1132" 
d="M1112 0h-235l-117 328h-393l-117 -328h-230l451 1163h191zM700 498l-137 387l-137 -387h274zM510 1262l-203 313h215l115 -313h-127z" />
    <glyph glyph-name="Aacute" unicode="&#xc1;" horiz-adv-x="1132" 
d="M1112 0h-235l-117 328h-393l-117 -328h-230l451 1163h191zM700 498l-137 387l-137 -387h274zM823 1575l-202 -313h-127l114 313h215z" />
    <glyph glyph-name="Acircumflex" unicode="&#xc2;" horiz-adv-x="1132" 
d="M1112 0h-235l-117 328h-393l-117 -328h-230l451 1163h191zM700 498l-137 387l-137 -387h274zM815 1262h-119l-129 186l-127 -186h-118l174 315h145z" />
    <glyph glyph-name="Atilde" unicode="&#xc3;" horiz-adv-x="1132" 
d="M1112 0h-235l-117 328h-393l-117 -328h-230l451 1163h191zM700 498l-137 387l-137 -387h274zM868 1509q-6 -86 -55 -143t-129 -57q-52 0 -115.5 31.5t-89.5 31.5q-58 0 -63 -61h-148q6 88 52.5 144t132.5 56q47 0 114 -31.5t97 -31.5q24 0 40.5 16t16.5 45h147z" />
    <glyph glyph-name="Adieresis" unicode="&#xc4;" horiz-adv-x="1132" 
d="M1112 0h-235l-117 328h-393l-117 -328h-230l451 1163h191zM700 498l-137 387l-137 -387h274zM877 1432l-136 -134l-133 134l133 135zM528 1432l-133 -134l-135 134l135 135z" />
    <glyph glyph-name="Aring" unicode="&#xc5;" horiz-adv-x="1132" 
d="M1112 0h-235l-117 328h-393l-117 -328h-230l451 1163h191zM700 498l-137 387l-137 -387h274zM764 1448q0 -75 -57.5 -128.5t-137.5 -53.5q-82 0 -139 52.5t-57 127.5q0 77 57 130.5t139 53.5q80 0 137.5 -53.5t57.5 -128.5zM655 1448q0 35 -25 58.5t-61 23.5t-61 -23.5
t-25 -58.5t25 -58.5t61 -23.5t61 23.5t25 58.5z" />
    <glyph glyph-name="AE" unicode="&#xc6;" horiz-adv-x="1544" 
d="M1458 0h-729v328h-305l-170 -328h-254l655 1163h777v-194h-482v-305h361v-193h-361v-276h508v-195zM729 498v415l-217 -415h217z" />
    <glyph glyph-name="Ccedilla" unicode="&#xc7;" horiz-adv-x="1243" 
d="M1157 47q-168 -73 -362 -80l-9 -30q55 -6 86 -49t31 -107q0 -82 -59 -132t-139 -50q-61 0 -99 20v135q24 -18 74 -18q28 0 48 14.5t20 42.5q0 27 -20 43.5t-48 16.5q-26 0 -55 -11l34 129q-116 13 -220.5 63.5t-182.5 129t-124 187t-46 229.5q0 175 91.5 318t241 221.5
t322.5 78.5q215 0 408 -77q6 -2 8 -3v-219q-205 105 -389 105q-181 0 -311.5 -120t-130.5 -302q0 -119 58.5 -216t156 -150.5t211.5 -53.5q57 0 113.5 8t105 22.5t80.5 26t67 27t39 16.5v-215z" />
    <glyph glyph-name="Egrave" unicode="&#xc8;" horiz-adv-x="968" 
d="M883 0h-731v1163h704v-194h-483v-285h360v-192h-360v-297h510v-195zM451 1262l-203 313h215l115 -313h-127z" />
    <glyph glyph-name="Eacute" unicode="&#xc9;" horiz-adv-x="968" 
d="M883 0h-731v1163h704v-194h-483v-285h360v-192h-360v-297h510v-195zM748 1575l-203 -313h-127l114 313h216z" />
    <glyph glyph-name="Ecircumflex" unicode="&#xca;" horiz-adv-x="968" 
d="M883 0h-731v1163h704v-194h-483v-285h360v-192h-360v-297h510v-195zM750 1262h-119l-129 186l-127 -186h-119l174 315h145z" />
    <glyph glyph-name="Edieresis" unicode="&#xcb;" horiz-adv-x="968" 
d="M883 0h-731v1163h704v-194h-483v-285h360v-192h-360v-297h510v-195zM811 1432l-135 -134l-133 134l133 135zM463 1432l-133 -134l-135 134l135 135z" />
    <glyph glyph-name="Igrave" unicode="&#xcc;" horiz-adv-x="544" 
d="M383 0h-221v1163h221v-1163zM217 1262l-203 313h215l115 -313h-127z" />
    <glyph glyph-name="Iacute" unicode="&#xcd;" horiz-adv-x="544" 
d="M383 0h-221v1163h221v-1163zM522 1575l-203 -313h-126l114 313h215z" />
    <glyph glyph-name="Icircumflex" unicode="&#xce;" horiz-adv-x="544" 
d="M383 0h-221v1163h221v-1163zM520 1262h-119l-129 186l-127 -186h-118l174 315h145z" />
    <glyph glyph-name="Idieresis" unicode="&#xcf;" horiz-adv-x="544" 
d="M383 0h-221v1163h221v-1163zM582 1432l-136 -134l-133 134l133 135zM233 1432l-133 -134l-135 134l135 135z" />
    <glyph glyph-name="Eth" unicode="&#xd0;" horiz-adv-x="1282" 
d="M1190 578q0 -111 -37 -206t-100.5 -162.5t-148.5 -115.5t-182 -71t-200 -23h-389v504h-133v153h133v506h379q103 0 201.5 -24t185 -73.5t151.5 -118.5t102.5 -164t37.5 -205zM961 578q0 173 -126 282t-317 109h-164v-312h361v-153h-361v-305h172q194 0 314.5 102.5
t120.5 276.5z" />
    <glyph glyph-name="Ntilde" unicode="&#xd1;" horiz-adv-x="1306" 
d="M1155 0h-221v246l-561 561v-807h-221v1163h147l635 -635v635h221v-1163zM940 1509q-6 -86 -55 -143t-129 -57q-52 0 -115.5 31.5t-89.5 31.5q-59 0 -64 -61h-147q6 88 52 144t132 56q47 0 114 -31.5t97 -31.5q24 0 41 16t17 45h147z" />
    <glyph glyph-name="Ograve" unicode="&#xd2;" horiz-adv-x="1480" 
d="M1395 582q0 -126 -50 -239.5t-136 -196.5t-208.5 -132t-261.5 -49q-138 0 -260 49t-207.5 132t-135.5 196.5t-50 239.5q0 168 84 309t234.5 224t334.5 83q185 0 336 -83t235.5 -224t84.5 -309zM1167 582q0 176 -122.5 299t-305.5 123q-181 0 -303.5 -123t-122.5 -299
t122.5 -299t303.5 -123q183 0 305.5 123t122.5 299zM688 1262l-203 313h215l115 -313h-127z" />
    <glyph glyph-name="Oacute" unicode="&#xd3;" horiz-adv-x="1480" 
d="M1395 582q0 -126 -50 -239.5t-136 -196.5t-208.5 -132t-261.5 -49q-138 0 -260 49t-207.5 132t-135.5 196.5t-50 239.5q0 168 84 309t234.5 224t334.5 83q185 0 336 -83t235.5 -224t84.5 -309zM1167 582q0 176 -122.5 299t-305.5 123q-181 0 -303.5 -123t-122.5 -299
t122.5 -299t303.5 -123q183 0 305.5 123t122.5 299zM985 1575l-203 -313h-127l115 313h215z" />
    <glyph glyph-name="Ocircumflex" unicode="&#xd4;" horiz-adv-x="1480" 
d="M1395 582q0 -126 -50 -239.5t-136 -196.5t-208.5 -132t-261.5 -49q-138 0 -260 49t-207.5 132t-135.5 196.5t-50 239.5q0 168 84 309t234.5 224t334.5 83q185 0 336 -83t235.5 -224t84.5 -309zM1167 582q0 176 -122.5 299t-305.5 123q-181 0 -303.5 -123t-122.5 -299
t122.5 -299t303.5 -123q183 0 305.5 123t122.5 299zM987 1262h-119l-129 186l-127 -186h-118l174 315h145z" />
    <glyph glyph-name="Otilde" unicode="&#xd5;" horiz-adv-x="1480" 
d="M1395 582q0 -126 -50 -239.5t-136 -196.5t-208.5 -132t-261.5 -49q-138 0 -260 49t-207.5 132t-135.5 196.5t-50 239.5q0 168 84 309t234.5 224t334.5 83q185 0 336 -83t235.5 -224t84.5 -309zM1167 582q0 176 -122.5 299t-305.5 123q-181 0 -303.5 -123t-122.5 -299
t122.5 -299t303.5 -123q183 0 305.5 123t122.5 299zM1040 1509q-6 -86 -55 -143t-129 -57q-52 0 -115.5 31.5t-89.5 31.5q-58 0 -63 -61h-148q6 88 52.5 144t132.5 56q47 0 114 -31.5t97 -31.5q24 0 40.5 16t16.5 45h147z" />
    <glyph glyph-name="Odieresis" unicode="&#xd6;" horiz-adv-x="1480" 
d="M1395 582q0 -126 -50 -239.5t-136 -196.5t-208.5 -132t-261.5 -49q-138 0 -260 49t-207.5 132t-135.5 196.5t-50 239.5q0 168 84 309t234.5 224t334.5 83q185 0 336 -83t235.5 -224t84.5 -309zM1167 582q0 176 -122.5 299t-305.5 123q-181 0 -303.5 -123t-122.5 -299
t122.5 -299t303.5 -123q183 0 305.5 123t122.5 299zM1049 1432l-136 -134l-133 134l133 135zM700 1432l-133 -134l-135 134l135 135z" />
    <glyph glyph-name="multiply" unicode="&#xd7;" horiz-adv-x="1290" 
d="M1139 127l-99 -98l-395 395l-395 -395l-98 98l395 395l-389 389l98 99l389 -389l389 389l99 -99l-390 -389z" />
    <glyph glyph-name="Oslash" unicode="&#xd8;" horiz-adv-x="1480" 
d="M1395 582q0 -126 -50 -239.5t-136 -196.5t-208.5 -132t-261.5 -49q-221 0 -391 119l-176 -193l-61 60l170 188q-92 85 -143.5 199.5t-51.5 243.5q0 168 84 309t234.5 224t334.5 83q222 0 396 -121l176 193l59 -60l-170 -186q93 -86 144 -199.5t51 -242.5zM1167 582
q0 166 -108 284l-572 -626q110 -80 252 -80q183 0 305.5 123t122.5 299zM995 924q-110 80 -256 80q-181 0 -303.5 -123t-122.5 -299q0 -166 111 -287z" />
    <glyph glyph-name="Ugrave" unicode="&#xd9;" horiz-adv-x="1249" 
d="M625 -31q-228 0 -356 117t-128 317v760h221v-727q0 -129 70 -200.5t193 -71.5t192.5 71.5t69.5 200.5v727h221v-760q0 -200 -127.5 -317t-355.5 -117zM573 1262l-202 313h215l114 -313h-127z" />
    <glyph glyph-name="Uacute" unicode="&#xda;" horiz-adv-x="1249" 
d="M625 -31q-228 0 -356 117t-128 317v760h221v-727q0 -129 70 -200.5t193 -71.5t192.5 71.5t69.5 200.5v727h221v-760q0 -200 -127.5 -317t-355.5 -117zM870 1575l-202 -313h-127l114 313h215z" />
    <glyph glyph-name="Ucircumflex" unicode="&#xdb;" horiz-adv-x="1249" 
d="M625 -31q-228 0 -356 117t-128 317v760h221v-727q0 -129 70 -200.5t193 -71.5t192.5 71.5t69.5 200.5v727h221v-760q0 -200 -127.5 -317t-355.5 -117zM872 1262h-118l-129 186l-127 -186h-119l174 315h145z" />
    <glyph glyph-name="Udieresis" unicode="&#xdc;" horiz-adv-x="1249" 
d="M625 -31q-228 0 -356 117t-128 317v760h221v-727q0 -129 70 -200.5t193 -71.5t192.5 71.5t69.5 200.5v727h221v-760q0 -200 -127.5 -317t-355.5 -117zM934 1432l-135 -134l-133 134l133 135zM586 1432l-133 -134l-136 134l136 135z" />
    <glyph glyph-name="Yacute" unicode="&#xdd;" horiz-adv-x="1019" 
d="M510 674l248 489h246l-383 -702v-461h-222v463l-383 700h246zM754 1575l-203 -313h-127l115 313h215z" />
    <glyph glyph-name="Thorn" unicode="&#xde;" horiz-adv-x="978" 
d="M913 598q0 -73 -27 -133t-71 -100t-103 -67.5t-121.5 -39.5t-127.5 -12h-90v-246h-221v1163h221v-217h119q189 0 305 -94t116 -254zM668 600q0 74 -43 109.5t-142 35.5h-110v-305q127 2 173 14q122 29 122 146z" />
    <glyph glyph-name="germandbls" unicode="&#xdf;" horiz-adv-x="942" 
d="M870 328q0 -147 -102 -249t-252 -102q-65 0 -139 19l24 205q53 -23 97 -23q68 0 116 46.5t48 113.5q0 87 -72.5 152t-181.5 77v115q70 15 114.5 59.5t44.5 116.5q0 55 -36 93t-89 38q-59 0 -97 -44t-38 -118v-827h-205v805q0 173 94 275t250 102q135 0 230.5 -86
t95.5 -213q0 -48 -13 -89.5t-34 -69.5t-38 -44t-34 -27q97 -40 157 -128t60 -197z" />
    <glyph glyph-name="agrave" unicode="&#xe0;" horiz-adv-x="800" 
d="M537 0l-31 53q-73 -73 -203 -73q-101 0 -166 51t-65 157q0 194 260 258l155 39q-5 37 -36 60.5t-84 23.5q-74 0 -139.5 -27.5t-108.5 -72.5v178q42 46 110 72t150 26q137 0 223 -74.5t86 -197.5v-473h-151zM360 135q67 0 129 45v174l-118 -30q-103 -26 -103 -107
q0 -39 24 -60.5t68 -21.5zM342 834l-229 378h209l145 -378h-125z" />
    <glyph glyph-name="aacute" unicode="&#xe1;" horiz-adv-x="800" 
d="M537 0l-31 53q-73 -73 -203 -73q-101 0 -166 51t-65 157q0 194 260 258l155 39q-5 37 -36 60.5t-84 23.5q-74 0 -139.5 -27.5t-108.5 -72.5v178q42 46 110 72t150 26q137 0 223 -74.5t86 -197.5v-473h-151zM360 135q67 0 129 45v174l-118 -30q-103 -26 -103 -107
q0 -39 24 -60.5t68 -21.5zM651 1212l-229 -378h-125l145 378h209z" />
    <glyph glyph-name="acircumflex" unicode="&#xe2;" horiz-adv-x="800" 
d="M537 0l-31 53q-73 -73 -203 -73q-101 0 -166 51t-65 157q0 194 260 258l155 39q-5 37 -36 60.5t-84 23.5q-74 0 -139.5 -27.5t-108.5 -72.5v178q42 46 110 72t150 26q137 0 223 -74.5t86 -197.5v-473h-151zM625 834h-127l-115 223l-113 -223h-127l172 378h138zM360 135
q67 0 129 45v174l-118 -30q-103 -26 -103 -107q0 -39 24 -60.5t68 -21.5z" />
    <glyph glyph-name="atilde" unicode="&#xe3;" horiz-adv-x="800" 
d="M537 0l-31 53q-73 -73 -203 -73q-101 0 -166 51t-65 157q0 194 260 258l155 39q-5 37 -36 60.5t-84 23.5q-74 0 -139.5 -27.5t-108.5 -72.5v178q42 46 110 72t150 26q137 0 223 -74.5t86 -197.5v-473h-151zM360 135q67 0 129 45v174l-118 -30q-103 -26 -103 -107
q0 -39 24 -60.5t68 -21.5zM672 1081q-6 -90 -53 -149.5t-125 -59.5q-39 0 -75.5 20t-65.5 40t-52 20q-51 0 -57 -69h-148q7 92 50.5 150.5t127.5 58.5q45 0 108 -40t91 -40q21 0 36 18.5t15 50.5h148z" />
    <glyph glyph-name="adieresis" unicode="&#xe4;" horiz-adv-x="800" 
d="M537 0l-31 53q-73 -73 -203 -73q-101 0 -166 51t-65 157q0 194 260 258l155 39q-5 37 -36 60.5t-84 23.5q-74 0 -139.5 -27.5t-108.5 -72.5v178q42 46 110 72t150 26q137 0 223 -74.5t86 -197.5v-473h-151zM360 135q67 0 129 45v174l-118 -30q-103 -26 -103 -107
q0 -39 24 -60.5t68 -21.5zM686 1004l-135 -134l-133 134l133 135zM350 1004l-133 -134l-135 134l135 135z" />
    <glyph glyph-name="aring" unicode="&#xe5;" horiz-adv-x="800" 
d="M537 0l-31 53q-73 -73 -203 -73q-101 0 -166 51t-65 157q0 194 260 258l155 39q-5 37 -36 60.5t-84 23.5q-74 0 -139.5 -27.5t-108.5 -72.5v178q42 46 110 72t150 26q137 0 223 -74.5t86 -197.5v-473h-151zM578 1020q0 -77 -57 -131.5t-136 -54.5q-82 0 -138.5 53.5
t-56.5 130.5q0 78 56.5 133t138.5 55q79 0 136 -54.5t57 -131.5zM360 135q67 0 129 45v174l-118 -30q-103 -26 -103 -107q0 -39 24 -60.5t68 -21.5zM469 1020q0 37 -24.5 61.5t-59.5 24.5t-59.5 -24.5t-24.5 -61.5t24.5 -61.5t59.5 -24.5t59.5 24.5t24.5 61.5z" />
    <glyph glyph-name="ae" unicode="&#xe6;" horiz-adv-x="1261" 
d="M328 -20q-111 0 -183.5 51t-72.5 157q0 194 260 258l160 39q-5 37 -38 60.5t-87 23.5q-74 0 -139.5 -27.5t-108.5 -72.5v178q42 46 110 72t150 26q147 0 233 -100q104 100 232 100q140 0 230.5 -96t90.5 -246v-96h-489q18 -70 77 -118t144 -48q37 0 73 5t67 14t50.5 15.5
t43 17t24.5 10.5v-162q-1 0 -17 -8.5t-27 -13.5t-37 -14t-51 -14.5t-63.5 -9.5t-80.5 -4q-81 0 -157.5 32t-133.5 89q-35 -51 -102.5 -84.5t-157.5 -33.5zM514 209q-20 50 -20 113v34l-123 -32q-103 -26 -103 -107q0 -38 25.5 -60t71.5 -22q75 0 149 74zM981 436
q0 57 -37.5 103.5t-99.5 46.5q-64 0 -107.5 -43t-54.5 -107h299z" />
    <glyph glyph-name="ccedilla" unicode="&#xe7;" horiz-adv-x="798" 
d="M727 49q-1 -1 -18 -10t-26 -13.5t-30.5 -13t-39 -14t-44 -11t-53.5 -7.5l-12 -41q54 -6 83 -47t29 -103q0 -80 -58 -129t-136 -49q-60 0 -98 20v136q25 -19 73 -19q26 0 45 14t19 39t-19 39.5t-45 14.5t-55 -11l37 142q-140 27 -229 128t-89 244q0 165 116 275t288 110
q124 0 258 -69v-174q-1 0 -25.5 12t-40 18.5t-43 16t-56.5 14t-58 4.5q-106 0 -170 -57.5t-64 -147.5q0 -88 64.5 -144t169.5 -56q89 0 227 67v-178z" />
    <glyph glyph-name="egrave" unicode="&#xe8;" horiz-adv-x="847" 
d="M752 307h-486q18 -69 77.5 -117.5t141.5 -48.5q37 0 73 5t66 14t50 15.5t42.5 16.5t24.5 11v-162q-1 0 -11.5 -6t-17 -9.5t-22.5 -10t-30 -11t-36.5 -10t-45 -9t-52 -6t-61.5 -2.5q-76 0 -148 26.5t-129 74.5t-92 121.5t-35 160.5q0 160 109.5 272.5t259.5 112.5
q140 0 231 -96t91 -246v-96zM567 436q0 58 -36.5 104t-98.5 46t-105.5 -43t-54.5 -107h295zM389 834l-229 378h209l145 -378h-125z" />
    <glyph glyph-name="eacute" unicode="&#xe9;" horiz-adv-x="847" 
d="M752 307h-486q18 -69 77.5 -117.5t141.5 -48.5q37 0 73 5t66 14t50 15.5t42.5 16.5t24.5 11v-162q-1 0 -11.5 -6t-17 -9.5t-22.5 -10t-30 -11t-36.5 -10t-45 -9t-52 -6t-61.5 -2.5q-76 0 -148 26.5t-129 74.5t-92 121.5t-35 160.5q0 160 109.5 272.5t259.5 112.5
q140 0 231 -96t91 -246v-96zM567 436q0 58 -36.5 104t-98.5 46t-105.5 -43t-54.5 -107h295zM698 1212l-229 -378h-125l145 378h209z" />
    <glyph glyph-name="ecircumflex" unicode="&#xea;" horiz-adv-x="847" 
d="M752 307h-486q18 -69 77.5 -117.5t141.5 -48.5q37 0 73 5t66 14t50 15.5t42.5 16.5t24.5 11v-162q-1 0 -11.5 -6t-17 -9.5t-22.5 -10t-30 -11t-36.5 -10t-45 -9t-52 -6t-61.5 -2.5q-76 0 -148 26.5t-129 74.5t-92 121.5t-35 160.5q0 160 109.5 272.5t259.5 112.5
q140 0 231 -96t91 -246v-96zM567 436q0 58 -36.5 104t-98.5 46t-105.5 -43t-54.5 -107h295zM672 834h-127l-115 223l-113 -223h-127l172 378h138z" />
    <glyph glyph-name="edieresis" unicode="&#xeb;" horiz-adv-x="847" 
d="M752 307h-486q18 -69 77.5 -117.5t141.5 -48.5q37 0 73 5t66 14t50 15.5t42.5 16.5t24.5 11v-162q-1 0 -11.5 -6t-17 -9.5t-22.5 -10t-30 -11t-36.5 -10t-45 -9t-52 -6t-61.5 -2.5q-76 0 -148 26.5t-129 74.5t-92 121.5t-35 160.5q0 160 109.5 272.5t259.5 112.5
q140 0 231 -96t91 -246v-96zM567 436q0 58 -36.5 104t-98.5 46t-105.5 -43t-54.5 -107h295zM733 1004l-135 -134l-133 134l133 135zM397 1004l-133 -134l-135 134l135 135z" />
    <glyph glyph-name="igrave" unicode="&#xec;" horiz-adv-x="471" 
d="M338 0h-205v723h205v-723zM182 834l-229 378h209l145 -378h-125z" />
    <glyph glyph-name="iacute" unicode="&#xed;" horiz-adv-x="471" 
d="M338 0h-205v723h205v-723zM510 1212l-229 -378h-125l145 378h209z" />
    <glyph glyph-name="icircumflex" unicode="&#xee;" horiz-adv-x="471" 
d="M338 0h-205v723h205v-723zM477 834h-127l-114 223l-113 -223h-127l172 378h137z" />
    <glyph glyph-name="idieresis" unicode="&#xef;" horiz-adv-x="471" 
d="M338 0h-205v723h205v-723zM539 1004l-136 -134l-133 134l133 135zM203 1004l-133 -134l-136 134l136 135z" />
    <glyph glyph-name="eth" unicode="&#xf0;" horiz-adv-x="972" 
d="M901 487q0 -244 -117.5 -377t-304.5 -133q-110 0 -203.5 50t-148.5 138.5t-55 194.5q0 162 119.5 273.5t287.5 111.5q23 0 46 -3t39 -7t33 -10t26 -10t19.5 -9t12.5 -6q-45 146 -129 271l-204 -125l-80 108l200 123q-43 50 -125 121l129 129q99 -85 158 -151l211 127
l80 -109l-203 -123q209 -279 209 -584zM686 360q0 86 -60 144.5t-145 58.5q-87 0 -147 -58.5t-60 -144.5t60 -143t147 -57q86 0 145.5 57.5t59.5 142.5z" />
    <glyph glyph-name="ntilde" unicode="&#xf1;" horiz-adv-x="923" 
d="M811 0h-205v442q0 62 -33.5 94.5t-89.5 32.5q-44 0 -89.5 -25.5t-76.5 -54.5v-489h-204v723h196l10 -61q90 83 226 83q121 0 193.5 -78t72.5 -231v-436zM754 1081q-6 -90 -53.5 -149.5t-125.5 -59.5q-39 0 -75 20t-65 40t-52 20q-51 0 -57 -69h-148q7 92 50.5 150.5
t127.5 58.5q45 0 108 -40t91 -40q21 0 36 18.5t15 50.5h148z" />
    <glyph glyph-name="ograve" unicode="&#xf2;" horiz-adv-x="935" 
d="M874 360q0 -162 -118.5 -272.5t-286.5 -110.5q-170 0 -289 110.5t-119 272.5t119 273.5t289 111.5q168 0 286.5 -111.5t118.5 -273.5zM670 360q0 91 -59 153t-142 62q-84 0 -143.5 -62t-59.5 -153t59.5 -152t143.5 -61q83 0 142 61t59 152zM428 834l-229 378h209
l145 -378h-125z" />
    <glyph glyph-name="oacute" unicode="&#xf3;" horiz-adv-x="935" 
d="M874 360q0 -162 -118.5 -272.5t-286.5 -110.5q-170 0 -289 110.5t-119 272.5t119 273.5t289 111.5q168 0 286.5 -111.5t118.5 -273.5zM670 360q0 91 -59 153t-142 62q-84 0 -143.5 -62t-59.5 -153t59.5 -152t143.5 -61q83 0 142 61t59 152zM737 1212l-229 -378h-125
l145 378h209z" />
    <glyph glyph-name="ocircumflex" unicode="&#xf4;" horiz-adv-x="935" 
d="M874 360q0 -162 -118.5 -272.5t-286.5 -110.5q-170 0 -289 110.5t-119 272.5t119 273.5t289 111.5q168 0 286.5 -111.5t118.5 -273.5zM670 360q0 91 -59 153t-142 62q-84 0 -143.5 -62t-59.5 -153t59.5 -152t143.5 -61q83 0 142 61t59 152zM711 834h-127l-115 223
l-113 -223h-127l172 378h138z" />
    <glyph glyph-name="otilde" unicode="&#xf5;" horiz-adv-x="935" 
d="M874 360q0 -162 -118.5 -272.5t-286.5 -110.5q-170 0 -289 110.5t-119 272.5t119 273.5t289 111.5q168 0 286.5 -111.5t118.5 -273.5zM670 360q0 91 -59 153t-142 62q-84 0 -143.5 -62t-59.5 -153t59.5 -152t143.5 -61q83 0 142 61t59 152zM758 1081q-6 -90 -53 -149.5
t-125 -59.5q-39 0 -75.5 20t-65.5 40t-52 20q-51 0 -57 -69h-148q7 92 50.5 150.5t127.5 58.5q45 0 108 -40t91 -40q21 0 36 18.5t15 50.5h148z" />
    <glyph glyph-name="odieresis" unicode="&#xf6;" horiz-adv-x="935" 
d="M874 360q0 -162 -118.5 -272.5t-286.5 -110.5q-170 0 -289 110.5t-119 272.5t119 273.5t289 111.5q168 0 286.5 -111.5t118.5 -273.5zM670 360q0 91 -59 153t-142 62q-84 0 -143.5 -62t-59.5 -153t59.5 -152t143.5 -61q83 0 142 61t59 152zM772 1004l-135 -134l-133 134
l133 135zM436 1004l-133 -134l-135 134l135 135z" />
    <glyph glyph-name="divide" unicode="&#xf7;" horiz-adv-x="1054" 
d="M952 453h-850v139h850v-139zM659 858l-133 -133l-135 135l133 133zM659 184l-133 -133l-135 135l133 133z" />
    <glyph glyph-name="oslash" unicode="&#xf8;" horiz-adv-x="935" 
d="M625 496l-260 -320q50 -29 104 -29q83 0 142 61t59 152q0 79 -45 136zM315 219l263 322q-46 34 -109 34q-84 0 -143.5 -62t-59.5 -153q0 -83 49 -141zM197 74q-63 54 -99.5 128t-36.5 158q0 162 119 273.5t289 111.5q126 0 223 -63l113 135l45 -45l-105 -129
q129 -110 129 -283q0 -162 -118.5 -272.5t-286.5 -110.5q-120 0 -219 58q0 1 -29 -35t-59 -72l-29 -37l-47 48z" />
    <glyph glyph-name="ugrave" unicode="&#xf9;" horiz-adv-x="903" 
d="M791 0h-189l-12 47q-14 -12 -34.5 -25t-73.5 -29t-113 -16q-109 0 -182.5 78.5t-73.5 231.5v436h204v-442q0 -62 33.5 -94.5t89.5 -32.5q65 0 146 61v508h205v-723zM414 834l-230 378h209l146 -378h-125z" />
    <glyph glyph-name="uacute" unicode="&#xfa;" horiz-adv-x="903" 
d="M791 0h-189l-12 47q-14 -12 -34.5 -25t-73.5 -29t-113 -16q-109 0 -182.5 78.5t-73.5 231.5v436h204v-442q0 -62 33.5 -94.5t89.5 -32.5q65 0 146 61v508h205v-723zM719 1212l-230 -378h-124l145 378h209z" />
    <glyph glyph-name="ucircumflex" unicode="&#xfb;" horiz-adv-x="903" 
d="M791 0h-189l-12 47q-14 -12 -34.5 -25t-73.5 -29t-113 -16q-109 0 -182.5 78.5t-73.5 231.5v436h204v-442q0 -62 33.5 -94.5t89.5 -32.5q65 0 146 61v508h205v-723zM692 834h-127l-114 223l-113 -223h-127l172 378h137z" />
    <glyph glyph-name="udieresis" unicode="&#xfc;" horiz-adv-x="903" 
d="M791 0h-189l-12 47q-14 -12 -34.5 -25t-73.5 -29t-113 -16q-109 0 -182.5 78.5t-73.5 231.5v436h204v-442q0 -62 33.5 -94.5t89.5 -32.5q65 0 146 61v508h205v-723zM754 1004l-136 -134l-133 134l133 135zM418 1004l-133 -134l-135 134l135 135z" />
    <glyph glyph-name="yacute" unicode="&#xfd;" horiz-adv-x="749" 
d="M739 723l-272 -723l-168 -465h-197l170 465l-262 723h203l162 -492l162 492h202zM643 1212l-229 -378h-125l145 378h209z" />
    <glyph glyph-name="thorn" unicode="&#xfe;" horiz-adv-x="937" 
d="M877 367q0 -178 -104 -284t-261 -106q-107 0 -195 58v-500h-204v1653h204v-508q78 68 209 68q66 0 127.5 -24t112 -69.5t81 -120t30.5 -167.5zM672 367q0 95 -58 150.5t-139 55.5q-107 0 -158 -65v-297q24 -23 68 -41t94 -18q88 0 140.5 61.5t52.5 153.5z" />
    <glyph glyph-name="ydieresis" unicode="&#xff;" horiz-adv-x="749" 
d="M739 723l-272 -723l-168 -465h-197l170 465l-262 723h203l162 -492l162 492h202zM678 1004l-135 -134l-133 134l133 135zM342 1004l-133 -134l-135 134l135 135z" />
    <glyph glyph-name="Amacron" unicode="&#x100;" horiz-adv-x="1132" 
d="M1112 0h-235l-117 328h-393l-117 -328h-230l451 1163h191zM700 498l-137 387l-137 -387h274zM868 1335h-600v144h600v-144z" />
    <glyph glyph-name="amacron" unicode="&#x101;" horiz-adv-x="800" 
d="M537 0l-31 53q-73 -73 -203 -73q-101 0 -166 51t-65 157q0 194 260 258l155 39q-5 37 -36 60.5t-84 23.5q-74 0 -139.5 -27.5t-108.5 -72.5v178q42 46 110 72t150 26q137 0 223 -74.5t86 -197.5v-473h-151zM651 907h-528v148h528v-148zM360 135q67 0 129 45v174l-118 -30
q-103 -26 -103 -107q0 -39 24 -60.5t68 -21.5z" />
    <glyph glyph-name="Abreve" unicode="&#x102;" horiz-adv-x="1132" 
d="M1112 0h-235l-117 328h-393l-117 -328h-230l451 1163h191zM700 498l-137 387l-137 -387h274zM842 1556q0 -123 -81 -199.5t-192 -76.5q-112 0 -193 76.5t-81 199.5h143q0 -65 37.5 -106t91.5 -41q55 0 93 41t38 106h144z" />
    <glyph glyph-name="abreve" unicode="&#x103;" horiz-adv-x="800" 
d="M537 0l-31 53q-73 -73 -203 -73q-101 0 -166 51t-65 157q0 194 260 258l155 39q-5 37 -36 60.5t-84 23.5q-74 0 -139.5 -27.5t-108.5 -72.5v178q42 46 110 72t150 26q137 0 223 -74.5t86 -197.5v-473h-151zM360 135q67 0 129 45v174l-118 -30q-103 -26 -103 -107
q0 -39 24 -60.5t68 -21.5zM653 1141q0 -128 -79.5 -208.5t-188.5 -80.5q-110 0 -190 80.5t-80 206.5v2h127q0 -64 42 -105t99 -41q59 0 101 41t42 105h127z" />
    <glyph glyph-name="Aogonek" unicode="&#x104;" horiz-adv-x="1132" 
d="M1112 -227v-148q-43 -26 -111 -26q-99 0 -157 55.5t-58 150.5q0 53 24.5 104.5t66.5 90.5l-117 328h-393l-117 -328h-230l451 1163h191l450 -1163h-10q-63 -20 -102 -68t-39 -100q0 -37 21.5 -56.5t55.5 -19.5q36 0 74 17zM700 498l-137 387l-137 -387h274z" />
    <glyph glyph-name="aogonek" unicode="&#x105;" horiz-adv-x="800" 
d="M698 -209v-147q-44 -27 -104 -27q-92 0 -148.5 56.5t-56.5 144.5q0 64 35.5 120.5t95.5 90.5l-14 24q-73 -73 -203 -73q-101 0 -166 51t-65 157q0 194 260 258l155 39q-5 37 -36 60.5t-84 23.5q-74 0 -139.5 -27.5t-108.5 -72.5v178q42 46 110 72t150 26q137 0 223 -74.5
t86 -197.5v-473q-60 -20 -94.5 -61t-34.5 -91q0 -33 21 -53t51 -20q43 0 67 16zM360 135q67 0 129 45v174l-118 -30q-103 -26 -103 -107q0 -39 24 -60.5t68 -21.5z" />
    <glyph glyph-name="Cacute" unicode="&#x106;" horiz-adv-x="1243" 
d="M1157 47q-2 -1 -16.5 -7t-24 -10t-30 -11.5t-39 -12.5t-45 -12t-54.5 -11.5t-60.5 -9t-70 -6.5t-76.5 -2q-128 0 -247.5 46t-209.5 126t-144 196t-54 247q0 175 91.5 318t241 221.5t322.5 78.5q215 0 408 -77q6 -2 8 -3v-219q-205 105 -389 105q-181 0 -311.5 -120
t-130.5 -302q0 -119 58.5 -216t156 -150.5t211.5 -53.5q57 0 113.5 8t105 22.5t80.5 26t67 27t39 16.5v-215zM983 1575l-203 -313h-127l115 313h215z" />
    <glyph glyph-name="cacute" unicode="&#x107;" horiz-adv-x="798" 
d="M727 49q-2 -1 -17.5 -9.5t-25 -13t-29.5 -13t-38.5 -14t-42.5 -11t-52 -8.5t-57 -3q-171 0 -287.5 108t-116.5 273t116 275t288 110q124 0 258 -69v-174q-1 0 -25.5 12t-40 18.5t-43 16t-56.5 14t-58 4.5q-106 0 -170 -57.5t-64 -147.5q0 -88 64.5 -144t169.5 -56
q89 0 227 67v-178zM719 1212l-230 -378h-124l145 378h209z" />
    <glyph glyph-name="Ccircumflex" unicode="&#x108;" horiz-adv-x="1243" 
d="M1157 47q-2 -1 -16.5 -7t-24 -10t-30 -11.5t-39 -12.5t-45 -12t-54.5 -11.5t-60.5 -9t-70 -6.5t-76.5 -2q-128 0 -247.5 46t-209.5 126t-144 196t-54 247q0 175 91.5 318t241 221.5t322.5 78.5q215 0 408 -77q6 -2 8 -3v-219q-205 105 -389 105q-181 0 -311.5 -120
t-130.5 -302q0 -119 58.5 -216t156 -150.5t211.5 -53.5q57 0 113.5 8t105 22.5t80.5 26t67 27t39 16.5v-215zM985 1262h-119l-129 186l-127 -186h-118l174 315h145z" />
    <glyph glyph-name="ccircumflex" unicode="&#x109;" horiz-adv-x="798" 
d="M727 49q-2 -1 -17.5 -9.5t-25 -13t-29.5 -13t-38.5 -14t-42.5 -11t-52 -8.5t-57 -3q-171 0 -287.5 108t-116.5 273t116 275t288 110q124 0 258 -69v-174q-1 0 -25.5 12t-40 18.5t-43 16t-56.5 14t-58 4.5q-106 0 -170 -57.5t-64 -147.5q0 -88 64.5 -144t169.5 -56
q89 0 227 67v-178zM692 834h-127l-114 223l-113 -223h-127l172 378h137z" />
    <glyph glyph-name="Cdotaccent" unicode="&#x10a;" horiz-adv-x="1243" 
d="M1157 47q-2 -1 -16.5 -7t-24 -10t-30 -11.5t-39 -12.5t-45 -12t-54.5 -11.5t-60.5 -9t-70 -6.5t-76.5 -2q-128 0 -247.5 46t-209.5 126t-144 196t-54 247q0 175 91.5 318t241 221.5t322.5 78.5q215 0 408 -77q6 -2 8 -3v-219q-205 105 -389 105q-181 0 -311.5 -120
t-130.5 -302q0 -119 58.5 -216t156 -150.5t211.5 -53.5q57 0 113.5 8t105 22.5t80.5 26t67 27t39 16.5v-215zM872 1432l-133 -134l-135 134l133 135z" />
    <glyph glyph-name="cdotaccent" unicode="&#x10b;" horiz-adv-x="798" 
d="M727 49q-2 -1 -17.5 -9.5t-25 -13t-29.5 -13t-38.5 -14t-42.5 -11t-52 -8.5t-57 -3q-171 0 -287.5 108t-116.5 273t116 275t288 110q124 0 258 -69v-174q-1 0 -25.5 12t-40 18.5t-43 16t-56.5 14t-58 4.5q-106 0 -170 -57.5t-64 -147.5q0 -88 64.5 -144t169.5 -56
q89 0 227 67v-178zM586 1004l-133 -134l-136 134l134 135z" />
    <glyph glyph-name="Ccaron" unicode="&#x10c;" horiz-adv-x="1243" 
d="M1157 47q-2 -1 -16.5 -7t-24 -10t-30 -11.5t-39 -12.5t-45 -12t-54.5 -11.5t-60.5 -9t-70 -6.5t-76.5 -2q-128 0 -247.5 46t-209.5 126t-144 196t-54 247q0 175 91.5 318t241 221.5t322.5 78.5q215 0 408 -77q6 -2 8 -3v-219q-205 105 -389 105q-181 0 -311.5 -120
t-130.5 -302q0 -119 58.5 -216t156 -150.5t211.5 -53.5q57 0 113.5 8t105 22.5t80.5 26t67 27t39 16.5v-215zM993 1575l-217 -313h-76l-217 313h160l94 -172l97 172h159z" />
    <glyph glyph-name="ccaron" unicode="&#x10d;" horiz-adv-x="798" 
d="M727 49q-2 -1 -17.5 -9.5t-25 -13t-29.5 -13t-38.5 -14t-42.5 -11t-52 -8.5t-57 -3q-171 0 -287.5 108t-116.5 273t116 275t288 110q124 0 258 -69v-174q-1 0 -25.5 12t-40 18.5t-43 16t-56.5 14t-58 4.5q-106 0 -170 -57.5t-64 -147.5q0 -88 64.5 -144t169.5 -56
q89 0 227 67v-178zM692 1212l-205 -378h-71l-205 378h162l78 -215l79 215h162z" />
    <glyph glyph-name="Dcaron" unicode="&#x10e;" horiz-adv-x="1294" 
d="M1208 578q0 -138 -56 -250t-150.5 -182.5t-212.5 -108t-248 -37.5h-389v1163h378q103 0 201.5 -24t185 -73.5t151.5 -118.5t102.5 -164t37.5 -205zM979 578q0 173 -125.5 282t-316.5 109h-164v-770h172q193 0 313.5 102.5t120.5 276.5zM846 1573l-217 -313h-76l-217 313
h160l94 -172l96 172h160z" />
    <glyph glyph-name="dcaron" unicode="&#x10f;" horiz-adv-x="1103" 
d="M825 2l-188 -6l-12 51q-74 -70 -211 -70q-66 0 -126 21t-112.5 65t-83.5 122t-31 182q0 157 104.5 267.5t258.5 110.5q126 0 197 -57v475h204v-1161zM621 508q-63 63 -156 63q-86 0 -142.5 -62t-56.5 -147q0 -93 46.5 -152.5t138.5 -59.5q48 0 96 22.5t74 58.5v277z
M1159 1188l-123 -377h-139l59 377h203z" />
    <glyph glyph-name="Dcroat" unicode="&#x110;" horiz-adv-x="1282" 
d="M1190 578q0 -111 -37 -206t-100.5 -162.5t-148.5 -115.5t-182 -71t-200 -23h-389v504h-133v153h133v506h379q103 0 201.5 -24t185 -73.5t151.5 -118.5t102.5 -164t37.5 -205zM961 578q0 173 -126 282t-317 109h-164v-312h361v-153h-361v-305h172q194 0 314.5 102.5
t120.5 276.5z" />
    <glyph glyph-name="dcroat" unicode="&#x111;" horiz-adv-x="937" 
d="M825 2l-188 -6l-12 51q-74 -70 -211 -70q-66 0 -126 21t-112.5 65t-83.5 122t-31 182q0 157 104.5 267.5t258.5 110.5q126 0 197 -57v184h-259l15 125h244v166h204v-166h105l-15 -125h-90v-870zM621 508q-63 63 -156 63q-86 0 -142.5 -62t-56.5 -147q0 -93 46.5 -152.5
t138.5 -59.5q48 0 96 22.5t74 58.5v277z" />
    <glyph glyph-name="Emacron" unicode="&#x112;" horiz-adv-x="968" 
d="M883 0h-731v1163h704v-194h-483v-285h360v-192h-360v-297h510v-195zM803 1335h-600v144h600v-144z" />
    <glyph glyph-name="emacron" unicode="&#x113;" horiz-adv-x="847" 
d="M752 307h-486q18 -69 77.5 -117.5t141.5 -48.5q37 0 73 5t66 14t50 15.5t42.5 16.5t24.5 11v-162q-1 0 -11.5 -6t-17 -9.5t-22.5 -10t-30 -11t-36.5 -10t-45 -9t-52 -6t-61.5 -2.5q-76 0 -148 26.5t-129 74.5t-92 121.5t-35 160.5q0 160 109.5 272.5t259.5 112.5
q140 0 231 -96t91 -246v-96zM567 436q0 58 -36.5 104t-98.5 46t-105.5 -43t-54.5 -107h295zM694 907h-528v148h528v-148z" />
    <glyph glyph-name="Ebreve" unicode="&#x114;" horiz-adv-x="968" 
d="M883 0h-731v1163h704v-194h-483v-285h360v-192h-360v-297h510v-195zM776 1556q0 -123 -80.5 -199.5t-191.5 -76.5q-112 0 -193.5 76.5t-81.5 199.5h144q0 -65 37.5 -106t91.5 -41q55 0 93 41t38 106h143z" />
    <glyph glyph-name="ebreve" unicode="&#x115;" horiz-adv-x="847" 
d="M752 307h-486q18 -69 77.5 -117.5t141.5 -48.5q37 0 73 5t66 14t50 15.5t42.5 16.5t24.5 11v-162q-1 0 -11.5 -6t-17 -9.5t-22.5 -10t-30 -11t-36.5 -10t-45 -9t-52 -6t-61.5 -2.5q-76 0 -148 26.5t-129 74.5t-92 121.5t-35 160.5q0 160 109.5 272.5t259.5 112.5
q140 0 231 -96t91 -246v-96zM567 436q0 58 -36.5 104t-98.5 46t-105.5 -43t-54.5 -107h295zM700 1141q0 -128 -79.5 -208.5t-188.5 -80.5q-110 0 -190 80.5t-80 206.5v2h127q0 -64 42 -105t99 -41q59 0 101 41t42 105h127z" />
    <glyph glyph-name="Edotaccent" unicode="&#x116;" horiz-adv-x="968" 
d="M883 0h-731v1163h704v-194h-483v-285h360v-192h-360v-297h510v-195zM637 1432l-133 -134l-135 134l133 135z" />
    <glyph glyph-name="edotaccent" unicode="&#x117;" horiz-adv-x="847" 
d="M752 307h-486q18 -69 77.5 -117.5t141.5 -48.5q37 0 73 5t66 14t50 15.5t42.5 16.5t24.5 11v-162q-1 0 -11.5 -6t-17 -9.5t-22.5 -10t-30 -11t-36.5 -10t-45 -9t-52 -6t-61.5 -2.5q-76 0 -148 26.5t-129 74.5t-92 121.5t-35 160.5q0 160 109.5 272.5t259.5 112.5
q140 0 231 -96t91 -246v-96zM567 436q0 58 -36.5 104t-98.5 46t-105.5 -43t-54.5 -107h295zM565 1004l-133 -134l-135 134l133 135z" />
    <glyph glyph-name="Eogonek" unicode="&#x118;" horiz-adv-x="968" 
d="M893 -227v-148q-43 -26 -111 -26q-99 0 -157 55.5t-58 150.5q0 53 24 104.5t66 90.5h-505v1163h704v-194h-483v-285h360v-192h-360v-297h510v-195q-63 -20 -102.5 -68t-39.5 -100q0 -37 22 -56.5t56 -19.5q36 0 74 17z" />
    <glyph glyph-name="eogonek" unicode="&#x119;" horiz-adv-x="847" 
d="M647 -348q-92 0 -147.5 53.5t-55.5 138.5q0 78 43 133h-22q-76 0 -148 26.5t-129 74.5t-92 121.5t-35 160.5q0 160 109.5 272.5t259.5 112.5q140 0 231 -96t91 -246v-96h-486q18 -69 77.5 -117.5t141.5 -48.5q37 0 73 5t66 14t50 15.5t42.5 16.5t24.5 11v-162
q-61 -22 -95 -63.5t-34 -94.5q0 -33 21 -53t51 -20q44 0 68 16v-148q-43 -26 -105 -26zM567 436q0 58 -36.5 104t-98.5 46t-105.5 -43t-54.5 -107h295z" />
    <glyph glyph-name="Ecaron" unicode="&#x11a;" horiz-adv-x="968" 
d="M883 0h-731v1163h704v-194h-483v-285h360v-192h-360v-297h510v-195zM758 1575l-217 -313h-76l-217 313h160l94 -172l96 172h160z" />
    <glyph glyph-name="ecaron" unicode="&#x11b;" horiz-adv-x="847" 
d="M752 307h-486q18 -69 77.5 -117.5t141.5 -48.5q37 0 73 5t66 14t50 15.5t42.5 16.5t24.5 11v-162q-1 0 -11.5 -6t-17 -9.5t-22.5 -10t-30 -11t-36.5 -10t-45 -9t-52 -6t-61.5 -2.5q-76 0 -148 26.5t-129 74.5t-92 121.5t-35 160.5q0 160 109.5 272.5t259.5 112.5
q140 0 231 -96t91 -246v-96zM567 436q0 58 -36.5 104t-98.5 46t-105.5 -43t-54.5 -107h295zM672 1212l-205 -378h-72l-205 378h162l78 -215l80 215h162z" />
    <glyph glyph-name="Gcircumflex" unicode="&#x11c;" horiz-adv-x="1288" 
d="M1157 47q-2 -1 -16.5 -7t-24 -10t-30 -11.5t-39 -12.5t-45 -12t-54.5 -11.5t-60.5 -9t-70 -6.5t-76.5 -2q-128 0 -247.5 46t-209.5 126t-144 196t-54 247q0 175 91.5 318t241 221.5t322.5 78.5q215 0 408 -77q6 -2 8 -3v-219q-219 105 -389 105q-181 0 -311.5 -120
t-130.5 -302q0 -119 58.5 -216t156 -150.5t211.5 -53.5q88 0 184 22v373h221v-510zM985 1262h-119l-129 186l-127 -186h-118l174 315h145z" />
    <glyph glyph-name="gcircumflex" unicode="&#x11d;" horiz-adv-x="835" 
d="M838 563h-136q33 -68 33 -139q0 -139 -98 -230.5t-240 -91.5q-41 0 -59 4l-41 -59l250 -74q99 -29 156 -93.5t57 -158.5q0 -106 -104 -185t-269 -79q-144 0 -245 74.5t-101 194.5q0 107 100 190l-104 35l160 211q-65 44 -101.5 111.5t-36.5 150.5q0 139 98 230t240 91
q131 0 221 -75l41 53h179v-160zM547 424q0 65 -43.5 107t-106.5 42q-64 0 -107.5 -42t-43.5 -107t43.5 -107.5t107.5 -42.5q63 0 106.5 42.5t43.5 107.5zM571 -279q0 30 -17 53.5t-48 32.5l-205 64q-29 -17 -55.5 -49.5t-26.5 -73.5q0 -56 53.5 -94.5t122.5 -38.5
q78 0 127 33t49 73zM651 834h-127l-114 223l-113 -223h-127l172 378h137z" />
    <glyph glyph-name="Gbreve" unicode="&#x11e;" horiz-adv-x="1288" 
d="M1157 47q-2 -1 -16.5 -7t-24 -10t-30 -11.5t-39 -12.5t-45 -12t-54.5 -11.5t-60.5 -9t-70 -6.5t-76.5 -2q-128 0 -247.5 46t-209.5 126t-144 196t-54 247q0 175 91.5 318t241 221.5t322.5 78.5q215 0 408 -77q6 -2 8 -3v-219q-219 105 -389 105q-181 0 -311.5 -120
t-130.5 -302q0 -119 58.5 -216t156 -150.5t211.5 -53.5q88 0 184 22v373h221v-510zM1012 1556q0 -123 -81 -199.5t-192 -76.5q-112 0 -193 76.5t-81 199.5h143q0 -65 37.5 -106t91.5 -41q55 0 93 41t38 106h144z" />
    <glyph glyph-name="gbreve" unicode="&#x11f;" horiz-adv-x="835" 
d="M838 563h-136q33 -68 33 -139q0 -139 -98 -230.5t-240 -91.5q-41 0 -59 4l-41 -59l250 -74q99 -29 156 -93.5t57 -158.5q0 -106 -104 -185t-269 -79q-144 0 -245 74.5t-101 194.5q0 107 100 190l-104 35l160 211q-65 44 -101.5 111.5t-36.5 150.5q0 139 98 230t240 91
q131 0 221 -75l41 53h179v-160zM547 424q0 65 -43.5 107t-106.5 42q-64 0 -107.5 -42t-43.5 -107t43.5 -107.5t107.5 -42.5q63 0 106.5 42.5t43.5 107.5zM571 -279q0 30 -17 53.5t-48 32.5l-205 64q-29 -17 -55.5 -49.5t-26.5 -73.5q0 -56 53.5 -94.5t122.5 -38.5
q78 0 127 33t49 73zM680 1141q0 -128 -79.5 -208.5t-188.5 -80.5q-110 0 -190.5 80.5t-80.5 206.5v2h127q0 -64 42 -105t100 -41q59 0 101 41t42 105h127z" />
    <glyph glyph-name="Gdotaccent" unicode="&#x120;" horiz-adv-x="1288" 
d="M1157 47q-2 -1 -16.5 -7t-24 -10t-30 -11.5t-39 -12.5t-45 -12t-54.5 -11.5t-60.5 -9t-70 -6.5t-76.5 -2q-128 0 -247.5 46t-209.5 126t-144 196t-54 247q0 175 91.5 318t241 221.5t322.5 78.5q215 0 408 -77q6 -2 8 -3v-219q-219 105 -389 105q-181 0 -311.5 -120
t-130.5 -302q0 -119 58.5 -216t156 -150.5t211.5 -53.5q88 0 184 22v373h221v-510zM872 1432l-133 -134l-135 134l133 135z" />
    <glyph glyph-name="gdotaccent" unicode="&#x121;" horiz-adv-x="835" 
d="M838 563h-136q33 -68 33 -139q0 -139 -98 -230.5t-240 -91.5q-41 0 -59 4l-41 -59l250 -74q99 -29 156 -93.5t57 -158.5q0 -106 -104 -185t-269 -79q-144 0 -245 74.5t-101 194.5q0 107 100 190l-104 35l160 211q-65 44 -101.5 111.5t-36.5 150.5q0 139 98 230t240 91
q131 0 221 -75l41 53h179v-160zM547 424q0 65 -43.5 107t-106.5 42q-64 0 -107.5 -42t-43.5 -107t43.5 -107.5t107.5 -42.5q63 0 106.5 42.5t43.5 107.5zM571 -279q0 30 -17 53.5t-48 32.5l-205 64q-29 -17 -55.5 -49.5t-26.5 -73.5q0 -56 53.5 -94.5t122.5 -38.5
q78 0 127 33t49 73zM545 1004l-133 -134l-136 134l134 135z" />
    <glyph glyph-name="Gcommaaccent" unicode="&#x122;" horiz-adv-x="1288" 
d="M1157 47q-2 -1 -16.5 -7t-24 -10t-30 -11.5t-39 -12.5t-45 -12t-54.5 -11.5t-60.5 -9t-70 -6.5t-76.5 -2q-128 0 -247.5 46t-209.5 126t-144 196t-54 247q0 175 91.5 318t241 221.5t322.5 78.5q215 0 408 -77q6 -2 8 -3v-219q-219 105 -389 105q-181 0 -311.5 -120
t-130.5 -302q0 -119 58.5 -216t156 -150.5t211.5 -53.5q88 0 184 22v373h221v-510zM639 -100h199q-10 -84 -60.5 -180.5t-109.5 -155.5h-105q76 176 76 336z" />
    <glyph glyph-name="gcommaaccent" unicode="&#x123;" horiz-adv-x="835" 
d="M510 844h-199q10 84 60.5 180.5t109.5 155.5h105q-76 -176 -76 -336zM838 563h-136q33 -68 33 -139q0 -139 -98 -230.5t-240 -91.5q-41 0 -59 4l-41 -59l250 -74q99 -29 156 -93.5t57 -158.5q0 -106 -104 -185t-269 -79q-144 0 -245 74.5t-101 194.5q0 107 100 190
l-104 35l160 211q-65 44 -101.5 111.5t-36.5 150.5q0 139 98 230t240 91q131 0 221 -75l41 53h179v-160zM547 424q0 65 -43.5 107t-106.5 42q-64 0 -107.5 -42t-43.5 -107t43.5 -107.5t107.5 -42.5q63 0 106.5 42.5t43.5 107.5zM571 -279q0 30 -17 53.5t-48 32.5l-205 64
q-29 -17 -55.5 -49.5t-26.5 -73.5q0 -56 53.5 -94.5t122.5 -38.5q78 0 127 33t49 73z" />
    <glyph glyph-name="Hcircumflex" unicode="&#x124;" horiz-adv-x="1284" 
d="M1133 0h-222v492h-538v-492h-221v1163h221v-481h538v481h222v-1163zM887 1262h-119l-129 186l-127 -186h-119l174 315h146z" />
    <glyph glyph-name="hcircumflex" unicode="&#x125;" horiz-adv-x="923" 
d="M811 0h-205v442q0 62 -33.5 94.5t-89.5 32.5q-45 0 -94 -28.5t-72 -51.5v-489h-204v1163h204v-504q93 86 228 86q120 0 193 -77t73 -222v-446zM463 1227h-119l-129 186l-127 -186h-119l174 315h146z" />
    <glyph glyph-name="Hbar" unicode="&#x126;" horiz-adv-x="1284" 
d="M1133 0h-222v492h-538v-492h-221v872h-125v138h125v153h221v-153h538v153h222v-153h124v-138h-124v-872zM373 682h538v190h-538v-190z" />
    <glyph glyph-name="hbar" unicode="&#x127;" horiz-adv-x="923" 
d="M811 0h-205v442q0 62 -33.5 94.5t-89.5 32.5q-45 0 -94 -28.5t-72 -51.5v-489h-204v872h-105l15 125h90v166h204v-166h258l-14 -125h-244v-213q93 86 228 86q120 0 193 -77t73 -222v-446z" />
    <glyph glyph-name="Itilde" unicode="&#x128;" horiz-adv-x="544" 
d="M383 0h-221v1163h221v-1163zM573 1509q-6 -86 -55 -143t-129 -57q-52 0 -115.5 31.5t-89.5 31.5q-58 0 -63 -61h-148q6 88 52.5 144t132.5 56q47 0 114 -31.5t97 -31.5q24 0 40.5 16t16.5 45h147z" />
    <glyph glyph-name="itilde" unicode="&#x129;" horiz-adv-x="471" 
d="M338 0h-205v723h205v-723zM524 1081q-6 -90 -53 -149.5t-125 -59.5q-39 0 -75 20t-65 40t-52 20q-52 0 -58 -69h-147q7 92 50.5 150.5t127.5 58.5q45 0 108 -40t91 -40q21 0 36 18.5t15 50.5h147z" />
    <glyph glyph-name="Imacron" unicode="&#x12a;" horiz-adv-x="544" 
d="M383 0h-221v1163h221v-1163zM573 1335h-600v144h600v-144z" />
    <glyph glyph-name="imacron" unicode="&#x12b;" horiz-adv-x="471" 
d="M338 0h-205v723h205v-723zM500 907h-529v148h529v-148z" />
    <glyph glyph-name="Iogonek" unicode="&#x12e;" horiz-adv-x="544" 
d="M393 -227v-148q-43 -26 -110 -26q-99 0 -157 55.5t-58 150.5q0 55 25.5 107.5t68.5 91.5v1159h221v-1163q-63 -20 -102 -68t-39 -100q0 -37 21.5 -56.5t55.5 -19.5q36 0 74 17z" />
    <glyph glyph-name="iogonek" unicode="&#x12f;" horiz-adv-x="471" 
d="M348 -209v-147q-44 -27 -104 -27q-92 0 -148.5 56.5t-56.5 144.5q0 54 25 103t69 83v719h205v-723q-60 -20 -94.5 -61t-34.5 -91q0 -33 21 -53t51 -20q43 0 67 16z" />
    <glyph glyph-name="Idotaccent" unicode="&#x130;" horiz-adv-x="544" 
d="M383 0h-221v1163h221v-1163zM408 1432l-134 -134l-135 134l133 135z" />
    <glyph glyph-name="dotlessi" unicode="&#x131;" horiz-adv-x="471" 
d="M338 0h-205v723h205v-723z" />
    <glyph glyph-name="Jcircumflex" unicode="&#x134;" horiz-adv-x="690" 
d="M545 1163v-899q0 -299 -316 -299q-110 0 -206 58l24 190q76 -53 176 -53q49 0 75 29.5t26 82.5v891h221zM682 1262h-119l-129 186l-127 -186h-119l174 315h146z" />
    <glyph glyph-name="jcircumflex" unicode="&#x135;" horiz-adv-x="471" 
d="M-12 -508l-54 186q90 9 144.5 54.5t54.5 120.5v870h205v-916q0 -136 -98.5 -222.5t-251.5 -92.5zM477 834h-127l-114 223l-113 -223h-127l172 378h137z" />
    <glyph glyph-name="Kcommaaccent" unicode="&#x136;" horiz-adv-x="1175" 
d="M1108 1163l-465 -465l326 -481q47 -72 102 -72q50 0 82 41l78 -80q-80 -126 -219 -126q-88 0 -141 36t-117 131l-267 396l-114 -115v-428h-221v1163h221v-485l481 485h254zM504 -100h198q-10 -84 -60.5 -180.5t-109.5 -155.5h-104q76 176 76 336z" />
    <glyph glyph-name="kcommaaccent" unicode="&#x137;" horiz-adv-x="841" 
d="M842 102q-12 -59 -52.5 -90.5t-103.5 -31.5q-104 0 -166 94l-143 211l-60 -60v-225h-204v1163h204v-714l267 274h231l-307 -307l164 -250q26 -41 59 -41q14 0 25 9t14 20zM344 -80h199q-10 -84 -60.5 -180.5t-109.5 -155.5h-105q76 176 76 336z" />
    <glyph glyph-name="kgreenlandic" unicode="&#x138;" horiz-adv-x="841" 
d="M842 102q-12 -59 -52.5 -90.5t-103.5 -31.5q-104 0 -166 94l-143 211l-60 -60v-225h-204v723h204v-274l267 274h231l-307 -307l164 -250q26 -41 59 -41q14 0 25 9t14 20z" />
    <glyph glyph-name="Lacute" unicode="&#x139;" horiz-adv-x="987" 
d="M967 0h-815v1163h221v-970h594v-193zM508 1575l-203 -313h-127l115 313h215z" />
    <glyph glyph-name="lacute" unicode="&#x13a;" horiz-adv-x="518" 
d="M508 195v-158q-22 -24 -70.5 -42t-107.5 -18q-98 0 -157.5 63.5t-59.5 186.5v936h204v-925q0 -45 24 -64.5t58 -19.5q25 0 57.5 13t51.5 28zM467 1575l-203 -313h-127l115 313h215z" />
    <glyph glyph-name="Lcommaaccent" unicode="&#x13b;" horiz-adv-x="987" 
d="M967 0h-815v1163h221v-970h594v-193zM481 -100h199q-10 -84 -60.5 -180.5t-109.5 -155.5h-104q75 173 75 336z" />
    <glyph glyph-name="lcommaaccent" unicode="&#x13c;" horiz-adv-x="518" 
d="M508 195v-158q-22 -24 -70.5 -42t-107.5 -18q-98 0 -157.5 63.5t-59.5 186.5v936h204v-925q0 -45 24 -64.5t58 -19.5q25 0 57.5 13t51.5 28zM217 -80h199q-10 -84 -60.5 -180.5t-109.5 -155.5h-105q76 176 76 336z" />
    <glyph glyph-name="Lcaron" unicode="&#x13d;" horiz-adv-x="987" 
d="M967 0h-815v1163h221v-970h594v-193zM518 1575l-217 -313h-76l-217 313h160l94 -172l96 172h160z" />
    <glyph glyph-name="lcaron" unicode="&#x13e;" horiz-adv-x="600" 
d="M662 1188l-123 -377h-140l60 377h203zM508 195v-158q-22 -24 -70.5 -42t-107.5 -18q-98 0 -157.5 63.5t-59.5 186.5v936h204v-925q0 -45 24 -64.5t58 -19.5q25 0 57.5 13t51.5 28z" />
    <glyph glyph-name="Ldot" unicode="&#x13f;" horiz-adv-x="1054" 
d="M967 0h-815v1163h221v-970h594v-193zM1065 614l-133 -133l-135 133l133 136z" />
    <glyph glyph-name="ldot" unicode="&#x140;" horiz-adv-x="651" 
d="M508 195v-158q-22 -24 -70.5 -42t-107.5 -18q-98 0 -157.5 63.5t-59.5 186.5v936h204v-925q0 -45 24 -64.5t58 -19.5q25 0 57.5 13t51.5 28zM692 485l-133 -133l-135 133l133 136z" />
    <glyph glyph-name="Lslash" unicode="&#x141;" horiz-adv-x="1009" 
d="M989 0h-815v442l-133 -69v162l133 69v559h221v-444l230 121v-162l-230 -121v-364h594v-193z" />
    <glyph glyph-name="lslash" unicode="&#x142;" horiz-adv-x="548" 
d="M524 195v-158q-22 -24 -70.5 -42t-107.5 -18q-98 0 -157.5 63.5t-59.5 186.5v236l-104 -55v161l104 56v538h205v-428l123 66v-162l-123 -66v-335q0 -45 24 -64.5t58 -19.5q25 0 57 13t51 28z" />
    <glyph glyph-name="Nacute" unicode="&#x143;" horiz-adv-x="1306" 
d="M1155 0h-221v246l-561 561v-807h-221v1163h147l635 -635v635h221v-1163zM885 1575l-203 -313h-127l115 313h215z" />
    <glyph glyph-name="nacute" unicode="&#x144;" horiz-adv-x="923" 
d="M811 0h-205v442q0 62 -33.5 94.5t-89.5 32.5q-44 0 -89.5 -25.5t-76.5 -54.5v-489h-204v723h196l10 -61q90 83 226 83q121 0 193.5 -78t72.5 -231v-436zM733 1212l-229 -378h-125l145 378h209z" />
    <glyph glyph-name="Ncommaaccent" unicode="&#x145;" horiz-adv-x="1306" 
d="M1155 0h-221v246l-561 561v-807h-221v1163h147l635 -635v635h221v-1163zM543 -100h198q-10 -84 -60.5 -180.5t-109.5 -155.5h-104q76 176 76 336z" />
    <glyph glyph-name="ncommaaccent" unicode="&#x146;" horiz-adv-x="923" 
d="M811 0h-205v442q0 62 -33.5 94.5t-89.5 32.5q-44 0 -89.5 -25.5t-76.5 -54.5v-489h-204v723h196l10 -61q90 83 226 83q121 0 193.5 -78t72.5 -231v-436zM371 -80h198q-10 -84 -60.5 -180.5t-109.5 -155.5h-104q76 176 76 336z" />
    <glyph glyph-name="Ncaron" unicode="&#x147;" horiz-adv-x="1306" 
d="M1155 0h-221v246l-561 561v-807h-221v1163h147l635 -635v635h221v-1163zM895 1575l-217 -313h-76l-217 313h160l94 -172l96 172h160z" />
    <glyph glyph-name="ncaron" unicode="&#x148;" horiz-adv-x="923" 
d="M811 0h-205v442q0 62 -33.5 94.5t-89.5 32.5q-44 0 -89.5 -25.5t-76.5 -54.5v-489h-204v723h196l10 -61q90 83 226 83q121 0 193.5 -78t72.5 -231v-436zM707 1212l-205 -378h-72l-205 378h162l78 -215l80 215h162z" />
    <glyph glyph-name="Eng" unicode="&#x14a;" horiz-adv-x="1306" 
d="M1155 -168q0 -299 -315 -299q-113 0 -207 57l24 191q76 -53 177 -53q49 0 74.5 29.5t25.5 82.5v406l-561 561v-807h-221v1163h147l635 -635v635h221v-1331z" />
    <glyph glyph-name="eng" unicode="&#x14b;" horiz-adv-x="923" 
d="M449 -477l-54 186q95 9 153 54t58 120v559q0 62 -33.5 94.5t-89.5 32.5q-44 0 -89.5 -25.5t-76.5 -54.5v-489h-204v723h196l10 -61q90 83 226 83q121 0 193.5 -78t72.5 -231v-598q0 -136 -102 -222.5t-260 -92.5z" />
    <glyph glyph-name="Omacron" unicode="&#x14c;" horiz-adv-x="1480" 
d="M1395 582q0 -126 -50 -239.5t-136 -196.5t-208.5 -132t-261.5 -49q-138 0 -260 49t-207.5 132t-135.5 196.5t-50 239.5q0 168 84 309t234.5 224t334.5 83q185 0 336 -83t235.5 -224t84.5 -309zM1167 582q0 176 -122.5 299t-305.5 123q-181 0 -303.5 -123t-122.5 -299
t122.5 -299t303.5 -123q183 0 305.5 123t122.5 299zM1040 1335h-600v144h600v-144z" />
    <glyph glyph-name="omacron" unicode="&#x14d;" horiz-adv-x="935" 
d="M874 360q0 -162 -118.5 -272.5t-286.5 -110.5q-170 0 -289 110.5t-119 272.5t119 273.5t289 111.5q168 0 286.5 -111.5t118.5 -273.5zM670 360q0 91 -59 153t-142 62q-84 0 -143.5 -62t-59.5 -153t59.5 -152t143.5 -61q83 0 142 61t59 152zM733 907h-528v148h528v-148z
" />
    <glyph glyph-name="Ohungarumlaut" unicode="&#x150;" horiz-adv-x="1480" 
d="M1395 582q0 -126 -50 -239.5t-136 -196.5t-208.5 -132t-261.5 -49q-138 0 -260 49t-207.5 132t-135.5 196.5t-50 239.5q0 168 84 309t234.5 224t334.5 83q185 0 336 -83t235.5 -224t84.5 -309zM1167 582q0 176 -122.5 299t-305.5 123q-181 0 -303.5 -123t-122.5 -299
t122.5 -299t303.5 -123q183 0 305.5 123t122.5 299zM868 1575l-227 -313h-119l150 313h196zM1139 1575l-228 -313h-118l149 313h197z" />
    <glyph glyph-name="ohungarumlaut" unicode="&#x151;" horiz-adv-x="935" 
d="M874 360q0 -162 -118.5 -272.5t-286.5 -110.5q-170 0 -289 110.5t-119 272.5t119 273.5t289 111.5q168 0 286.5 -111.5t118.5 -273.5zM670 360q0 91 -59 153t-142 62q-84 0 -143.5 -62t-59.5 -153t59.5 -152t143.5 -61q83 0 142 61t59 152zM616 1212l-239 -378h-115
l152 378h202zM883 1212l-240 -378h-115l152 378h203z" />
    <glyph glyph-name="OE" unicode="&#x152;" horiz-adv-x="1984" 
d="M1898 0h-731v123q-183 -158 -428 -158q-138 0 -260 49t-207.5 132t-135.5 196.5t-50 239.5q0 168 84 309t234.5 224t334.5 83q245 0 428 -158v123h705v-194h-483v-285h360v-192h-360v-297h509v-195zM1167 582q0 176 -122.5 299t-305.5 123q-181 0 -303.5 -123
t-122.5 -299t122.5 -299t303.5 -123q183 0 305.5 123t122.5 299z" />
    <glyph glyph-name="oe" unicode="&#x153;" horiz-adv-x="1472" 
d="M776 119q-56 -66 -135.5 -104t-173.5 -38q-168 0 -287 110.5t-119 272.5t119 273.5t289 111.5q90 0 170.5 -37t134.5 -102q113 139 281 139q140 0 230.5 -96t90.5 -246v-96h-485q18 -69 77.5 -117.5t141.5 -48.5q37 0 73 5t66 14t50 15.5t42.5 16.5t24.5 11v-162
q-1 0 -11.5 -6t-17 -9.5t-22.5 -10t-30 -11t-36.5 -10t-45 -9t-52 -6t-61.5 -2.5q-90 0 -173 37.5t-141 104.5zM670 360q0 91 -59 153t-142 62q-84 0 -143.5 -62t-59.5 -153t59.5 -152t143.5 -61q83 0 142 61t59 152zM1192 436q0 58 -36.5 104t-98.5 46t-105.5 -43
t-54.5 -107h295z" />
    <glyph glyph-name="Racute" unicode="&#x154;" horiz-adv-x="1087" 
d="M1108 115q-81 -135 -219 -135q-89 0 -145 36.5t-117 130.5l-195 297h-59v-444h-221v1163h346q196 0 306.5 -92t110.5 -250q0 -209 -247 -346l178 -258q47 -72 102 -72q36 0 82 50zM694 805q0 80 -50.5 122t-145.5 42h-125v-344h98q92 0 157.5 51.5t65.5 128.5zM721 1575
l-203 -313h-127l115 313h215z" />
    <glyph glyph-name="racute" unicode="&#x155;" horiz-adv-x="587" 
d="M588 551q-56 16 -115 16q-82 0 -156 -67v-500h-204v723h194l10 -76q73 98 183 98q28 0 88 -10v-184zM618 1212l-229 -378h-125l146 378h208z" />
    <glyph glyph-name="Rcommaaccent" unicode="&#x156;" horiz-adv-x="1087" 
d="M1108 115q-81 -135 -219 -135q-89 0 -145 36.5t-117 130.5l-195 297h-59v-444h-221v1163h346q196 0 306.5 -92t110.5 -250q0 -209 -247 -346l178 -258q47 -72 102 -72q36 0 82 50zM694 805q0 80 -50.5 122t-145.5 42h-125v-344h98q92 0 157.5 51.5t65.5 128.5zM457 -100
h198q-10 -84 -60.5 -180.5t-109.5 -155.5h-104q76 176 76 336z" />
    <glyph glyph-name="rcommaaccent" unicode="&#x157;" horiz-adv-x="587" 
d="M588 551q-56 16 -115 16q-82 0 -156 -67v-500h-204v723h194l10 -76q73 98 183 98q28 0 88 -10v-184zM117 -80h198q-10 -84 -60.5 -180.5t-109.5 -155.5h-104q76 176 76 336z" />
    <glyph glyph-name="Rcaron" unicode="&#x158;" horiz-adv-x="1087" 
d="M1108 115q-81 -135 -219 -135q-89 0 -145 36.5t-117 130.5l-195 297h-59v-444h-221v1163h346q196 0 306.5 -92t110.5 -250q0 -209 -247 -346l178 -258q47 -72 102 -72q36 0 82 50zM694 805q0 80 -50.5 122t-145.5 42h-125v-344h98q92 0 157.5 51.5t65.5 128.5zM731 1575
l-217 -313h-76l-217 313h160l94 -172l96 172h160z" />
    <glyph glyph-name="rcaron" unicode="&#x159;" horiz-adv-x="587" 
d="M588 551q-56 16 -115 16q-82 0 -156 -67v-500h-204v723h194l10 -76q73 98 183 98q28 0 88 -10v-184zM594 1212l-205 -378h-72l-204 378h161l78 -215l80 215h162z" />
    <glyph glyph-name="Sacute" unicode="&#x15a;" horiz-adv-x="952" 
d="M866 301q0 -155 -119.5 -245.5t-297.5 -90.5q-43 0 -87 6.5t-74.5 14t-68.5 21.5t-54.5 21t-47 22t-31.5 16v215q221 -117 358 -117q95 0 148 39.5t53 91.5q0 38 -31.5 70t-89.5 69l-188 115q-44 28 -70.5 46.5t-62 50.5t-55 63t-34 76t-14.5 96q0 98 53 171.5
t138.5 109.5t189.5 36q152 0 318 -76v-207q-35 18 -77 35t-112.5 35.5t-128.5 18.5q-74 0 -116.5 -37t-42.5 -86q0 -40 32.5 -73t89.5 -67l189 -116q34 -21 57.5 -36.5t60 -47.5t59 -64t39.5 -78.5t17 -97.5zM725 1575l-203 -313h-127l115 313h215z" />
    <glyph glyph-name="sacute" unicode="&#x15b;" horiz-adv-x="657" 
d="M586 205q0 -109 -82 -168.5t-195 -59.5q-33 0 -62.5 3t-57.5 10.5t-42 11.5t-40.5 14t-28.5 11v182q156 -66 227 -66q43 0 66.5 14t23.5 38q0 18 -15.5 33t-57.5 36q-5 2 -32 16t-34.5 18t-32.5 18t-34.5 21t-30 22t-29 25.5t-22.5 27.5t-19.5 32.5t-10.5 35t-5 40.5
q0 106 76.5 165.5t189.5 59.5q112 0 225 -51v-170q-127 58 -215 58q-42 0 -65 -14t-23 -36q0 -19 16 -32.5t54 -32.5q114 -55 150 -80q106 -72 106 -182zM602 1212l-229 -378h-125l145 378h209z" />
    <glyph glyph-name="Scircumflex" unicode="&#x15c;" horiz-adv-x="952" 
d="M866 301q0 -155 -119.5 -245.5t-297.5 -90.5q-43 0 -87 6.5t-74.5 14t-68.5 21.5t-54.5 21t-47 22t-31.5 16v215q221 -117 358 -117q95 0 148 39.5t53 91.5q0 38 -31.5 70t-89.5 69l-188 115q-44 28 -70.5 46.5t-62 50.5t-55 63t-34 76t-14.5 96q0 98 53 171.5
t138.5 109.5t189.5 36q152 0 318 -76v-207q-35 18 -77 35t-112.5 35.5t-128.5 18.5q-74 0 -116.5 -37t-42.5 -86q0 -40 32.5 -73t89.5 -67l189 -116q34 -21 57.5 -36.5t60 -47.5t59 -64t39.5 -78.5t17 -97.5zM727 1262h-119l-129 186l-127 -186h-119l175 315h145z" />
    <glyph glyph-name="scircumflex" unicode="&#x15d;" horiz-adv-x="657" 
d="M586 205q0 -109 -82 -168.5t-195 -59.5q-33 0 -62.5 3t-57.5 10.5t-42 11.5t-40.5 14t-28.5 11v182q156 -66 227 -66q43 0 66.5 14t23.5 38q0 18 -15.5 33t-57.5 36q-5 2 -32 16t-34.5 18t-32.5 18t-34.5 21t-30 22t-29 25.5t-22.5 27.5t-19.5 32.5t-10.5 35t-5 40.5
q0 106 76.5 165.5t189.5 59.5q112 0 225 -51v-170q-127 58 -215 58q-42 0 -65 -14t-23 -36q0 -19 16 -32.5t54 -32.5q114 -55 150 -80q106 -72 106 -182zM575 834h-126l-115 223l-113 -223h-127l172 378h137z" />
    <glyph glyph-name="Scedilla" unicode="&#x15e;" horiz-adv-x="952" 
d="M866 301q0 -143 -103 -231.5t-263 -102.5l-8 -30q55 -6 85.5 -49t30.5 -107q0 -82 -59 -132t-139 -50q-61 0 -99 20v135q24 -18 74 -18q28 0 48 14.5t20 42.5q0 27 -20 43.5t-48 16.5q-26 0 -55 -11l35 129q-48 6 -97 20t-75.5 25t-64.5 29.5t-42 20.5v215
q221 -117 358 -117q95 0 148 39.5t53 91.5q0 38 -31.5 70t-89.5 69l-188 115q-44 28 -70.5 46.5t-62 50.5t-55 63t-34 76t-14.5 96q0 98 53 171.5t138.5 109.5t189.5 36q152 0 318 -76v-207q-35 18 -77 35t-112.5 35.5t-128.5 18.5q-74 0 -116.5 -37t-42.5 -86
q0 -40 32.5 -73t89.5 -67l189 -116q34 -21 57.5 -36.5t60 -47.5t59 -64t39.5 -78.5t17 -97.5z" />
    <glyph glyph-name="scedilla" unicode="&#x15f;" horiz-adv-x="657" 
d="M586 205q0 -93 -60 -149.5t-153 -71.5l-15 -45q54 -6 83.5 -47t29.5 -103q0 -80 -58.5 -129t-136.5 -49q-60 0 -98 20v136q25 -19 74 -19q26 0 44.5 14t18.5 39t-18.5 39.5t-44.5 14.5t-55 -11l36 140q-59 8 -155 43v182q156 -66 227 -66q43 0 66.5 14t23.5 38
q0 18 -15.5 33t-57.5 36q-5 2 -32 16t-34.5 18t-32.5 18t-34.5 21t-30 22t-29 25.5t-22.5 27.5t-19.5 32.5t-10.5 35t-5 40.5q0 106 76.5 165.5t189.5 59.5q112 0 225 -51v-170q-127 58 -215 58q-42 0 -65 -14t-23 -36q0 -19 16 -32.5t54 -32.5q114 -55 150 -80
q106 -72 106 -182z" />
    <glyph glyph-name="Scaron" unicode="&#x160;" horiz-adv-x="952" 
d="M866 301q0 -155 -119.5 -245.5t-297.5 -90.5q-43 0 -87 6.5t-74.5 14t-68.5 21.5t-54.5 21t-47 22t-31.5 16v215q221 -117 358 -117q95 0 148 39.5t53 91.5q0 38 -31.5 70t-89.5 69l-188 115q-44 28 -70.5 46.5t-62 50.5t-55 63t-34 76t-14.5 96q0 98 53 171.5
t138.5 109.5t189.5 36q152 0 318 -76v-207q-35 18 -77 35t-112.5 35.5t-128.5 18.5q-74 0 -116.5 -37t-42.5 -86q0 -40 32.5 -73t89.5 -67l189 -116q34 -21 57.5 -36.5t60 -47.5t59 -64t39.5 -78.5t17 -97.5zM735 1575l-217 -313h-76l-217 313h160l94 -172l96 172h160z" />
    <glyph glyph-name="scaron" unicode="&#x161;" horiz-adv-x="657" 
d="M586 205q0 -109 -82 -168.5t-195 -59.5q-33 0 -62.5 3t-57.5 10.5t-42 11.5t-40.5 14t-28.5 11v182q156 -66 227 -66q43 0 66.5 14t23.5 38q0 18 -15.5 33t-57.5 36q-5 2 -32 16t-34.5 18t-32.5 18t-34.5 21t-30 22t-29 25.5t-22.5 27.5t-19.5 32.5t-10.5 35t-5 40.5
q0 106 76.5 165.5t189.5 59.5q112 0 225 -51v-170q-127 58 -215 58q-42 0 -65 -14t-23 -36q0 -19 16 -32.5t54 -32.5q114 -55 150 -80q106 -72 106 -182zM575 1212l-204 -378h-72l-205 378h162l78 -215l80 215h161z" />
    <glyph glyph-name="Tcommaaccent" unicode="&#x162;" horiz-adv-x="1083" 
d="M1063 971h-410v-971h-45l-18 -63q55 -6 86 -49t31 -107q0 -82 -59.5 -132t-139.5 -50q-60 0 -98 20v135q24 -18 73 -18q28 0 48 14.5t20 42.5q0 27 -20 43.5t-48 16.5q-26 0 -55 -11l41 158h-39v971h-410v192h1043v-192z" />
    <glyph glyph-name="tcommaaccent" unicode="&#x163;" horiz-adv-x="614" 
d="M573 16q-70 -29 -141 -36l-12 -41q54 -6 83 -47t29 -103q0 -80 -58 -129t-136 -49q-60 0 -98 20v136q25 -19 73 -19q26 0 45 14t19 39t-19 39.5t-45 14.5t-55 -11l39 148q-164 54 -164 305v258h-135l35 168h100v285h205v-285h231l-34 -168h-197v-260q0 -75 33 -108
t96 -33q49 0 106 24v-162z" />
    <glyph glyph-name="Tcaron" unicode="&#x164;" horiz-adv-x="1083" 
d="M1063 971h-410v-971h-223v971h-410v192h1043v-192zM797 1575l-217 -313h-76l-217 313h159l95 -172l96 172h160z" />
    <glyph glyph-name="tcaron" unicode="&#x165;" horiz-adv-x="638" 
d="M707 1198l-152 -377h-139l88 377h203zM573 16q-97 -39 -180 -39q-55 0 -100 16t-82 52t-57.5 100t-20.5 152v258h-135l35 168h100v285h205v-285h231l-34 -168h-197v-260q0 -75 33 -108t96 -33q49 0 106 24v-162z" />
    <glyph glyph-name="Tbar" unicode="&#x166;" horiz-adv-x="1083" 
d="M1063 971h-410v-279h326v-145h-326v-547h-223v547h-326v145h326v279h-410v192h1043v-192z" />
    <glyph glyph-name="tbar" unicode="&#x167;" horiz-adv-x="614" 
d="M573 16q-97 -39 -180 -39q-55 0 -100 16t-82 52t-57.5 100t-20.5 152v25h-121l23 133h98v100h-135l35 168h100v285h205v-285h231l-34 -168h-197v-100h170l-23 -133h-147v-27q0 -75 33 -108t96 -33q49 0 106 24v-162z" />
    <glyph glyph-name="Utilde" unicode="&#x168;" horiz-adv-x="1249" 
d="M625 -31q-228 0 -356 117t-128 317v760h221v-727q0 -129 70 -200.5t193 -71.5t192.5 71.5t69.5 200.5v727h221v-760q0 -200 -127.5 -317t-355.5 -117zM926 1509q-6 -86 -55.5 -143t-129.5 -57q-52 0 -115 31.5t-89 31.5q-59 0 -64 -61h-147q6 88 52 144t132 56
q47 0 114 -31.5t97 -31.5q24 0 40.5 16t16.5 45h148z" />
    <glyph glyph-name="utilde" unicode="&#x169;" horiz-adv-x="903" 
d="M791 0h-189l-12 47q-14 -12 -34.5 -25t-73.5 -29t-113 -16q-109 0 -182.5 78.5t-73.5 231.5v436h204v-442q0 -62 33.5 -94.5t89.5 -32.5q65 0 146 61v508h205v-723zM743 1081q-6 -90 -53 -149.5t-125 -59.5q-39 0 -75 20t-65 40t-52 20q-52 0 -58 -69h-147
q7 92 50.5 150.5t127.5 58.5q45 0 108 -40t91 -40q21 0 36 18.5t15 50.5h147z" />
    <glyph glyph-name="Umacron" unicode="&#x16a;" horiz-adv-x="1249" 
d="M625 -31q-228 0 -356 117t-128 317v760h221v-727q0 -129 70 -200.5t193 -71.5t192.5 71.5t69.5 200.5v727h221v-760q0 -200 -127.5 -317t-355.5 -117zM926 1335h-600v144h600v-144z" />
    <glyph glyph-name="umacron" unicode="&#x16b;" horiz-adv-x="903" 
d="M791 0h-189l-12 47q-14 -12 -34.5 -25t-73.5 -29t-113 -16q-109 0 -182.5 78.5t-73.5 231.5v436h204v-442q0 -62 33.5 -94.5t89.5 -32.5q65 0 146 61v508h205v-723zM719 907h-529v148h529v-148z" />
    <glyph glyph-name="Ubreve" unicode="&#x16c;" horiz-adv-x="1249" 
d="M625 -31q-228 0 -356 117t-128 317v760h221v-727q0 -129 70 -200.5t193 -71.5t192.5 71.5t69.5 200.5v727h221v-760q0 -200 -127.5 -317t-355.5 -117zM899 1556q0 -123 -80.5 -199.5t-191.5 -76.5q-112 0 -193.5 76.5t-81.5 199.5h144q0 -65 37.5 -106t91.5 -41
q55 0 93 41t38 106h143z" />
    <glyph glyph-name="ubreve" unicode="&#x16d;" horiz-adv-x="903" 
d="M791 0h-189l-12 47q-14 -12 -34.5 -25t-73.5 -29t-113 -16q-109 0 -182.5 78.5t-73.5 231.5v436h204v-442q0 -62 33.5 -94.5t89.5 -32.5q65 0 146 61v508h205v-723zM721 1141q0 -128 -79.5 -208.5t-188.5 -80.5q-110 0 -190.5 80.5t-80.5 206.5v2h127q0 -64 42 -105
t100 -41q59 0 101 41t42 105h127z" />
    <glyph glyph-name="Uring" unicode="&#x16e;" horiz-adv-x="1249" 
d="M625 -31q-228 0 -356 117t-128 317v760h221v-727q0 -129 70 -200.5t193 -71.5t192.5 71.5t69.5 200.5v727h221v-760q0 -200 -127.5 -317t-355.5 -117zM821 1448q0 -75 -57 -128.5t-137 -53.5q-82 0 -139.5 52.5t-57.5 127.5q0 76 57.5 130t139.5 54q80 0 137 -53.5
t57 -128.5zM713 1448q0 35 -25 58.5t-61 23.5t-61 -23.5t-25 -58.5t25 -58.5t61 -23.5t61 23.5t25 58.5z" />
    <glyph glyph-name="uring" unicode="&#x16f;" horiz-adv-x="903" 
d="M791 0h-189l-12 47q-14 -12 -34.5 -25t-73.5 -29t-113 -16q-109 0 -182.5 78.5t-73.5 231.5v436h204v-442q0 -62 33.5 -94.5t89.5 -32.5q65 0 146 61v508h205v-723zM645 1020q0 -77 -56.5 -131.5t-135.5 -54.5q-82 0 -138.5 53.5t-56.5 130.5q0 78 56.5 133t138.5 55
q79 0 135.5 -54.5t56.5 -131.5zM537 1020q0 37 -24.5 61.5t-59.5 24.5t-59.5 -24.5t-24.5 -61.5t24.5 -61.5t59.5 -24.5t59.5 24.5t24.5 61.5z" />
    <glyph glyph-name="Uhungarumlaut" unicode="&#x170;" horiz-adv-x="1249" 
d="M625 -31q-228 0 -356 117t-128 317v760h221v-727q0 -129 70 -200.5t193 -71.5t192.5 71.5t69.5 200.5v727h221v-760q0 -200 -127.5 -317t-355.5 -117zM750 1575l-228 -313h-119l150 313h197zM1020 1575l-227 -313h-119l149 313h197z" />
    <glyph glyph-name="uhungarumlaut" unicode="&#x171;" horiz-adv-x="903" 
d="M791 0h-189l-12 47q-14 -12 -34.5 -25t-73.5 -29t-113 -16q-109 0 -182.5 78.5t-73.5 231.5v436h204v-442q0 -62 33.5 -94.5t89.5 -32.5q65 0 146 61v508h205v-723zM598 1212l-240 -378h-114l151 378h203zM864 1212l-239 -378h-115l152 378h202z" />
    <glyph glyph-name="Uogonek" unicode="&#x172;" horiz-adv-x="1249" 
d="M780 -244v-147q-44 -27 -110 -27q-98 0 -156.5 56t-58.5 151q0 103 80 186q-188 22 -291 135t-103 293v760h221v-727q0 -129 70 -200.5t193 -71.5t192.5 71.5t69.5 200.5v727h221v-760q0 -165 -88 -275t-250 -144q-63 -20 -102 -68t-39 -100q0 -37 22 -56.5t56 -19.5
q37 0 73 16z" />
    <glyph glyph-name="uogonek" unicode="&#x173;" horiz-adv-x="903" 
d="M801 -209v-147q-44 -27 -105 -27q-92 0 -148 56.5t-56 144.5q0 58 28 109t78 85l-8 35q-14 -12 -34.5 -25t-73.5 -29t-113 -16q-109 0 -182.5 78.5t-73.5 231.5v436h204v-442q0 -62 33.5 -94.5t89.5 -32.5q65 0 146 61v508h205v-723q-60 -20 -94.5 -61t-34.5 -91
q0 -33 20.5 -53t50.5 -20q44 0 68 16z" />
    <glyph glyph-name="Ydieresis" unicode="&#x178;" horiz-adv-x="1019" 
d="M510 674l248 489h246l-383 -702v-461h-222v463l-383 700h246zM817 1432l-135 -134l-133 134l133 135zM469 1432l-133 -134l-135 134l135 135z" />
    <glyph glyph-name="Zacute" unicode="&#x179;" horiz-adv-x="1107" 
d="M1067 0h-1026v111l690 866h-661v184h983v-112l-688 -861h702v-188zM795 1575l-203 -313h-127l115 313h215z" />
    <glyph glyph-name="zacute" unicode="&#x17a;" horiz-adv-x="686" 
d="M635 162v-162h-584v94l318 467h-310v160h568v-92l-316 -467h324zM600 1212l-229 -378h-125l145 378h209z" />
    <glyph glyph-name="Zdotaccent" unicode="&#x17b;" horiz-adv-x="1107" 
d="M1067 0h-1026v111l690 866h-661v184h983v-112l-688 -861h702v-188zM684 1432l-133 -134l-135 134l133 135z" />
    <glyph glyph-name="zdotaccent" unicode="&#x17c;" horiz-adv-x="686" 
d="M635 162v-162h-584v94l318 467h-310v160h568v-92l-316 -467h324zM469 1004l-133 -134l-135 134l133 135z" />
    <glyph glyph-name="Zcaron" unicode="&#x17d;" horiz-adv-x="1107" 
d="M1067 0h-1026v111l690 866h-661v184h983v-112l-688 -861h702v-188zM805 1575l-217 -313h-76l-217 313h160l94 -172l96 172h160z" />
    <glyph glyph-name="zcaron" unicode="&#x17e;" horiz-adv-x="686" 
d="M635 162v-162h-584v94l318 467h-310v160h568v-92l-316 -467h324zM588 1212l-205 -378h-72l-205 378h162l78 -215l80 215h162z" />
    <glyph glyph-name="florin" unicode="&#x192;" horiz-adv-x="948" 
d="M989 1065l-115 -115l-6 6q-6 7 -9 9.5t-10.5 9.5t-13.5 11l-15 10t-17.5 9.5t-18.5 7.5t-21 5.5t-22 1.5q-50 0 -85.5 -33t-45.5 -96l-30 -168h196v-170h-227l-107 -596q-35 -188 -148 -283.5t-255 -95.5q-189 0 -330 141l129 129q22 -25 79 -56.5t110 -31.5
q68 0 129.5 48.5t81.5 156.5l104 588h-156v170h187l37 190q19 101 68.5 167t110.5 92t134 26q36 0 70 -8t56 -16.5t48.5 -27.5t36.5 -27.5t31.5 -30z" />
    <glyph glyph-name="AEacute" unicode="&#x1fc;" horiz-adv-x="1544" 
d="M1458 0h-729v328h-305l-170 -328h-254l655 1163h777v-194h-482v-305h361v-193h-361v-276h508v-195zM729 498v415l-217 -415h217zM1038 1575l-202 -313h-127l114 313h215z" />
    <glyph glyph-name="aeacute" unicode="&#x1fd;" horiz-adv-x="1261" 
d="M328 -20q-111 0 -183.5 51t-72.5 157q0 194 260 258l160 39q-5 37 -38 60.5t-87 23.5q-74 0 -139.5 -27.5t-108.5 -72.5v178q42 46 110 72t150 26q147 0 233 -100q104 100 232 100q140 0 230.5 -96t90.5 -246v-96h-489q18 -70 77 -118t144 -48q37 0 73 5t67 14t50.5 15.5
t43 17t24.5 10.5v-162q-1 0 -17 -8.5t-27 -13.5t-37 -14t-51 -14.5t-63.5 -9.5t-80.5 -4q-81 0 -157.5 32t-133.5 89q-35 -51 -102.5 -84.5t-157.5 -33.5zM891 1212l-229 -378h-125l145 378h209zM514 209q-20 50 -20 113v34l-123 -32q-103 -26 -103 -107q0 -38 25.5 -60
t71.5 -22q75 0 149 74zM981 436q0 57 -37.5 103.5t-99.5 46.5q-64 0 -107.5 -43t-54.5 -107h299z" />
    <glyph glyph-name="Scommaaccent" unicode="&#x218;" horiz-adv-x="952" 
d="M866 301q0 -155 -119.5 -245.5t-297.5 -90.5q-43 0 -87 6.5t-74.5 14t-68.5 21.5t-54.5 21t-47 22t-31.5 16v215q221 -117 358 -117q95 0 148 39.5t53 91.5q0 38 -31.5 70t-89.5 69l-188 115q-44 28 -70.5 46.5t-62 50.5t-55 63t-34 76t-14.5 96q0 98 53 171.5
t138.5 109.5t189.5 36q152 0 318 -76v-207q-35 18 -77 35t-112.5 35.5t-128.5 18.5q-74 0 -116.5 -37t-42.5 -86q0 -40 32.5 -73t89.5 -67l189 -116q34 -21 57.5 -36.5t60 -47.5t59 -64t39.5 -78.5t17 -97.5zM346 -100h199q-10 -84 -60.5 -180.5t-109.5 -155.5h-105
q76 176 76 336z" />
    <glyph glyph-name="scommaaccent" unicode="&#x219;" horiz-adv-x="657" 
d="M586 205q0 -109 -82 -168.5t-195 -59.5q-33 0 -62.5 3t-57.5 10.5t-42 11.5t-40.5 14t-28.5 11v182q156 -66 227 -66q43 0 66.5 14t23.5 38q0 18 -15.5 33t-57.5 36q-5 2 -32 16t-34.5 18t-32.5 18t-34.5 21t-30 22t-29 25.5t-22.5 27.5t-19.5 32.5t-10.5 35t-5 40.5
q0 106 76.5 165.5t189.5 59.5q112 0 225 -51v-170q-127 58 -215 58q-42 0 -65 -14t-23 -36q0 -19 16 -32.5t54 -32.5q114 -55 150 -80q106 -72 106 -182zM219 -80h199q-10 -84 -60.5 -180.5t-109.5 -155.5h-105q76 176 76 336z" />
    <glyph glyph-name="uni021A" unicode="&#x21a;" horiz-adv-x="1083" 
d="M1063 971h-410v-971h-223v971h-410v192h1043v-192zM440 -100h199q-10 -84 -60.5 -180.5t-109.5 -155.5h-104q75 173 75 336z" />
    <glyph glyph-name="uni021B" unicode="&#x21b;" horiz-adv-x="614" 
d="M573 16q-97 -39 -180 -39q-55 0 -100 16t-82 52t-57.5 100t-20.5 152v258h-135l35 168h100v285h205v-285h231l-34 -168h-197v-260q0 -75 33 -108t96 -33q49 0 106 24v-162zM279 -80h198q-10 -84 -60.5 -180.5t-109.5 -155.5h-104q76 176 76 336z" />
    <glyph glyph-name="circumflex" unicode="&#x2c6;" horiz-adv-x="681" 
d="M582 834h-127l-115 223l-113 -223h-127l172 378h138z" />
    <glyph glyph-name="caron" unicode="&#x2c7;" horiz-adv-x="681" 
d="M582 1212l-205 -378h-72l-205 378h162l78 -215l80 215h162z" />
    <glyph glyph-name="breve" unicode="&#x2d8;" horiz-adv-x="681" 
d="M610 1141q0 -128 -79.5 -208.5t-188.5 -80.5q-110 0 -190 80.5t-80 206.5v2h127q0 -64 42 -105t99 -41q59 0 101 41t42 105h127z" />
    <glyph glyph-name="dotaccent" unicode="&#x2d9;" horiz-adv-x="681" 
d="M475 1004l-133 -134l-135 134l133 135z" />
    <glyph glyph-name="ring" unicode="&#x2da;" horiz-adv-x="681" 
d="M535 1020q0 -77 -57 -131.5t-136 -54.5q-82 0 -138.5 53.5t-56.5 130.5q0 78 56.5 133t138.5 55q79 0 136 -54.5t57 -131.5zM426 1020q0 37 -24.5 61.5t-59.5 24.5t-59.5 -24.5t-24.5 -61.5t24.5 -61.5t59.5 -24.5t59.5 24.5t24.5 61.5z" />
    <glyph glyph-name="ogonek" unicode="&#x2db;" horiz-adv-x="681" 
d="M496 -209v-147q-44 -27 -105 -27q-92 0 -148.5 56.5t-56.5 144.5q0 73 46 135.5t120 91.5l133 -45q-60 -20 -94.5 -61t-34.5 -91q0 -33 21 -53t51 -20q44 0 68 16z" />
    <glyph glyph-name="tilde" unicode="&#x2dc;" horiz-adv-x="681" 
d="M629 1081q-6 -90 -53 -149.5t-125 -59.5q-39 0 -75.5 20t-65.5 40t-52 20q-51 0 -57 -69h-148q7 92 50.5 150.5t127.5 58.5q45 0 108 -40t91 -40q21 0 36 18.5t15 50.5h148z" />
    <glyph glyph-name="hungarumlaut" unicode="&#x2dd;" horiz-adv-x="681" 
d="M385 1212l-240 -378h-114l151 378h203zM651 1212l-239 -378h-115l152 378h202z" />
    <glyph glyph-name="endash" unicode="&#x2013;" horiz-adv-x="778" 
d="M778 356h-778v140h778v-140z" />
    <glyph glyph-name="emdash" unicode="&#x2014;" horiz-adv-x="1556" 
d="M1556 356h-1556v140h1556v-140z" />
    <glyph glyph-name="quoteleft" unicode="&#x2018;" horiz-adv-x="507" 
d="M412 748l-146 -148l-45 37q-129 111 -129 248q0 75 30 138.5t67.5 99t89.5 64.5t76 37.5t48 14.5v-41q-21 -14 -40.5 -31.5t-42 -45.5t-36.5 -67.5t-14 -84.5q0 -31 14.5 -65t35.5 -61t42 -49t36 -34z" />
    <glyph glyph-name="quoteright" unicode="&#x2019;" horiz-adv-x="507" 
d="M416 954q0 -55 -16 -103.5t-39 -82t-56.5 -63t-61.5 -46.5t-61.5 -31.5t-48 -19t-29.5 -8.5v41q21 14 40.5 31.5t42.5 45.5t37 67.5t14 84.5q0 49 -35.5 104.5t-70.5 86.5l-36 31l146 147l45 -37q129 -111 129 -248z" />
    <glyph glyph-name="quotesinglbase" unicode="&#x201a;" horiz-adv-x="512" 
d="M416 0q0 -55 -16 -103.5t-39 -82t-56.5 -63t-61.5 -46.5t-61.5 -31.5t-48 -19t-29.5 -8.5v41q21 14 40.5 31.5t42.5 45.5t37 67.5t14 84.5q0 31 -14.5 65t-35.5 61t-42 49t-36 34l-14 12l146 148l45 -37q129 -111 129 -248z" />
    <glyph glyph-name="quotedblleft" unicode="&#x201c;" horiz-adv-x="907" 
d="M811 748l-145 -148l-45 37q-129 111 -129 248q0 75 30 138.5t67.5 99t89.5 64.5t76 37.5t48 14.5v-41q-21 -14 -40.5 -31.5t-42 -45.5t-36.5 -67.5t-14 -84.5q0 -31 14.5 -65t35 -61t41.5 -49t35 -34zM412 748l-146 -148l-45 37q-129 111 -129 248q0 75 30 138.5t67.5 99
t89.5 64.5t76 37.5t48 14.5v-41q-21 -14 -40.5 -31.5t-42 -45.5t-36.5 -67.5t-14 -84.5q0 -31 14.5 -65t35.5 -61t42 -49t36 -34z" />
    <glyph glyph-name="quotedblright" unicode="&#x201d;" horiz-adv-x="907" 
d="M815 954q0 -75 -30 -138.5t-67.5 -99t-89.5 -64.5t-76 -37.5t-48 -14.5v41q21 14 40.5 31.5t42 45.5t36.5 67.5t14 84.5q0 49 -35.5 104.5t-70.5 86.5l-35 31l145 147l45 -37q129 -111 129 -248zM416 954q0 -55 -16 -103.5t-39 -82t-56.5 -63t-61.5 -46.5t-61.5 -31.5
t-48 -19t-29.5 -8.5v41q21 14 40.5 31.5t42.5 45.5t37 67.5t14 84.5q0 49 -35.5 104.5t-70.5 86.5l-36 31l146 147l45 -37q129 -111 129 -248z" />
    <glyph glyph-name="quotedblbase" unicode="&#x201e;" horiz-adv-x="907" 
d="M815 0q0 -75 -30 -138.5t-67.5 -99t-89.5 -64.5t-76 -37.5t-48 -14.5v41q21 14 40.5 31.5t42 45.5t36.5 67.5t14 84.5q0 49 -35.5 104.5t-70.5 85.5l-35 31l145 148l45 -37q129 -111 129 -248zM416 0q0 -55 -16 -103.5t-39 -82t-56.5 -63t-61.5 -46.5t-61.5 -31.5
t-48 -19t-29.5 -8.5v41q21 14 40.5 31.5t42.5 45.5t37 67.5t14 84.5q0 31 -14.5 65t-35.5 61t-42 49t-36 34l-14 12l146 148l45 -37q129 -111 129 -248z" />
    <glyph glyph-name="dagger" unicode="&#x2020;" horiz-adv-x="784" 
d="M682 569h-195l-26 -999h-137l-27 999h-195v215h187l-15 379h236l-14 -379h186v-215z" />
    <glyph glyph-name="daggerdbl" unicode="&#x2021;" horiz-adv-x="784" 
d="M682 -51h-188l14 -379h-232l15 379h-189v215h195l8 203l-8 202h-195v215h189l-15 379h232l-14 -379h188v-215h-195l-8 -202l8 -203h195v-215z" />
    <glyph glyph-name="bullet" unicode="&#x2022;" horiz-adv-x="772" 
d="M670 586l-283 -285l-285 285l285 284z" />
    <glyph glyph-name="ellipsis" unicode="&#x2026;" horiz-adv-x="1536" 
d="M1440 125l-160 -160l-160 160l160 160zM928 125l-160 -160l-160 160l160 160zM416 125l-160 -160l-160 160l160 160z" />
    <glyph glyph-name="perthousand" unicode="&#x2030;" horiz-adv-x="1759" 
d="M1698 209q0 -97 -72.5 -165.5t-177.5 -68.5q-104 0 -176 68.5t-72 165.5q0 100 72 168.5t176 68.5q106 0 178 -68.5t72 -168.5zM557 963q0 -99 -71.5 -167.5t-176.5 -68.5q-104 0 -176 69t-72 167q0 99 71.5 167t176.5 68t176.5 -68t71.5 -167zM891 1198l-524 -1233h-95
l523 1233h96zM1100 209q0 -97 -71.5 -165.5t-176.5 -68.5q-104 0 -176 68.5t-72 165.5q0 100 71.5 168.5t176.5 68.5t176.5 -68.5t71.5 -168.5zM1565 209q0 48 -32.5 79t-84.5 31q-51 0 -83 -31t-32 -79q0 -45 32.5 -76t82.5 -31q52 0 84.5 31t32.5 76zM426 963q0 46 -33 77
t-84 31q-50 0 -82 -31t-32 -77q0 -45 32 -77t82 -32t83.5 32t33.5 77zM969 209q0 47 -33 78.5t-84 31.5t-83 -31t-32 -79q0 -45 32.5 -76t82.5 -31t83.5 31t33.5 76z" />
    <glyph glyph-name="guilsinglleft" unicode="&#x2039;" horiz-adv-x="546" 
d="M465 885l-238 -361l238 -358h-158l-246 356l248 363h156z" />
    <glyph glyph-name="guilsinglright" unicode="&#x203a;" horiz-adv-x="546" 
d="M485 524l-247 -358h-156l237 358l-237 361h156z" />
    <glyph glyph-name="fraction" unicode="&#x2044;" horiz-adv-x="118" 
d="M526 1186l-852 -1202h-82l852 1202h82z" />
    <glyph glyph-name="zerosuperior" unicode="&#x2070;" horiz-adv-x="677" 
d="M580 1161q0 -60 -14.5 -118t-42.5 -107.5t-75.5 -80t-107.5 -30.5t-108 30.5t-76.5 80t-43 107.5t-14.5 118t14.5 118t43 108t76.5 81t108 31t107.5 -31t75.5 -81t42.5 -108t14.5 -118zM438 1161q0 91 -30 149t-68 58q-39 0 -69.5 -58t-30.5 -149t30.5 -149t69.5 -58
q38 0 68 58t30 149z" />
    <glyph glyph-name="foursuperior" unicode="&#x2074;" horiz-adv-x="614" 
d="M561 995h-88v-151h-141v151h-271l-24 62l317 424h119v-361h88v-125zM332 1120v174l-33 -51l-94 -123h127z" />
    <glyph glyph-name="fivesuperior" unicode="&#x2075;" horiz-adv-x="634" 
d="M537 1053q0 -95 -74 -161.5t-180 -66.5q-117 0 -224 80l82 103q24 -19 40 -30t41 -20.5t50 -9.5q50 0 80.5 32t30.5 73t-30.5 72.5t-80.5 31.5q-42 0 -86 -29l-65 17l26 336h365v-127h-248l-6 -78q24 4 37 4q103 0 172.5 -66t69.5 -161z" />
    <glyph glyph-name="sixsuperior" unicode="&#x2076;" horiz-adv-x="686" 
d="M588 1382q-197 -28 -279 -120q4 0 13 1t14 1q96 0 171 -61t75 -161q0 -90 -70.5 -153.5t-165.5 -63.5q-118 0 -183 76.5t-65 179.5q0 169 139 284t351 130v-113zM442 1042q0 43 -31.5 75t-84.5 32q-46 0 -82 -16q-6 -15 -6 -50q0 -62 28.5 -98.5t81.5 -36.5q40 0 67 28.5
t27 65.5z" />
    <glyph glyph-name="sevensuperior" unicode="&#x2077;" horiz-adv-x="561" 
d="M516 1430l-266 -586h-154l246 512h-283v125h424z" />
    <glyph glyph-name="eightsuperior" unicode="&#x2078;" horiz-adv-x="638" 
d="M541 1016q0 -82 -65 -136.5t-157 -54.5t-156.5 54t-64.5 135q0 97 101 164q-90 60 -90 149q0 75 61 123.5t149 48.5q87 0 149 -48.5t62 -123.5q0 -85 -90 -145q101 -70 101 -166zM391 1321q0 21 -19 38t-53 17q-35 0 -54 -17t-19 -38q0 -43 76 -82q69 40 69 82zM399 1022
q0 14 -12 35q-23 38 -72 65q-77 -52 -77 -100q0 -30 22.5 -51.5t58.5 -22.5q35 -1 57.5 21t22.5 53z" />
    <glyph glyph-name="ninesuperior" unicode="&#x2079;" horiz-adv-x="686" 
d="M588 1243q0 -169 -138 -283.5t-352 -132.5v115q193 27 279 119h-25q-96 0 -169.5 60t-73.5 161q0 90 68.5 153.5t164.5 63.5q118 0 182 -76.5t64 -179.5zM451 1241q0 62 -29.5 98.5t-83.5 36.5q-39 0 -66.5 -29t-27.5 -65q0 -42 32 -74t84 -32t84 14q7 42 7 51z" />
    <glyph glyph-name="zeroinferior" unicode="&#x2080;" horiz-adv-x="677" 
d="M580 0q0 -60 -14.5 -118t-42.5 -107.5t-75.5 -80t-107.5 -30.5t-108 30.5t-76.5 80t-43 107.5t-14.5 118t14.5 118t43 108t76.5 81t108 31t107.5 -31t75.5 -81t42.5 -108t14.5 -118zM438 0q0 91 -30 149t-68 58q-39 0 -69.5 -58t-30.5 -149t30.5 -149t69.5 -58
q38 0 68 58t30 149z" />
    <glyph glyph-name="oneinferior" unicode="&#x2081;" horiz-adv-x="419" 
d="M283 -317h-146v622l146 43v-665z" />
    <glyph glyph-name="twoinferior" unicode="&#x2082;" horiz-adv-x="645" 
d="M547 -317h-453v65l211 223q94 97 94 160q0 38 -23 60t-63 22t-66 -27t-30 -84h-135q6 110 72 174t161 64q98 0 163 -58t65 -151q0 -98 -123 -231q-6 -7 -22.5 -23.5t-38.5 -37.5t-33 -32h221v-124z" />
    <glyph glyph-name="threeinferior" unicode="&#x2083;" horiz-adv-x="608" 
d="M510 -111q0 -99 -71 -162t-169 -63q-125 0 -211 86l84 98l9 -8q9 -8 14 -12.5t17.5 -12.5t23 -12.5t26 -8t31.5 -3.5q41 0 71 26t30 70q0 40 -27.5 62t-69.5 22q-25 0 -65 -20l-62 80q75 40 121.5 75.5t73.5 83.5h-244v129h406v-71q-5 -27 -15 -52.5t-26.5 -48t-27 -35.5
t-29 -31.5l-19.5 -19.5q129 -52 129 -172z" />
    <glyph glyph-name="fourinferior" unicode="&#x2084;" horiz-adv-x="614" 
d="M561 -166h-88v-151h-141v151h-271l-24 62l317 423h119v-360h88v-125zM332 -41v174l-33 -51l-94 -123h127z" />
    <glyph glyph-name="fiveinferior" unicode="&#x2085;" horiz-adv-x="634" 
d="M537 -109q0 -95 -74 -161t-180 -66q-117 0 -224 80l82 102q74 -59 131 -59q50 0 80.5 31.5t30.5 72.5t-30.5 73t-80.5 32q-42 0 -86 -29l-65 17l26 335h365v-126h-248l-6 -78q24 4 37 4q103 0 172.5 -66.5t69.5 -161.5z" />
    <glyph glyph-name="sixinferior" unicode="&#x2086;" horiz-adv-x="686" 
d="M588 221q-196 -28 -279 -121q4 0 13 1t14 1q96 0 171 -60.5t75 -160.5q0 -90 -70.5 -153.5t-165.5 -63.5q-118 0 -183 76.5t-65 179.5q0 169 139 284t351 130v-113zM442 -119q0 43 -31.5 75t-84.5 32q-44 0 -82 -17q-6 -15 -6 -49q0 -62 28.5 -98.5t81.5 -36.5
q40 0 67 28.5t27 65.5z" />
    <glyph glyph-name="seveninferior" unicode="&#x2087;" horiz-adv-x="561" 
d="M516 268l-266 -585h-154l246 512h-283v124h424z" />
    <glyph glyph-name="eightinferior" unicode="&#x2088;" horiz-adv-x="638" 
d="M541 -145q0 -82 -65 -136.5t-157 -54.5t-156.5 54t-64.5 135q0 96 101 163q-90 60 -90 150q0 75 61 123.5t149 48.5q87 0 149 -48.5t62 -123.5q0 -86 -90 -146q101 -70 101 -165zM391 160q0 21 -19 38t-53 17q-35 0 -54 -17t-19 -38q0 -43 76 -82q69 40 69 82zM399 -139
q0 14 -12 35q-23 38 -72 65q-77 -52 -77 -100q0 -30 22.5 -51.5t58.5 -22.5q35 -1 57.5 21t22.5 53z" />
    <glyph glyph-name="nineinferior" unicode="&#x2089;" horiz-adv-x="686" 
d="M588 82q0 -169 -138 -283.5t-352 -132.5v115q193 27 279 119h-25q-96 0 -169.5 60t-73.5 161q0 90 68.5 153.5t164.5 63.5q118 0 182 -76.5t64 -179.5zM451 80q0 62 -29.5 98.5t-83.5 36.5q-39 0 -66.5 -29t-27.5 -65q0 -42 32 -74.5t84 -32.5q50 0 84 15q7 42 7 51z" />
    <glyph glyph-name="Euro" unicode="&#x20ac;" horiz-adv-x="1312" 
d="M1231 1114l-49 -199q-2 1 -20.5 9t-30.5 13t-36.5 14t-44.5 15.5t-48.5 14t-54.5 12t-56.5 8t-59.5 3.5q-130 0 -238.5 -63t-164.5 -171h717l-27 -108h-727q-8 -36 -8 -80q0 -22 4 -58h696l-26 -108h-641q51 -116 157.5 -185t235.5 -69q190 0 405 100v-215q-1 -1 -16 -7
t-24.5 -10t-30 -11.5t-38.5 -12.5t-44 -12t-53 -11.5t-58 -9t-66.5 -6.5t-72.5 -2q-229 0 -408 124t-237 327h-105v108h84q0 9 -1 28t-1 28q0 35 7 82h-89v108h113q64 192 238.5 310t386.5 118q40 0 81 -3t73 -7.5t67.5 -11.5t58.5 -13t52 -15t42 -13.5t34.5 -12t23.5 -8.5z
" />
    <glyph glyph-name="trademark" unicode="&#x2122;" horiz-adv-x="1697" 
d="M1636 408h-174v346l-172 -346h-82l-174 346v-346h-174v755h154l235 -473l236 473h151v-755zM752 1014h-252v-606h-185v606h-254v149h691v-149z" />
    <glyph glyph-name="minus" unicode="&#x2212;" horiz-adv-x="1054" 
d="M952 453h-850v139h850v-139z" />
    <glyph glyph-name="s_t" unicode="&#xfb06;" horiz-adv-x="1257" 
d="M1217 16q-92 -39 -181 -39q-55 0 -100 16t-82 52t-57.5 100t-20.5 152v258h-135l35 168h100v108q0 69 -48 117.5t-116 48.5q-69 0 -117.5 -49t-48.5 -117q0 -64 36.5 -104t101.5 -68l-31 -131q-124 54 -205 54q-42 0 -65 -14t-23 -36q0 -34 70 -65q44 -21 69 -33.5
t59.5 -32.5t53.5 -38t38 -42.5t27.5 -53t8.5 -62.5q0 -109 -82 -168.5t-195 -59.5q-33 0 -62.5 3t-57.5 10.5t-42 11.5t-40.5 14t-28.5 11v182q156 -66 227 -66q43 0 66.5 14t23.5 38q0 18 -16.5 33.5t-56.5 35.5q-41 20 -59 29.5t-55 30.5t-55 38t-40 42t-31.5 54t-9.5 62
q0 100 69 159.5t174 65.5q-16 41 -16 101q0 140 102 238t244 98t240 -101.5t98 -244.5l-2 -113h231l-34 -168h-197v-260q0 -75 33.5 -108t97.5 -33q44 0 105 26v-164z" />
    <glyph glyph-name="CR" horiz-adv-x="368" 
 />
    <glyph glyph-name="apple" horiz-adv-x="860" 
d="M399 584l-133 -133l-133 133l133 133zM727 584l-133 -133l-133 133l133 133zM563 420l-133 -133l-133 133l133 133zM563 748l-133 -134l-133 134l133 133z" />
    <glyph glyph-name="c_t" horiz-adv-x="1394" 
d="M1354 16q-97 -39 -180 -39q-116 0 -188.5 75t-72.5 245v258h-135l35 168h100v108q0 69 -48 117.5t-117 48.5t-117.5 -49t-48.5 -117q0 -64 36 -104t101 -68l-31 -143q-92 49 -188 49q-106 0 -170 -57.5t-64 -147.5q0 -88 64.5 -144t169.5 -56q89 0 227 67v-178
q-2 -1 -17.5 -9.5t-25 -13t-29.5 -13t-38.5 -14t-42.5 -11t-52 -8.5t-57 -3q-171 0 -287.5 108t-116.5 273q0 162 111.5 271t280.5 114q-17 47 -17 103q0 140 101.5 238t242.5 98q142 0 240 -101.5t98 -244.5v-113h232l-35 -168h-197v-260q0 -75 33 -108t96 -33q46 0 107 26
v-164z" />
    <glyph glyph-name="f_b" horiz-adv-x="1515" 
d="M1249 360q0 88 -61.5 149.5t-151.5 61.5q-82 0 -143 -55v-311q63 -53 143 -53q91 0 152 60t61 148zM688 950q-21 24 -69 50t-101 26q-79 0 -132.5 -58.5t-53.5 -156.5v-88h235l-35 -168h-200v-555h-205v555h-129l35 168h94v90q0 121 58 210.5t145 132t188 42.5
q76 0 156 -32.5t129 -67.5t90 -74v-336q85 57 192 57q152 0 260.5 -112.5t108.5 -272.5q0 -158 -108.5 -270.5t-260.5 -112.5q-121 0 -215 72l-12 -49h-170v950z" />
    <glyph glyph-name="f_f_b" horiz-adv-x="2103" 
d="M1837 360q0 88 -61.5 149.5t-151.5 61.5q-82 0 -143 -55v-311q63 -53 143 -53q91 0 152 60t61 148zM723 918q-97 108 -205 108q-79 0 -132.5 -58.5t-53.5 -156.5v-88h379v90q0 59 12 105zM1276 952q-29 26 -73.5 50t-94.5 24q-80 0 -136.5 -58.5t-56.5 -156.5v-88h236
l-35 -168h-201v-555h-204v555h-379v-555h-205v555h-129l35 168h94v90q0 121 58 210.5t145 132t188 42.5q153 0 293 -121q56 59 133.5 90t161.5 31q61 0 123 -19t111.5 -50t82 -55.5t58.5 -49.5v-336q85 57 192 57q152 0 260.5 -112.5t108.5 -272.5q0 -158 -108.5 -270.5
t-260.5 -112.5q-121 0 -215 72l-12 -49h-170v952z" />
    <glyph glyph-name="f_f_h" horiz-adv-x="2086" 
d="M723 918q-97 108 -205 108q-79 0 -132.5 -58.5t-53.5 -156.5v-88h379v90q0 59 12 105zM1481 659q93 86 227 86q120 0 193 -77t73 -222v-446h-205v442q0 63 -33 95t-89 32q-45 0 -94 -28.5t-72 -51.5v-489h-205v952q-29 26 -73.5 50t-94.5 24q-81 0 -137 -58.5t-56 -156.5
v-88h236l-35 -168h-201v-555h-204v555h-379v-555h-205v555h-129l35 168h94v90q0 121 58 210.5t145 132t188 42.5q153 0 293 -121q56 59 133.5 90t161.5 31q61 0 123 -19t111.5 -50t82 -55.5t58.5 -49.5v-365z" />
    <glyph glyph-name="f_f_t" horiz-adv-x="1763" 
d="M723 918q-97 108 -205 108q-79 0 -132.5 -58.5t-53.5 -156.5v-88h379v90q0 59 12 105zM1485 723h233l-35 -168h-196v-252q0 -75 33 -108t96 -33q41 0 106 26v-172q-98 -39 -182 -39q-54 0 -99.5 16.5t-83.5 51.5t-59.5 99.5t-21.5 152.5v256h-361v-553h-204v553h-379
v-553h-205v553h-129l35 170h94v90q0 121 58 210.5t145 132t188 42.5q153 0 293 -121q56 59 133.5 90t161.5 31q61 0 123.5 -19.5t113 -51t83.5 -57t59 -50.5v-297zM1276 723v229q-29 26 -73.5 50t-94.5 24q-80 0 -136.5 -58.5t-56.5 -156.5v-88h361z" />
    <glyph glyph-name="f_f_y" horiz-adv-x="1882" 
d="M713 928q-91 98 -195 98q-76 0 -131 -56t-55 -153v-94h379v147q0 42 2 58zM1346 723l161 -492l162 492h203l-273 -723l-167 -465h-197l170 465l-201 555h-289v-555h-204v555h-379v-555h-205v555h-129l35 168h94v90q0 121 58 210.5t145 132t188 42.5q143 0 270 -102
q43 50 104.5 76t129.5 26q143 0 244 -108l-121 -121q-40 57 -103 57q-55 0 -91 -38t-36 -105v-160h431z" />
    <glyph glyph-name="f_h" horiz-adv-x="1503" 
d="M692 952q-20 23 -70.5 48.5t-103.5 25.5q-79 0 -132.5 -58.5t-53.5 -156.5v-88h235l-35 -168h-200v-555h-205v555h-129l35 168h94v90q0 121 58 210.5t145 132t188 42.5q79 0 162 -33.5t132 -69t85 -71.5v-365q93 86 227 86q120 0 193.5 -77t73.5 -222v-446h-205v442
q0 62 -33.5 94.5t-89.5 32.5q-45 0 -94 -28.5t-72 -51.5v-489h-205v952z" />
    <glyph glyph-name="f_t" horiz-adv-x="1169" 
d="M1128 16q-92 -39 -180 -39q-55 0 -100 16t-82 52t-57.5 100t-20.5 152v258h-356v-555h-205v555h-129l35 168h94v90q0 121 58 210.5t145 132t188 42.5q78 0 160.5 -34.5t131 -71t83.5 -72.5v-297h231l-34 -168h-197v-262q0 -74 33.5 -106.5t97.5 -32.5q47 0 104 24v-162z
M688 723v227q-21 24 -69 50t-101 26q-79 0 -132.5 -58.5t-53.5 -156.5v-88h356z" />
    <glyph glyph-name="f_y" horiz-adv-x="1298" 
d="M621 555h-289v-555h-205v555h-129l35 168h94v147q0 153 91 240.5t220 87.5q143 0 244 -108l-121 -121q-40 57 -102 57q-55 0 -91 -38t-36 -105v-160h430l162 -492l161 492h203l-272 -723l-168 -465h-197l170 465z" />
    <glyph glyph-name="g_i" horiz-adv-x="1290" 
d="M571 -279q0 30 -17 53.5t-48 32.5l-205 64q-29 -17 -55.5 -49.5t-26.5 -73.5q0 -56 53.5 -94.5t122.5 -38.5q78 0 127 33t49 73zM547 424q0 65 -43.5 107t-106.5 42q-64 0 -107.5 -42t-43.5 -107t43.5 -107.5t107.5 -42.5q63 0 106.5 42.5t43.5 107.5zM1188 995
l-133 -133l-135 135l133 133zM1157 723v-723h-205v563h-250q33 -68 33 -139q0 -139 -98 -230.5t-240 -91.5q-41 0 -59 4l-41 -59l250 -74q99 -29 156 -93.5t57 -158.5q0 -106 -104 -185t-269 -79q-144 0 -245 74.5t-101 194.5q0 107 100 190l-104 35l160 211
q-65 44 -101.5 111.5t-36.5 150.5q0 139 98 230t240 91q131 0 221 -75l41 53h498z" />
    <glyph glyph-name="g_y" horiz-adv-x="1566" 
d="M571 -279q0 30 -17 53.5t-48 32.5l-205 64q-29 -17 -55.5 -49.5t-26.5 -73.5q0 -56 53.5 -94.5t122.5 -38.5q78 0 127 33t49 73zM547 424q0 65 -43.5 107t-106.5 42q-64 0 -107.5 -42t-43.5 -107t43.5 -107.5t107.5 -42.5q63 0 106.5 42.5t43.5 107.5zM1030 723l162 -492
l162 492h202l-272 -723l-168 -465h-196l170 465l-205 563h-183q33 -68 33 -139q0 -139 -98 -230.5t-240 -91.5q-41 0 -59 4l-41 -59l250 -74q99 -29 156 -93.5t57 -158.5q0 -106 -104 -185t-269 -79q-144 0 -245 74.5t-101 194.5q0 107 100 190l-104 35l160 211
q-65 44 -101.5 111.5t-36.5 150.5q0 139 98 230t240 91q131 0 221 -75l41 53h371z" />
    <glyph glyph-name="zero.nfra" horiz-adv-x="677" 
d="M580 844q0 -60 -14.5 -118t-42.5 -107.5t-75.5 -80t-107.5 -30.5t-108 30.5t-76.5 80t-43 107.5t-14.5 118t14.5 118t43 108t76.5 81t108 31t107.5 -31t75.5 -81t42.5 -108t14.5 -118zM438 844q0 91 -30 149t-68 58q-39 0 -69.5 -58t-30.5 -149t30.5 -149t69.5 -58
q38 0 68 58t30 149z" />
    <glyph glyph-name="one.nfra" horiz-adv-x="419" 
d="M283 526h-146v623l146 43v-666z" />
    <glyph glyph-name="two.nfra" horiz-adv-x="645" 
d="M547 526h-453v66l211 223q94 97 94 160q0 38 -23 60t-63 22t-66 -27t-30 -84h-135q6 110 72 174t161 64q98 0 163 -58t65 -151q0 -99 -123 -232q-6 -7 -23 -23t-38.5 -37t-32.5 -32h221v-125z" />
    <glyph glyph-name="three.nfra" horiz-adv-x="608" 
d="M510 733q0 -99 -71 -162t-169 -63q-125 0 -211 86l84 98l9 -8q9 -8 14 -12.5t17.5 -12.5t23 -12.5t26 -8t31.5 -3.5q41 0 71 26t30 70q0 40 -27.5 62t-69.5 22q-25 0 -65 -20l-62 79q74 40 121 76t74 84h-244v129h406v-71q-5 -27 -15 -52.5t-26.5 -48t-27 -35.5
t-29 -31.5l-19.5 -19.5q129 -52 129 -172z" />
    <glyph glyph-name="four.nfra" horiz-adv-x="614" 
d="M561 678h-88v-152h-141v152h-271l-24 61l317 424h119v-360h88v-125zM332 803v174l-33 -51l-94 -123h127z" />
    <glyph glyph-name="five.nfra" horiz-adv-x="634" 
d="M537 735q0 -95 -74 -161t-180 -66q-117 0 -224 80l82 102q74 -59 131 -59q50 0 80.5 31.5t30.5 72.5t-30.5 73t-80.5 32q-42 0 -86 -29l-65 16l26 336h365v-127h-248l-6 -78q30 5 37 5q103 0 172.5 -66.5t69.5 -161.5z" />
    <glyph glyph-name="six.nfra" horiz-adv-x="686" 
d="M588 1065q-196 -28 -279 -121q4 0 13 1t14 1q96 0 171 -60.5t75 -160.5q0 -90 -70.5 -153.5t-165.5 -63.5q-118 0 -183 76.5t-65 179.5q0 169 139 284t351 130v-113zM442 725q0 42 -31.5 74t-84.5 32q-46 0 -82 -16q-6 -15 -6 -49q0 -62 28.5 -98.5t81.5 -36.5
q40 0 67 28.5t27 65.5z" />
    <glyph glyph-name="seven.nfra" horiz-adv-x="561" 
d="M516 1112l-266 -586h-154l246 512h-283v125h424z" />
    <glyph glyph-name="eight.nfra" horiz-adv-x="638" 
d="M541 698q0 -82 -65 -136t-157 -54t-156.5 53.5t-64.5 134.5q0 97 101 164q-90 60 -90 150q0 75 61 123.5t149 48.5q87 0 149 -48.5t62 -123.5q0 -86 -90 -146q101 -70 101 -166zM391 1004q0 21 -19 38t-53 17q-35 0 -54 -17t-19 -38q0 -43 76 -82q69 40 69 82zM399 705
q0 13 -12 34q-23 39 -72 66q-77 -52 -77 -100q0 -30 22.5 -51.5t58.5 -22.5q35 -1 57.5 21t22.5 53z" />
    <glyph glyph-name="nine.nfra" horiz-adv-x="686" 
d="M588 926q0 -169 -138 -283.5t-352 -132.5v115q194 28 279 118h-25q-96 0 -169.5 60t-73.5 162q0 90 68.5 153.5t164.5 63.5q118 0 182 -76.5t64 -179.5zM451 924q0 62 -29.5 98.5t-83.5 36.5q-39 0 -66.5 -29t-27.5 -65q0 -42 32 -74.5t84 -32.5t84 14q7 42 7 52z" />
    <glyph glyph-name="zero.dfra" horiz-adv-x="677" 
d="M580 317q0 -60 -14.5 -117.5t-42.5 -107t-75.5 -80t-107.5 -30.5t-108 30.5t-76.5 80t-43 107t-14.5 117.5t14.5 118t43 108t76.5 81t108 31t107.5 -31t75.5 -81t42.5 -108t14.5 -118zM438 317q0 91 -30 149t-68 58q-39 0 -69.5 -58t-30.5 -149t30.5 -148.5t69.5 -57.5
q38 0 68 57.5t30 148.5z" />
    <glyph glyph-name="one.dfra" horiz-adv-x="419" 
d="M283 0h-146v623l146 43v-666z" />
    <glyph glyph-name="two.dfra" horiz-adv-x="645" 
d="M547 0h-453v66l211 223q94 97 94 160q0 38 -23 59.5t-63 21.5t-66 -26.5t-30 -83.5h-135q6 109 72 173t161 64q98 0 163 -58t65 -150q0 -99 -123 -232q-6 -7 -23 -23t-38.5 -37t-32.5 -32h221v-125z" />
    <glyph glyph-name="three.dfra" horiz-adv-x="608" 
d="M510 207q0 -99 -71 -162t-169 -63q-125 0 -211 86l84 98l9 -8q9 -8 14 -12.5t17.5 -12.5t23 -12.5t26 -8t31.5 -3.5q41 0 71 26t30 70q0 40 -27.5 62t-69.5 22q-23 0 -65 -21l-62 80q74 40 121 76t74 84h-244v129h406v-72q-5 -27 -15.5 -52.5t-26.5 -47.5t-27 -35.5
t-29 -31t-19 -19.5q129 -52 129 -172z" />
    <glyph glyph-name="four.dfra" horiz-adv-x="614" 
d="M561 152h-88v-152h-141v152h-271l-24 61l317 424h119v-361h88v-124zM332 276v175l-33 -52l-94 -123h127z" />
    <glyph glyph-name="five.dfra" horiz-adv-x="634" 
d="M537 209q0 -95 -74 -161t-180 -66q-119 0 -224 79l82 103q24 -19 40 -30t41 -20.5t50 -9.5q50 0 80.5 32t30.5 73t-30.5 72.5t-80.5 31.5q-44 0 -86 -28l-65 16l26 336h365v-127h-248l-6 -78q24 4 37 4q103 0 172.5 -66t69.5 -161z" />
    <glyph glyph-name="six.dfra" horiz-adv-x="686" 
d="M588 539q-196 -28 -279 -121q4 0 13 1t14 1q96 0 171 -60.5t75 -160.5q0 -90 -70.5 -153.5t-165.5 -63.5q-118 0 -183 76.5t-65 179.5q0 169 139 283.5t351 129.5v-112zM442 199q0 42 -31.5 74t-84.5 32q-46 0 -82 -16q-6 -15 -6 -49q0 -62 28.5 -99t81.5 -37q40 0 67 29
t27 66z" />
    <glyph glyph-name="seven.dfra" horiz-adv-x="561" 
d="M516 586l-266 -586h-154l246 512h-283v125h424z" />
    <glyph glyph-name="eight.dfra" horiz-adv-x="638" 
d="M541 172q0 -82 -65 -136t-157 -54t-156.5 53.5t-64.5 134.5q0 97 101 164q-90 60 -90 149q0 75 61 123.5t149 48.5q87 0 149 -48.5t62 -123.5q0 -85 -90 -145q101 -70 101 -166zM391 477q0 21 -19 38t-53 17q-35 0 -54 -17t-19 -38q0 -43 76 -82q69 40 69 82zM399 178
q0 14 -12 35q-23 39 -72 66q-77 -52 -77 -101q0 -30 22.5 -51.5t58.5 -22.5q35 -1 57.5 21t22.5 53z" />
    <glyph glyph-name="nine.dfra" horiz-adv-x="686" 
d="M588 399q0 -169 -138 -283t-352 -132v114q193 27 279 119h-25q-96 0 -169.5 60t-73.5 161q0 90 68.5 153.5t164.5 63.5q118 0 182 -76.5t64 -179.5zM451 397q0 62 -29.5 98.5t-83.5 36.5q-39 0 -66.5 -29t-27.5 -65q0 -42 32 -74t84 -32t84 14q7 42 7 51z" />
    <glyph glyph-name="orn.001" 
d="M420 868l133 133l133 -133l-133 -133zM707 582l133 133l133 -133l-133 -133zM420 582l133 133l133 -133l-133 -133zM133 582l133 133l133 -133l-133 -133zM420 295l133 133l133 -133l-133 -133z" />
    <glyph glyph-name="orn.002" 
d="M662 690v189h188v-189h-188zM256 690v189h188v-189h-188zM459 487v189h188v-189h-188zM662 285v188h188v-188h-188zM256 285v188h188v-188h-188z" />
    <glyph glyph-name="orn.003" horiz-adv-x="860" 
d="M563 748l-133 -134l-133 134l133 133zM727 584l-133 -133l-133 133l133 133zM397 584l-133 -133l-133 133l133 133zM563 420l-133 -133l-133 133l133 133z" />
    <glyph glyph-name="orn.004" 
d="M705 866l133 -133l-133 -133l-134 133zM266 733l133 133l133 -133l-133 -133zM571 428l134 133l133 -133l-133 -133zM399 561l133 -133l-133 -133l-133 133z" />
    <glyph glyph-name="orn.005" 
d="M459 891h186v-189h-186v189zM674 487v187h188v-187h-188zM242 487v187h188v-187h-188zM459 459h186v-189h-186v189z" />
    <glyph glyph-name="orn.006" 
d="M686 870l-133 -133l-133 133l133 134zM700 729v127h127v-127h-127zM406 729h-127v127h127v-127zM842 449l-133 133l133 133l133 -133zM264 715l133 -133l-133 -133l-133 133zM700 434h127v-127h-127v127zM406 434v-127h-127v127h127zM420 293l133 133l133 -133l-133 -133
z" />
    <glyph glyph-name="orn.007" 
d="M553 791l-90 90l90 90l90 -90zM852 692h-188v189h188v-189zM442 881v-189h-188v189h188zM762 582l90 90l90 -90l-90 -90zM344 582l-90 -90l-90 90l90 90zM664 283v188h188v-188h-188zM254 471h188v-188h-188v188zM553 373l90 -90l-90 -90l-90 90z" />
    <glyph glyph-name="orn.008" 
d="M709 829l-156 -153l-156 153l156 156zM956 582l-155 -156l-154 156l154 155zM641 582l-88 -88l-88 88l88 88zM459 582l-154 -156l-155 156l155 155zM709 334l-156 -156l-156 156l156 153z" />
    <glyph glyph-name="orn.009" 
d="M840 868v-219h-219v219h219zM485 868v-219h-219v219h219zM614 643v-123h-122v123h122zM840 514v-219h-219v219h219zM485 514v-219h-219v219h219z" />
    <glyph glyph-name="orn.010" 
d="M647 915l-94 -94l-94 94l94 93zM979 582l-92 -95l-94 95l94 94zM788 582l-235 -236l-236 236l236 235zM313 582l-94 -95l-92 95l92 94zM647 248l-94 -92l-94 92l94 94z" />
    <glyph glyph-name="orn.011" 
d="M723 885h133v-133h-133v133zM250 885h133v-133h-133v133zM387 748h332v-332h-332v332zM723 412h133v-133h-133v133zM250 412h133v-133h-133v133z" />
    <glyph glyph-name="orn.012" 
d="M510 1063h86v-88h-86v88zM846 874v-153h-154v153h154zM414 874v-153h-154v153h154zM1034 625v-86h-88v86h88zM688 717v-271h-270v271h270zM72 539v86h88v-86h-88zM846 442v-153h-154v153h154zM414 442v-153h-154v153h154zM596 100h-86v88h86v-88z" />
    <glyph glyph-name="orn.013" 
d="M862 952l62 -61l-62 -62l-61 62zM182 891l62 61l61 -61l-61 -62zM662 887l-109 -109l-109 109l109 108zM967 582l-109 -109l-108 109l108 108zM743 582l-190 -191l-191 191l191 190zM356 582l-108 -109l-109 109l109 108zM662 276l-109 -108l-109 108l109 109zM924 272
l-62 -61l-61 61l61 62zM244 211l-62 61l62 62l61 -62z" />
    <glyph glyph-name="orn.014" 
d="M713 971l229 -230h-229v230zM393 971v-230h-229zM438 696h230v-229h-230v229zM713 422h229l-229 -229v229zM164 422h229v-229z" />
    <glyph glyph-name="orn.015" 
d="M715 969l-162 -162l-162 162h324zM940 743v-323l-162 162zM553 743l162 -161l-162 -162l-162 162zM166 743l162 -161l-162 -162v323zM553 356l162 -161h-324z" />
    <glyph glyph-name="orn.016" 
d="M686 868h-266l133 133zM973 582l-133 -133v266zM803 582l-250 -250l-250 250l250 249zM266 449l-133 133l133 133v-266zM686 295l-133 -133l-133 133h266z" />
    <glyph glyph-name="orn.017" 
d="M850 879v-189l-188 189h188zM444 879l-188 -189v189h188zM729 758v-352h-352v352h352zM850 473v-188h-188zM444 285h-188v188z" />
    <glyph glyph-name="orn.018" 
d="M678 881l-2 -248l-248 248l125 123zM852 457l-248 2l248 248l123 -125zM254 707l248 -2l-248 -248l-123 125zM428 283l2 247l248 -247l-125 -123z" />
    <glyph glyph-name="orn.019" 
d="M430 881l174 -176h-350v176h176zM852 705l-176 -175v351h176v-176zM254 459l176 174v-350h-176v176zM676 283l-174 176h350v-176h-176z" />
    <glyph glyph-name="orn.020" 
d="M852 881v-133l-236 -103l103 236h133zM387 881l102 -236l-235 103v133h133zM553 707l125 -125l-125 -125l-125 125zM852 416v-133h-133l-103 235zM489 518l-102 -235h-133v133z" />
    <glyph glyph-name="orn.021" 
d="M647 911l-94 -239l-94 239l94 93zM975 582l-92 -95l-240 95l240 94zM641 670v-176h-176v176h176zM463 582l-240 -95l-92 95l92 94zM647 252l-94 -92l-94 92l94 240z" />
    <glyph glyph-name="orn.022" 
d="M553 586l166 297h137v-138l-297 -165l297 -166v-138h-137l-166 297l-166 -297h-137v138l297 166l-297 165v138h137z" />
    <glyph glyph-name="orn.023" 
d="M557 584l328 92l96 -96l-96 -97l-328 92l92 -327l-96 -96l-96 96l92 327l-328 -92l-96 97l96 96l328 -92l-92 327l96 97l96 -97z" />
    <glyph glyph-name="orn.024" 
d="M471 360l-219 -81l82 219l213 82l-213 82l-82 219l219 -82l82 -213l82 213l219 82l-82 -219l-213 -82l213 -82l82 -219l-219 81l-82 213z" />
    <glyph glyph-name="orn.025" 
d="M457 793l96 213l96 -213l-92 -209l209 92l213 -96l-213 -97l-209 92l92 -208l-96 -213l-96 213l92 208l-209 -92l-213 97l213 96l209 -92z" />
    <glyph glyph-name="orn.026" 
d="M631 836l-78 -226l-78 226l78 168zM852 881l-64 -174l-165 -56l55 166zM483 651l-166 56l-63 174l174 -64zM975 582l-168 -78l-225 78l225 77zM524 582l-225 -78l-168 78l168 77zM852 283l-174 63l-55 166l165 -55zM483 512l-55 -166l-174 -63l63 174zM631 328l-78 -168
l-78 168l78 225z" />
    <glyph glyph-name="orn.027" 
d="M811 582l74 71l71 -71l-71 -72zM651 582l74 299l72 -299l-72 -299zM553 1083l84 -501l-84 -502l-84 502zM381 881l74 -299l-74 -299l-72 299zM221 653l74 -71l-74 -72l-71 72z" />
    <glyph glyph-name="orn.028" 
d="M553 840l-72 73l72 72l72 -72zM553 680l-299 74l299 71l299 -71zM553 666l502 -84l-502 -84l-502 84zM553 483l299 -73l-299 -72l-299 72zM553 324l72 -74l-72 -72l-72 72z" />
    <glyph glyph-name="orn.029" 
d="M606 971l-53 -53l-53 53l53 53zM643 823l-90 -88l-90 88l90 90zM995 582l-53 -54l-53 54l53 53zM885 582l-90 -90l-88 90l88 90zM702 582l-149 -150l-150 150l150 149zM399 582l-88 -90l-90 90l90 90zM217 582l-53 -54l-53 54l53 53zM643 340l-90 -90l-90 90l90 88z
M606 193l-53 -54l-53 54l53 53z" />
    <glyph glyph-name="orn.030" 
d="M868 821h-75v76h75v-76zM313 897v-76h-75v76h75zM791 690h-129v129h129v-129zM444 819v-129h-129v129h129zM659 688v-213h-213v213h213zM662 344v129h129v-129h-129zM315 473h129v-129h-129v129zM793 266v76h75v-76h-75zM238 342h75v-76h-75v76z" />
    <glyph glyph-name="commaaccent" horiz-adv-x="681" 
d="M279 -80h198q-10 -84 -60.5 -180.5t-109.5 -155.5h-104q76 176 76 336z" />
    <glyph glyph-name="acute.cap" horiz-adv-x="681" 
d="M506 1575l-203 -313h-127l115 313h215z" />
    <glyph glyph-name="breve.cap" horiz-adv-x="681" 
d="M614 1556q0 -123 -80.5 -199.5t-191.5 -76.5q-112 0 -193 76.5t-81 199.5h143q0 -65 37.5 -106t91.5 -41q55 0 93 41t38 106h143z" />
    <glyph glyph-name="caron.cap" horiz-adv-x="681" 
d="M596 1575l-217 -313h-76l-217 313h160l94 -172l96 172h160z" />
    <glyph glyph-name="cedilla.cap" horiz-adv-x="681" 
d="M393 2l-20 -65q55 -6 85.5 -49t30.5 -107q0 -82 -59 -132t-139 -50q-60 0 -98 20v135q24 -18 73 -18q28 0 48 14.5t20 42.5q0 27 -20 43.5t-48 16.5q-26 0 -55 -11l43 160h139z" />
    <glyph glyph-name="circumflex.cap" horiz-adv-x="681" 
d="M588 1262h-119l-129 186l-127 -186h-119l174 315h146z" />
    <glyph glyph-name="commaaccent.cap" horiz-adv-x="681" 
d="M279 -100h198q-10 -84 -60.5 -180.5t-109.5 -155.5h-104q76 176 76 336z" />
    <glyph glyph-name="dieresis.cap" horiz-adv-x="681" 
d="M649 1432l-135 -134l-133 134l133 135zM301 1432l-133 -134l-135 134l135 135z" />
    <glyph glyph-name="dotaccent.cap" horiz-adv-x="681" 
d="M475 1432l-133 -134l-135 134l133 135z" />
    <glyph glyph-name="grave.cap" horiz-adv-x="681" 
d="M379 1262l-203 313h215l115 -313h-127z" />
    <glyph glyph-name="hungarumlaut.cap" horiz-adv-x="681" 
d="M379 1575l-227 -313h-119l149 313h197zM649 1575l-227 -313h-119l150 313h196z" />
    <glyph glyph-name="macron.cap" horiz-adv-x="681" 
d="M641 1335h-600v144h600v-144z" />
    <glyph glyph-name="ogonek.cap" horiz-adv-x="681" 
d="M504 -227v-148q-43 -26 -111 -26q-99 0 -157 55.5t-58 150.5q0 79 51.5 151t130.5 101l134 -57q-63 -20 -102.5 -68t-39.5 -100q0 -37 22 -56.5t56 -19.5q36 0 74 17z" />
    <glyph glyph-name="ring.cap" horiz-adv-x="681" 
d="M537 1448q0 -75 -57.5 -128.5t-137.5 -53.5q-82 0 -139.5 52.5t-57.5 127.5q0 76 57.5 130t139.5 54q80 0 137.5 -53.5t57.5 -128.5zM428 1448q0 35 -25 58.5t-61 23.5t-61 -23.5t-25 -58.5t25 -58.5t61 -23.5t61 23.5t25 58.5z" />
    <glyph glyph-name="tilde.cap" horiz-adv-x="681" 
d="M641 1509q-6 -86 -55 -143t-129 -57q-52 0 -115.5 31.5t-89.5 31.5q-59 0 -64 -61h-147q6 88 52 144t132 56q47 0 114 -31.5t97 -31.5q24 0 41 16t17 45h147z" />
    <glyph glyph-name="zero.onum" horiz-adv-x="1200" 
d="M1098 471q0 -139 -67 -254t-181.5 -180.5t-249.5 -65.5t-249.5 65.5t-181.5 180.5t-67 254t67 254t181.5 180.5t249.5 65.5t249.5 -65.5t181.5 -180.5t67 -254zM881 471q0 126 -81.5 213.5t-199.5 87.5t-200.5 -87.5t-82.5 -213.5q0 -127 82 -214t201 -87
q118 0 199.5 87.5t81.5 213.5z" />
    <glyph glyph-name="one.onum" horiz-adv-x="548" 
d="M385 0h-221v936h221v-936z" />
    <glyph glyph-name="two.onum" horiz-adv-x="976" 
d="M864 647q0 -62 -23 -117.5t-68 -103.5t-85 -80.5t-100 -73.5l-109 -73h371v-199h-768v90l356 279q60 47 84 67.5t59.5 55t48.5 62.5t13 58q0 74 -43 115t-121 41q-84 0 -134 -61t-50 -148h-201q0 103 52.5 197.5t146.5 154.5t205 60q163 0 264.5 -85t101.5 -239z" />
    <glyph glyph-name="three.onum" horiz-adv-x="907" 
d="M805 145q0 -120 -59 -214t-154 -142.5t-205 -48.5q-215 0 -356 141l127 158q2 -1 21 -17.5t35.5 -27t42.5 -25t57.5 -22.5t64.5 -8q81 0 142 55t61 149q0 82 -55 129t-130 47q-42 0 -125 -34l-88 121q62 34 107 63t96 69.5t90 90t66 106.5h-461v201h700v-113
q-32 -211 -190 -360q39 -18 73.5 -43.5t67.5 -63.5t52.5 -92.5t19.5 -118.5z" />
    <glyph glyph-name="four.onum" horiz-adv-x="956" 
d="M915 59h-163v-286h-220v286h-475l-37 95l549 782h183v-684h163v-193zM532 252v397l-96 -149l-170 -248h266z" />
    <glyph glyph-name="five.onum" horiz-adv-x="944" 
d="M842 147q0 -169 -129 -289t-312 -120q-187 0 -344 108q-32 24 -37 29l125 158l35 -27q104 -76 201 -76q98 0 160.5 66.5t62.5 150.5t-63 152t-160 68q-80 0 -164 -54l-88 23l41 600h627v-197h-451l-14 -194q48 10 90 10q181 0 300.5 -118.5t119.5 -289.5z" />
    <glyph glyph-name="six.onum" horiz-adv-x="1058" 
d="M956 1018q-382 -62 -540 -277q85 11 98 11q79 0 154.5 -27t136.5 -76t98 -125.5t37 -167.5q0 -161 -121 -276t-287 -115q-85 0 -157 26.5t-121.5 71t-84 104.5t-51 126t-16.5 135q0 154 65.5 290t180 234.5t271.5 161t337 76.5v-172zM733 356q0 89 -65.5 155.5
t-171.5 66.5q-19 0 -36 -1t-29.5 -2.5t-25.5 -4.5t-21 -5t-18 -6t-14.5 -5.5t-13 -5.5t-10.5 -5q-15 -45 -15 -111q0 -122 59 -200t167 -78q82 0 138 61.5t56 140.5z" />
    <glyph glyph-name="seven.onum" horiz-adv-x="874" 
d="M829 858l-477 -1085h-233l444 970h-526v193h743z" />
    <glyph glyph-name="eight.onum" horiz-adv-x="968" 
d="M866 303q0 -142 -111.5 -240t-271.5 -98q-159 0 -270 97t-111 237q0 182 201 311q-184 116 -184 283q0 131 106.5 218t259.5 87q152 0 258.5 -86.5t106.5 -216.5q0 -163 -182 -279q198 -129 198 -313zM637 879q0 50 -40.5 88.5t-113.5 38.5q-71 0 -111 -37.5t-40 -83.5
q0 -24 11.5 -48t27 -42.5t39.5 -38t41 -31t41 -25.5q145 96 145 179zM653 313q0 39 -24 80q-46 74 -150 139q-75 -48 -118.5 -99t-43.5 -116q0 -64 46.5 -111.5t121.5 -47.5q74 0 121 46t47 109z" />
    <glyph glyph-name="nine.onum" horiz-adv-x="1058" 
d="M956 508q0 -154 -65.5 -290t-180 -234.5t-271.5 -161t-337 -76.5v172q383 62 541 277q-85 -11 -98 -11q-79 0 -154.5 27t-136.5 76t-98 125.5t-37 167.5q0 161 120.5 276t286.5 115q85 0 157 -26.5t121.5 -71t84 -104.5t51 -126t16.5 -135zM745 504q0 122 -58.5 200
t-166.5 78q-82 0 -138 -61.5t-56 -140.5q0 -89 65.5 -155.5t171.5 -66.5q19 0 36 1t29.5 2.5t25.5 4.5t21 5t18 6t14.5 5.5t13 5.5t10.5 5q14 42 14 111z" />
    <glyph glyph-name="zero.tnum" horiz-adv-x="1044" 
d="M940 580q0 -89 -15.5 -175t-49.5 -166t-82 -140.5t-117.5 -97t-151.5 -36.5q-102 0 -185 55t-132.5 145t-76 196.5t-26.5 218.5t26.5 219t76 197.5t132.5 146t185 55.5q82 0 151.5 -36.5t117.5 -97.5t82 -141.5t49.5 -167t15.5 -175.5zM725 580q0 176 -58.5 294.5
t-142.5 118.5t-144.5 -119t-60.5 -294t60.5 -293.5t144.5 -118.5t142.5 118t58.5 294z" />
    <glyph glyph-name="one.tnum" horiz-adv-x="1044" 
d="M633 0h-221v1141l221 65v-1206z" />
    <glyph glyph-name="two.tnum" horiz-adv-x="1044" 
d="M903 0h-784v94l381 416q88 96 134 170.5t46 144.5q0 82 -50 131.5t-132 49.5q-79 0 -133.5 -53.5t-63.5 -155.5h-201q9 182 123.5 293.5t276.5 111.5q172 0 284.5 -104.5t112.5 -272.5q0 -187 -221 -422q-122 -129 -207 -210h434v-193z" />
    <glyph glyph-name="three.tnum" horiz-adv-x="1044" 
d="M879 373q0 -120 -59 -214t-154 -143t-205 -49q-215 0 -357 142l127 157q1 -1 21 -17.5t36.5 -27t42.5 -25t57.5 -22.5t64.5 -8q81 0 141.5 55t60.5 150q0 82 -54.5 129t-129.5 47q-40 0 -125 -35l-88 121q130 72 219 147t139 183h-460v200h700v-112q-32 -212 -190 -361
q39 -18 73.5 -43t67.5 -63t52.5 -92.5t19.5 -118.5z" />
    <glyph glyph-name="four.tnum" horiz-adv-x="1044" 
d="M958 287h-163v-287h-220v287h-475l-37 94l549 782h183v-684h163v-192zM575 479v398l-96 -150l-170 -248h266z" />
    <glyph glyph-name="five.tnum" horiz-adv-x="1044" 
d="M897 375q0 -169 -128.5 -289.5t-311.5 -120.5q-185 0 -344 109q-36 27 -37 28l125 158l35 -27q103 -75 200 -75q98 0 160.5 66.5t62.5 150.5t-63 151.5t-160 67.5q-82 0 -164 -53l-88 22l41 600h627v-196h-451l-14 -195q48 10 90 10q181 0 300.5 -118t119.5 -289z" />
    <glyph glyph-name="six.tnum" horiz-adv-x="1044" 
d="M950 1018q-382 -62 -540 -277q85 11 98 11q79 0 154.5 -27t136.5 -76t98 -125.5t37 -167.5q0 -161 -121 -276t-287 -115q-85 0 -157 26.5t-121.5 71t-84 104.5t-51 126t-16.5 135q0 154 65.5 290t180 234.5t271.5 161t337 76.5v-172zM727 356q0 89 -66 155.5t-172 66.5
q-21 0 -39.5 -1t-34 -4t-26 -5t-23 -6.5t-17 -6t-15.5 -7t-12 -5.5q-15 -45 -15 -111q0 -122 58.5 -200t166.5 -78q82 0 138.5 61.5t56.5 140.5z" />
    <glyph glyph-name="seven.tnum" horiz-adv-x="1044" 
d="M918 1085l-478 -1085h-233l444 971h-526v192h743z" />
    <glyph glyph-name="eight.tnum" horiz-adv-x="1044" 
d="M903 303q0 -142 -111.5 -240t-271.5 -98q-159 0 -270 97t-111 237q0 182 201 311q-184 116 -184 283q0 131 106.5 218t259.5 87q152 0 258.5 -86.5t106.5 -216.5q0 -163 -182 -279q198 -129 198 -313zM674 879q0 50 -40.5 88.5t-113.5 38.5q-71 0 -111 -37.5t-40 -83.5
q0 -89 159 -185q146 97 146 179zM690 313q0 57 -49.5 116t-124.5 103q-75 -48 -118.5 -99t-43.5 -116q0 -64 46.5 -111.5t121.5 -47.5q74 0 121 46t47 109z" />
    <glyph glyph-name="nine.tnum" horiz-adv-x="1044" 
d="M950 735q0 -154 -65.5 -290t-180 -234.5t-271.5 -161t-337 -76.5v172q383 62 541 277q-77 -10 -98 -10q-79 0 -154.5 27t-136.5 75.5t-98 125t-37 167.5q0 161 120.5 276t286.5 115q85 0 157 -26.5t121.5 -71t84 -104.5t51 -126t16.5 -135zM739 731q0 123 -58.5 201
t-166.5 78q-82 0 -138.5 -62t-56.5 -141q0 -89 66 -155t172 -66q19 0 36 1t29.5 2.5t25.5 4.5t21 5t18 6t14.5 5.5t13 5.5t10.5 5q14 42 14 110z" />
    </font>
</defs>
</svg>
